<svg version="1.1" viewBox="0.0 0.0 600.0 371.0" fill="none" stroke="none" stroke-linecap="square" stroke-miterlimit="10" width="600" height="371" xmlns:xlink="http://www.w3.org/1999/xlink" xmlns="http://www.w3.org/2000/svg"><path fill="#ffffff" d="M0 0L600.0 0L600.0 371.0L0 371.0L0 0Z" fill-rule="nonzero"/><path stroke="#cccccc" stroke-width="1.0" stroke-linecap="butt" d="M105.5 282.5L581.5 282.5" fill-rule="nonzero"/><path stroke="#cccccc" stroke-width="1.0" stroke-linecap="butt" d="M105.5 238.5L581.5 238.5" fill-rule="nonzero"/><path stroke="#cccccc" stroke-width="1.0" stroke-linecap="butt" d="M105.5 195.5L581.5 195.5" fill-rule="nonzero"/><path stroke="#cccccc" stroke-width="1.0" stroke-linecap="butt" d="M105.5 151.5L581.5 151.5" fill-rule="nonzero"/><path stroke="#cccccc" stroke-width="1.0" stroke-linecap="butt" d="M105.5 108.5L581.5 108.5" fill-rule="nonzero"/><path stroke="#cccccc" stroke-width="1.0" stroke-linecap="butt" d="M105.5 64.5L581.5 64.5" fill-rule="nonzero"/><clipPath id="id_0"><path d="M105.55 64.416664L581.45 64.416664L581.45 282.45L105.55 282.45L105.55 64.416664Z" clip-rule="nonzero"/></clipPath><path stroke="#000000" stroke-width="2.0" stroke-linecap="butt" stroke-opacity="0.0" clip-path="url(#id_0)" d="M195.0 282.0L137.0 282.0L137.0 153.0C137.0 151.89543 137.89543 151.0 139.0 151.0L193.0 151.0C194.10457 151.0 195.0 151.89543 195.0 153.0Z" fill-rule="nonzero"/><path fill="#3c78d8" clip-path="url(#id_0)" d="M195.0 282.0L137.0 282.0L137.0 153.0C137.0 151.89543 137.89543 151.0 139.0 151.0L193.0 151.0C194.10457 151.0 195.0 151.89543 195.0 153.0Z" fill-rule="nonzero"/><path stroke="#000000" stroke-width="2.0" stroke-linecap="butt" stroke-opacity="0.0" clip-path="url(#id_0)" d="M284.0 282.0L226.0 282.0L226.0 138.0C226.0 136.89543 226.89543 136.0 228.0 136.0L282.0 136.0C283.10458 136.0 284.0 136.89543 284.0 138.0Z" fill-rule="nonzero"/><path fill="#3c78d8" clip-path="url(#id_0)" d="M284.0 282.0L226.0 282.0L226.0 138.0C226.0 136.89543 226.89543 136.0 228.0 136.0L282.0 136.0C283.10458 136.0 284.0 136.89543 284.0 138.0Z" fill-rule="nonzero"/><path stroke="#000000" stroke-width="2.0" stroke-linecap="butt" stroke-opacity="0.0" clip-path="url(#id_0)" d="M373.0 282.0L315.0 282.0L315.0 231.0C315.0 229.89543 315.89542 229.0 317.0 229.0L371.0 229.0C372.10458 229.0 373.0 229.89543 373.0 231.0Z" fill-rule="nonzero"/><path fill="#3c78d8" clip-path="url(#id_0)" d="M373.0 282.0L315.0 282.0L315.0 231.0C315.0 229.89543 315.89542 229.0 317.0 229.0L371.0 229.0C372.10458 229.0 373.0 229.89543 373.0 231.0Z" fill-rule="nonzero"/><path stroke="#000000" stroke-width="2.0" stroke-linecap="butt" stroke-opacity="0.0" clip-path="url(#id_0)" d="M461.0 282.0L403.0 282.0L403.0 223.0C403.0 221.89543 403.89542 221.0 405.0 221.0L459.0 221.0C460.10458 221.0 461.0 221.89543 461.0 223.0Z" fill-rule="nonzero"/><path fill="#3c78d8" clip-path="url(#id_0)" d="M461.0 282.0L403.0 282.0L403.0 223.0C403.0 221.89543 403.89542 221.0 405.0 221.0L459.0 221.0C460.10458 221.0 461.0 221.89543 461.0 223.0Z" fill-rule="nonzero"/><path stroke="#000000" stroke-width="2.0" stroke-linecap="butt" stroke-opacity="0.0" clip-path="url(#id_0)" d="M550.0 282.0L492.0 282.0L492.0 82.0C492.0 80.89543 492.89542 80.0 494.0 80.0L548.0 80.0C549.10455 80.0 550.0 80.89543 550.0 82.0Z" fill-rule="nonzero"/><path fill="#cc0000" clip-path="url(#id_0)" d="M550.0 282.0L492.0 282.0L492.0 82.0C492.0 80.89543 492.89542 80.0 494.0 80.0L548.0 80.0C549.10455 80.0 550.0 80.89543 550.0 82.0Z" fill-rule="nonzero"/><path fill="#000000" d="M314.6875 348.45L314.6875 336.9969L316.96875 336.9969L319.6875 345.10626Q320.0625 346.23126 320.23438 346.79376Q320.42188 346.16876 320.84375 344.96564L323.57812 336.9969L325.625 336.9969L325.625 348.45L324.15625 348.45L324.15625 338.85626L320.82812 348.45L319.46875 348.45L316.15625 338.7L316.15625 348.45L314.6875 348.45ZM333.23438 345.77814L334.6875 345.95Q334.34375 347.23126 333.40625 347.9344Q332.48438 348.6375 331.04688 348.6375Q329.21875 348.6375 328.15625 347.5125Q327.09375 346.3875 327.09375 344.3719Q327.09375 342.27814 328.17188 341.1219Q329.25 339.96564 330.96875 339.96564Q332.625 339.96564 333.67188 341.10626Q334.73438 342.23126 334.73438 344.27814Q334.73438 344.40314 334.73438 344.65314L328.54688 344.65314Q328.625 346.02814 329.3125 346.7625Q330.01562 347.48126 331.04688 347.48126Q331.82812 347.48126 332.375 347.075Q332.92188 346.66876 333.23438 345.77814ZM328.625 343.4969L333.25 343.4969Q333.15625 342.45 332.71875 341.9344Q332.04688 341.1219 330.98438 341.1219Q330.01562 341.1219 329.34375 341.77814Q328.6875 342.41876 328.625 343.4969ZM339.625 347.1844L339.82812 348.4344Q339.23438 348.5594 338.76562 348.5594Q338.0 348.5594 337.57812 348.325Q337.15625 348.075 336.98438 347.6844Q336.8125 347.27814 336.8125 346.0125L336.8125 341.2469L335.78125 341.2469L335.78125 340.15314L336.8125 340.15314L336.8125 338.09064L338.21875 337.2469L338.21875 340.15314L339.625 340.15314L339.625 341.2469L338.21875 341.2469L338.21875 346.09064Q338.21875 346.7 338.28125 346.8719Q338.35938 347.04376 338.53125 347.15314Q338.70312 347.2469 339.01562 347.2469Q339.25 347.2469 339.625 347.1844ZM340.5625 348.45L340.5625 336.9969L341.96875 336.9969L341.96875 341.10626Q342.95312 339.96564 344.45312 339.96564Q345.375 339.96564 346.04688 340.325Q346.73438 340.6844 347.01562 341.325Q347.3125 341.96564 347.3125 343.1844L347.3125 348.45L345.90625 348.45L345.90625 343.1844Q345.90625 342.1375 345.45312 341.65314Q345.0 341.16876 344.15625 341.16876Q343.53125 341.16876 342.98438 341.4969Q342.4375 341.825 342.20312 342.3875Q341.96875 342.9344 341.96875 343.90314L341.96875 348.45L340.5625 348.45ZM348.03125 344.29376Q348.03125 341.9969 349.3125 340.8875Q350.39062 339.96564 351.92188 339.96564Q353.64062 339.96564 354.71875 341.09064Q355.8125 342.2 355.8125 344.1844Q355.8125 345.77814 355.32812 346.7Q354.84375 347.6219 353.92188 348.1375Q353.01562 348.6375 351.92188 348.6375Q350.1875 348.6375 349.10938 347.52814Q348.03125 346.40314 348.03125 344.29376ZM349.48438 344.29376Q349.48438 345.8875 350.17188 346.6844Q350.875 347.48126 351.92188 347.48126Q352.96875 347.48126 353.65625 346.6844Q354.35938 345.8875 354.35938 344.2469Q354.35938 342.71564 353.65625 341.91876Q352.96875 341.1219 351.92188 341.1219Q350.875 341.1219 350.17188 341.91876Q349.48438 342.7 349.48438 344.29376ZM362.9375 348.45L362.9375 347.40314Q362.15625 348.6375 360.625 348.6375Q359.625 348.6375 358.79688 348.09064Q357.96875 347.54376 357.5 346.5594Q357.04688 345.575 357.04688 344.3094Q357.04688 343.0594 357.45312 342.0594Q357.875 341.04376 358.70312 340.5125Q359.53125 339.96564 360.5625 339.96564Q361.3125 339.96564 361.89062 340.27814Q362.48438 340.59064 362.84375 341.10626L362.84375 336.9969L364.25 336.9969L364.25 348.45L362.9375 348.45ZM358.5 344.3094Q358.5 345.90314 359.17188 346.7Q359.84375 347.48126 360.75 347.48126Q361.67188 347.48126 362.3125 346.73126Q362.96875 345.96564 362.96875 344.41876Q362.96875 342.71564 362.3125 341.91876Q361.65625 341.1219 360.6875 341.1219Q359.75 341.1219 359.125 341.8875Q358.5 342.65314 358.5 344.3094ZM366.0 345.96564L367.39062 345.7469Q367.5 346.59064 368.03125 347.04376Q368.57812 347.48126 369.53125 347.48126Q370.5 347.48126 370.96875 347.09064Q371.4375 346.6844 371.4375 346.15314Q371.4375 345.6844 371.03125 345.40314Q370.73438 345.21564 369.59375 344.9344Q368.04688 344.54376 367.4375 344.2625Q366.84375 343.96564 366.53125 343.46564Q366.23438 342.96564 366.23438 342.35626Q366.23438 341.79376 366.48438 341.325Q366.73438 340.85626 367.17188 340.54376Q367.5 340.29376 368.0625 340.1375Q368.64062 339.96564 369.28125 339.96564Q370.26562 339.96564 371.0 340.2469Q371.73438 340.52814 372.07812 341.0125Q372.4375 341.48126 372.57812 342.29376L371.20312 342.48126Q371.10938 341.84064 370.65625 341.48126Q370.20312 341.1219 369.39062 341.1219Q368.42188 341.1219 368.0 341.45Q367.59375 341.7625 367.59375 342.1844Q367.59375 342.46564 367.76562 342.6844Q367.9375 342.90314 368.29688 343.0594Q368.51562 343.1375 369.54688 343.41876Q371.03125 343.8094 371.625 344.075Q372.21875 344.325 372.54688 344.8094Q372.89062 345.29376 372.89062 346.0125Q372.89062 346.71564 372.46875 347.34064Q372.0625 347.95 371.28125 348.29376Q370.51562 348.6375 369.54688 348.6375Q367.92188 348.6375 367.07812 347.96564Q366.23438 347.29376 366.0 345.96564Z" fill-rule="nonzero"/><path fill="#000000" d="M35.55001 268.7146L22.659388 263.76147L22.659388 261.91772L35.55001 256.6521L35.55001 258.5896L31.643763 260.0896L31.643763 265.48022L35.55001 266.9021L35.55001 268.7146ZM30.253138 264.99585L30.253138 260.62085L26.690638 261.9646Q25.065638 262.5896 24.018763 262.88647Q25.253138 263.12085 26.471888 263.57397L30.253138 264.99585ZM35.55001 253.90208L26.221888 257.44897L26.221888 255.77708L31.800013 253.77708Q32.70626 253.44896 33.690636 253.18333Q32.940636 252.96458 31.909388 252.58958L26.221888 250.52708L26.221888 248.88646L35.55001 252.43333L35.55001 253.90208ZM32.55001 241.10521L32.753136 239.46458Q34.17501 239.85521 34.971886 240.90208Q35.76876 241.94896 35.76876 243.57396Q35.76876 245.62083 34.503136 246.82396Q33.23751 248.02708 30.956263 248.02708Q28.612513 248.02708 27.315638 246.82396Q26.003138 245.60521 26.003138 243.66771Q26.003138 241.79271 27.284388 240.60521Q28.550013 239.41771 30.862513 239.41771Q31.003138 239.41771 31.284388 239.43333L31.284388 246.38646Q32.83126 246.30833 33.64376 245.52708Q34.45626 244.73021 34.45626 243.57396Q34.45626 242.69896 34.003136 242.08958Q33.55001 241.46458 32.55001 241.10521ZM29.987513 246.30833L29.987513 241.08958Q28.815638 241.19896 28.221888 241.68333Q27.300013 242.44896 27.300013 243.65208Q27.300013 244.73021 28.034388 245.48021Q28.768763 246.21458 29.987513 246.30833ZM35.55001 237.51146L26.221888 237.51146L26.221888 236.08958L27.628138 236.08958Q26.643763 235.54271 26.331263 235.08958Q26.003138 234.62083 26.003138 234.07396Q26.003138 233.26146 26.518763 232.44896L27.987513 232.98021Q27.643763 233.57396 27.643763 234.15208Q27.643763 234.66771 27.956263 235.08958Q28.268763 235.49583 28.815638 235.66771Q29.659388 235.93333 30.659388 235.93333L35.55001 235.93333L35.55001 237.51146ZM34.39376 225.40208Q35.14376 226.27708 35.45626 227.10521Q35.76876 227.91771 35.76876 228.83958Q35.76876 230.38646 35.01876 231.21458Q34.253136 232.02708 33.08126 232.02708Q32.409386 232.02708 31.846888 231.71458Q31.268763 231.40208 30.925013 230.90208Q30.581263 230.40208 30.409388 229.76146Q30.284388 229.29271 30.175013 228.35521Q29.940638 226.44896 29.628138 225.54271Q29.300013 225.52708 29.206263 225.52708Q28.253138 225.52708 27.846888 225.98021Q27.315638 226.58958 27.315638 227.77708Q27.315638 228.90208 27.706263 229.43333Q28.096888 229.96458 29.096888 230.21458L28.878138 231.76146Q27.878138 231.54271 27.268763 231.07396Q26.659388 230.58958 26.331263 229.68333Q26.003138 228.76146 26.003138 227.54271Q26.003138 226.35521 26.284388 225.60521Q26.565638 224.85521 27.003138 224.51146Q27.425013 224.15208 28.065638 224.01146Q28.471888 223.93333 29.534388 223.93333L31.643763 223.93333Q33.846886 223.93333 34.440636 223.83958Q35.01876 223.73021 35.55001 223.43333L35.55001 225.08958Q35.05001 225.33958 34.39376 225.40208ZM30.862513 225.54271Q31.221888 226.40208 31.456263 228.12083Q31.596888 229.08958 31.784388 229.49583Q31.956263 229.90208 32.30001 230.12083Q32.628136 230.33958 33.05001 230.33958Q33.67501 230.33958 34.096886 229.87083Q34.51876 229.38646 34.51876 228.46458Q34.51876 227.54271 34.128136 226.83958Q33.721886 226.12083 33.034386 225.79271Q32.48751 225.54271 31.440638 225.54271L30.862513 225.54271ZM36.33126 221.79271L36.55001 220.24583Q37.26876 220.15208 37.596886 219.71458Q38.034386 219.12083 38.034386 218.10521Q38.034386 217.01146 37.58126 216.41771Q37.14376 215.80833 36.36251 215.60521Q35.878136 215.48021 34.33126 215.48021Q35.55001 216.52708 35.55001 218.07396Q35.55001 219.99583 34.159386 221.05833Q32.76876 222.10521 30.831263 222.10521Q29.487513 222.10521 28.362513 221.62083Q27.237513 221.13646 26.628138 220.21458Q26.003138 219.29271 26.003138 218.05833Q26.003138 216.40208 27.346888 215.33958L26.221888 215.33958L26.221888 213.87083L34.284386 213.87083Q36.471886 213.87083 37.378136 214.32396Q38.284386 214.76146 38.80001 215.73021Q39.33126 216.68333 39.33126 218.08958Q39.33126 219.76146 38.58126 220.79271Q37.83126 221.82396 36.33126 221.79271ZM30.721888 220.48021Q32.55001 220.48021 33.39376 219.74583Q34.23751 219.01146 34.23751 217.91771Q34.23751 216.82396 33.409386 216.08958Q32.565636 215.35521 30.768763 215.35521Q29.050013 215.35521 28.190638 216.12083Q27.315638 216.87083 27.315638 217.94896Q27.315638 218.99583 28.175013 219.74583Q29.034388 220.48021 30.721888 220.48021ZM32.55001 205.10521L32.753136 203.46458Q34.17501 203.85521 34.971886 204.90208Q35.76876 205.94896 35.76876 207.57396Q35.76876 209.62083 34.503136 210.82396Q33.23751 212.02708 30.956263 212.02708Q28.612513 212.02708 27.315638 210.82396Q26.003138 209.60521 26.003138 207.66771Q26.003138 205.79271 27.284388 204.60521Q28.550013 203.41771 30.862513 203.41771Q31.003138 203.41771 31.284388 203.43333L31.284388 210.38646Q32.83126 210.30833 33.64376 209.52708Q34.45626 208.73021 34.45626 207.57396Q34.45626 206.69896 34.003136 206.08958Q33.55001 205.46458 32.55001 205.10521ZM29.987513 210.30833L29.987513 205.08958Q28.815638 205.19896 28.221888 205.68333Q27.300013 206.44896 27.300013 207.65208Q27.300013 208.73021 28.034388 209.48021Q28.768763 210.21458 29.987513 210.30833ZM35.55001 196.29271L22.659388 196.29271L22.659388 191.43333Q22.659388 190.15208 22.784388 189.48021Q22.940638 188.52708 23.393763 187.88646Q23.831263 187.24583 24.643763 186.85521Q25.440638 186.46458 26.393763 186.46458Q28.034388 186.46458 29.175013 187.51146Q30.315638 188.55833 30.315638 191.27708L30.315638 194.58958L35.55001 194.58958L35.55001 196.29271ZM28.784388 194.58958L28.784388 191.26146Q28.784388 189.60521 28.175013 188.91771Q27.565638 188.21458 26.440638 188.21458Q25.628138 188.21458 25.065638 188.62083Q24.487513 189.02708 24.300013 189.69896Q24.190638 190.13646 24.190638 191.29271L24.190638 194.58958L28.784388 194.58958ZM32.55001 178.10521L32.753136 176.46458Q34.17501 176.85521 34.971886 177.90208Q35.76876 178.94896 35.76876 180.57396Q35.76876 182.62083 34.503136 183.82396Q33.23751 185.02708 30.956263 185.02708Q28.612513 185.02708 27.315638 183.82396Q26.003138 182.60521 26.003138 180.66771Q26.003138 178.79271 27.284388 177.60521Q28.550013 176.41771 30.862513 176.41771Q31.003138 176.41771 31.284388 176.43333L31.284388 183.38646Q32.83126 183.30833 33.64376 182.52708Q34.45626 181.73021 34.45626 180.57396Q34.45626 179.69896 34.003136 179.08958Q33.55001 178.46458 32.55001 178.10521ZM29.987513 183.30833L29.987513 178.08958Q28.815638 178.19896 28.221888 178.68333Q27.300013 179.44896 27.300013 180.65208Q27.300013 181.73021 28.034388 182.48021Q28.768763 183.21458 29.987513 183.30833ZM35.55001 174.51146L26.221888 174.51146L26.221888 173.08958L27.628138 173.08958Q26.643763 172.54271 26.331263 172.08958Q26.003138 171.62083 26.003138 171.07396Q26.003138 170.26146 26.518763 169.44896L27.987513 169.98021Q27.643763 170.57396 27.643763 171.15208Q27.643763 171.66771 27.956263 172.08958Q28.268763 172.49583 28.815638 172.66771Q29.659388 172.93333 30.659388 172.93333L35.55001 172.93333L35.55001 174.51146ZM35.55001 168.12083L27.440638 168.12083L27.440638 169.51146L26.221888 169.51146L26.221888 168.12083L25.221888 168.12083Q24.284388 168.12083 23.831263 167.94896Q23.206263 167.73021 22.831263 167.15208Q22.440638 166.57396 22.440638 165.52708Q22.440638 164.87083 22.596888 164.05833L23.987513 164.29271Q23.893763 164.79271 23.893763 165.23021Q23.893763 165.94896 24.206263 166.24583Q24.503138 166.54271 25.346888 166.54271L26.221888 166.54271L26.221888 164.73021L27.440638 164.73021L27.440638 166.54271L35.55001 166.54271L35.55001 168.12083ZM30.878138 164.08958Q28.284388 164.08958 27.034388 162.63646Q26.003138 161.43333 26.003138 159.71458Q26.003138 157.77708 27.268763 156.55833Q28.534388 155.33958 30.753138 155.33958Q32.55001 155.33958 33.58126 155.88646Q34.61251 156.41771 35.190636 157.44896Q35.76876 158.48021 35.76876 159.71458Q35.76876 161.66771 34.51876 162.88646Q33.253136 164.08958 30.878138 164.08958ZM30.878138 162.46458Q32.67501 162.46458 33.565636 161.68333Q34.45626 160.90208 34.45626 159.71458Q34.45626 158.52708 33.565636 157.74583Q32.659386 156.96458 30.831263 156.96458Q29.096888 156.96458 28.206263 157.76146Q27.315638 158.54271 27.315638 159.71458Q27.315638 160.90208 28.206263 161.68333Q29.096888 162.46458 30.878138 162.46458ZM35.55001 153.51146L26.221888 153.51146L26.221888 152.08958L27.628138 152.08958Q26.643763 151.54271 26.331263 151.08958Q26.003138 150.62083 26.003138 150.07396Q26.003138 149.26146 26.518763 148.44896L27.987513 148.98021Q27.643763 149.57396 27.643763 150.15208Q27.643763 150.66771 27.956263 151.08958Q28.268763 151.49583 28.815638 151.66771Q29.659388 151.93333 30.659388 151.93333L35.55001 151.93333L35.55001 153.51146ZM35.55001 147.49583L26.221888 147.49583L26.221888 146.07396L27.518763 146.07396Q26.846888 145.63646 26.425013 144.91771Q26.003138 144.18333 26.003138 143.24583Q26.003138 142.21458 26.440638 141.55833Q26.862513 140.88646 27.643763 140.62083Q26.003138 139.51146 26.003138 137.73021Q26.003138 136.33958 26.784388 135.60521Q27.550013 134.85521 29.143763 134.85521L35.55001 134.85521L35.55001 136.41771L29.675013 136.41771Q28.721888 136.41771 28.300013 136.57396Q27.878138 136.73021 27.628138 137.13646Q27.378138 137.54271 27.378138 138.08958Q27.378138 139.07396 28.034388 139.73021Q28.690638 140.37083 30.128138 140.37083L35.55001 140.37083L35.55001 141.94896L29.487513 141.94896Q28.425013 141.94896 27.909388 142.33958Q27.378138 142.73021 27.378138 143.60521Q27.378138 144.27708 27.737513 144.83958Q28.081263 145.40208 28.753138 145.66771Q29.425013 145.91771 30.706263 145.91771L35.55001 145.91771L35.55001 147.49583ZM34.39376 127.402084Q35.14376 128.27708 35.45626 129.10521Q35.76876 129.91771 35.76876 130.83958Q35.76876 132.38646 35.01876 133.21458Q34.253136 134.02708 33.08126 134.02708Q32.409386 134.02708 31.846888 133.71458Q31.268763 133.40208 30.925013 132.90208Q30.581263 132.40208 30.409388 131.76146Q30.284388 131.29271 30.175013 130.35521Q29.940638 128.44896 29.628138 127.54271Q29.300013 127.527084 29.206263 127.527084Q28.253138 127.527084 27.846888 127.98021Q27.315638 128.58958 27.315638 129.77708Q27.315638 130.90208 27.706263 131.43333Q28.096888 131.96458 29.096888 132.21458L28.878138 133.76146Q27.878138 133.54271 27.268763 133.07396Q26.659388 132.58958 26.331263 131.68333Q26.003138 130.76146 26.003138 129.54271Q26.003138 128.35521 26.284388 127.60521Q26.565638 126.85521 27.003138 126.51146Q27.425013 126.152084 28.065638 126.01146Q28.471888 125.933334 29.534388 125.933334L31.643763 125.933334Q33.846886 125.933334 34.440636 125.839584Q35.01876 125.73021 35.55001 125.433334L35.55001 127.089584Q35.05001 127.339584 34.39376 127.402084ZM30.862513 127.54271Q31.221888 128.40208 31.456263 130.12083Q31.596888 131.08958 31.784388 131.49583Q31.956263 131.90208 32.30001 132.12083Q32.628136 132.33958 33.05001 132.33958Q33.67501 132.33958 34.096886 131.87083Q34.51876 131.38646 34.51876 130.46458Q34.51876 129.54271 34.128136 128.83958Q33.721886 128.12083 33.034386 127.79271Q32.48751 127.54271 31.440638 127.54271L30.862513 127.54271ZM35.55001 123.495834L26.221888 123.495834L26.221888 122.07396L27.550013 122.07396Q26.003138 121.04271 26.003138 119.10521Q26.003138 118.26146 26.315638 117.558334Q26.612513 116.839584 27.112513 116.495834Q27.596888 116.13646 28.268763 115.995834Q28.706263 115.91771 29.815638 115.91771L35.55001 115.91771L35.55001 117.495834L29.878138 117.495834Q28.909388 117.495834 28.425013 117.683334Q27.940638 117.85521 27.659388 118.339584Q27.378138 118.808334 27.378138 119.433334Q27.378138 120.44896 28.018763 121.183334Q28.659388 121.91771 30.456263 121.91771L35.55001 121.91771L35.55001 123.495834ZM32.128136 107.402084L32.33126 105.85521Q33.940636 106.10521 34.86251 107.152084Q35.76876 108.19896 35.76876 109.73021Q35.76876 111.652084 34.51876 112.82396Q33.253136 113.98021 30.925013 113.98021Q29.409388 113.98021 28.284388 113.48021Q27.143763 112.98021 26.581263 111.964584Q26.003138 110.933334 26.003138 109.73021Q26.003138 108.19896 26.784388 107.245834Q27.550013 106.277084 28.956263 105.995834L29.190638 107.54271Q28.253138 107.76146 27.784388 108.32396Q27.300013 108.870834 27.300013 109.66771Q27.300013 110.85521 28.159388 111.60521Q29.018763 112.35521 30.878138 112.35521Q32.753136 112.35521 33.61251 111.63646Q34.45626 110.91771 34.45626 109.745834Q34.45626 108.82396 33.89376 108.19896Q33.315636 107.57396 32.128136 107.402084ZM32.55001 98.10521L32.753136 96.464584Q34.17501 96.85521 34.971886 97.902084Q35.76876 98.94896 35.76876 100.57396Q35.76876 102.620834 34.503136 103.82396Q33.23751 105.027084 30.956263 105.027084Q28.612513 105.027084 27.315638 103.82396Q26.003138 102.60521 26.003138 100.66771Q26.003138 98.79271 27.284388 97.60521Q28.550013 96.41771 30.862513 96.41771Q31.003138 96.41771 31.284388 96.433334L31.284388 103.38646Q32.83126 103.308334 33.64376 102.527084Q34.45626 101.73021 34.45626 100.57396Q34.45626 99.69896 34.003136 99.089584Q33.55001 98.464584 32.55001 98.10521ZM29.987513 103.308334L29.987513 98.089584Q28.815638 98.19896 28.221888 98.683334Q27.300013 99.44896 27.300013 100.652084Q27.300013 101.73021 28.034388 102.48021Q28.768763 103.214584 29.987513 103.308334Z" fill-rule="nonzero"/><path fill="#000000" d="M71.72188 287.95L71.72188 285.2L66.75313 285.2L66.75313 283.91876L71.9875 276.4969L73.12813 276.4969L73.12813 283.91876L74.675 283.91876L74.675 285.2L73.12813 285.2L73.12813 287.95L71.72188 287.95ZM71.72188 283.91876L71.72188 278.7469L68.14375 283.91876L71.72188 283.91876ZM76.22188 282.29376Q76.22188 280.2625 76.62813 279.02814Q77.05 277.79376 77.87813 277.1219Q78.70625 276.45 79.95625 276.45Q80.87813 276.45 81.56563 276.825Q82.26875 277.1844 82.72188 277.8875Q83.175 278.59064 83.425 279.59064Q83.69063 280.59064 83.69063 282.29376Q83.69063 284.3094 83.26875 285.5594Q82.8625 286.79376 82.03438 287.48126Q81.20625 288.15314 79.95625 288.15314Q78.3 288.15314 77.34688 286.95Q76.22188 285.52814 76.22188 282.29376ZM77.65938 282.29376Q77.65938 285.1219 78.31563 286.0594Q78.9875 286.98126 79.95625 286.98126Q80.925 286.98126 81.58125 286.04376Q82.2375 285.10626 82.2375 282.29376Q82.2375 279.46564 81.58125 278.54376Q80.925 277.60626 79.94063 277.60626Q78.97188 277.60626 78.39375 278.4344Q77.65938 279.48126 77.65938 282.29376ZM86.00313 287.95L86.00313 286.34064L87.6125 286.34064L87.6125 287.95L86.00313 287.95ZM89.22188 282.29376Q89.22188 280.2625 89.62813 279.02814Q90.05 277.79376 90.87813 277.1219Q91.70625 276.45 92.95625 276.45Q93.87813 276.45 94.56563 276.825Q95.26875 277.1844 95.72188 277.8875Q96.175 278.59064 96.425 279.59064Q96.69063 280.59064 96.69063 282.29376Q96.69063 284.3094 96.26875 285.5594Q95.8625 286.79376 95.03438 287.48126Q94.20625 288.15314 92.95625 288.15314Q91.3 288.15314 90.34688 286.95Q89.22188 285.52814 89.22188 282.29376ZM90.65938 282.29376Q90.65938 285.1219 91.31563 286.0594Q91.9875 286.98126 92.95625 286.98126Q93.925 286.98126 94.58125 286.04376Q95.2375 285.10626 95.2375 282.29376Q95.2375 279.46564 94.58125 278.54376Q93.925 277.60626 92.94063 277.60626Q91.97188 277.60626 91.39375 278.4344Q90.65938 279.48126 90.65938 282.29376Z" fill-rule="nonzero"/><path fill="#000000" d="M71.72188 244.34334L71.72188 241.59334L66.75313 241.59334L66.75313 240.31209L71.9875 232.89021L73.12813 232.89021L73.12813 240.31209L74.675 240.31209L74.675 241.59334L73.12813 241.59334L73.12813 244.34334L71.72188 244.34334ZM71.72188 240.31209L71.72188 235.14021L68.14375 240.31209L71.72188 240.31209ZM83.6125 242.98396L83.6125 244.34334L76.03438 244.34334Q76.01875 243.82771 76.20625 243.35896Q76.4875 242.59334 77.12813 241.84334Q77.76875 241.09334 78.97188 240.10896Q80.83125 238.57771 81.4875 237.68709Q82.14375 236.78084 82.14375 235.98396Q82.14375 235.15584 81.55 234.57771Q80.95625 233.99959 79.9875 233.99959Q78.97188 233.99959 78.3625 234.60896Q77.75313 235.21834 77.75313 236.29646L76.3 236.15584Q76.45625 234.53084 77.425 233.68709Q78.39375 232.84334 80.01875 232.84334Q81.675 232.84334 82.62813 233.76521Q83.59688 234.67146 83.59688 236.01521Q83.59688 236.70271 83.31563 237.37459Q83.03438 238.03084 82.37813 238.76521Q81.72188 239.49959 80.20625 240.78084Q78.94063 241.84334 78.58125 242.23396Q78.22188 242.60896 77.9875 242.98396L83.6125 242.98396ZM86.00313 244.34334L86.00313 242.73396L87.6125 242.73396L87.6125 244.34334L86.00313 244.34334ZM89.22188 238.68709Q89.22188 236.65584 89.62813 235.42146Q90.05 234.18709 90.87813 233.51521Q91.70625 232.84334 92.95625 232.84334Q93.87813 232.84334 94.56563 233.21834Q95.26875 233.57771 95.72188 234.28084Q96.175 234.98396 96.425 235.98396Q96.69063 236.98396 96.69063 238.68709Q96.69063 240.70271 96.26875 241.95271Q95.8625 243.18709 95.03438 243.87459Q94.20625 244.54646 92.95625 244.54646Q91.3 244.54646 90.34688 243.34334Q89.22188 241.92146 89.22188 238.68709ZM90.65938 238.68709Q90.65938 241.51521 91.31563 242.45271Q91.9875 243.37459 92.95625 243.37459Q93.925 243.37459 94.58125 242.43709Q95.2375 241.49959 95.2375 238.68709Q95.2375 235.85896 94.58125 234.93709Q93.925 233.99959 92.94063 233.99959Q91.97188 233.99959 91.39375 234.82771Q90.65938 235.87459 90.65938 238.68709Z" fill-rule="nonzero"/><path fill="#000000" d="M71.72188 200.73666L71.72188 197.98666L66.75313 197.98666L66.75313 196.70541L71.9875 189.28354L73.12813 189.28354L73.12813 196.70541L74.675 196.70541L74.675 197.98666L73.12813 197.98666L73.12813 200.73666L71.72188 200.73666ZM71.72188 196.70541L71.72188 191.53354L68.14375 196.70541L71.72188 196.70541ZM80.72188 200.73666L80.72188 197.98666L75.75313 197.98666L75.75313 196.70541L80.9875 189.28354L82.12813 189.28354L82.12813 196.70541L83.675 196.70541L83.675 197.98666L82.12813 197.98666L82.12813 200.73666L80.72188 200.73666ZM80.72188 196.70541L80.72188 191.53354L77.14375 196.70541L80.72188 196.70541ZM86.00313 200.73666L86.00313 199.12729L87.6125 199.12729L87.6125 200.73666L86.00313 200.73666ZM89.22188 195.08041Q89.22188 193.04916 89.62813 191.81479Q90.05 190.58041 90.87813 189.90854Q91.70625 189.23666 92.95625 189.23666Q93.87813 189.23666 94.56563 189.61166Q95.26875 189.97104 95.72188 190.67416Q96.175 191.37729 96.425 192.37729Q96.69063 193.37729 96.69063 195.08041Q96.69063 197.09604 96.26875 198.34604Q95.8625 199.58041 95.03438 200.26791Q94.20625 200.93979 92.95625 200.93979Q91.3 200.93979 90.34688 199.73666Q89.22188 198.31479 89.22188 195.08041ZM90.65938 195.08041Q90.65938 197.90854 91.31563 198.84604Q91.9875 199.76791 92.95625 199.76791Q93.925 199.76791 94.58125 198.83041Q95.2375 197.89291 95.2375 195.08041Q95.2375 192.25229 94.58125 191.33041Q93.925 190.39291 92.94063 190.39291Q91.97188 190.39291 91.39375 191.22104Q90.65938 192.26791 90.65938 195.08041Z" fill-rule="nonzero"/><path fill="#000000" d="M71.72188 157.13L71.72188 154.38L66.75313 154.38L66.75313 153.09875L71.9875 145.67688L73.12813 145.67688L73.12813 153.09875L74.675 153.09875L74.675 154.38L73.12813 154.38L73.12813 157.13L71.72188 157.13ZM71.72188 153.09875L71.72188 147.92688L68.14375 153.09875L71.72188 153.09875ZM83.51875 148.47375L82.1125 148.58313Q81.925 147.755 81.58125 147.38Q81.01875 146.78625 80.175 146.78625Q79.50313 146.78625 79.00313 147.16125Q78.33125 147.64563 77.94063 148.58313Q77.56563 149.505 77.55 151.22375Q78.06563 150.4425 78.8 150.0675Q79.53438 149.6925 80.33125 149.6925Q81.7375 149.6925 82.72188 150.73938Q83.72188 151.77063 83.72188 153.41125Q83.72188 154.48938 83.25313 155.41125Q82.78438 156.33313 81.97188 156.83313Q81.15938 157.33313 80.12813 157.33313Q78.37813 157.33313 77.26875 156.03625Q76.15938 154.73938 76.15938 151.77063Q76.15938 148.4425 77.37813 146.9425Q78.45625 145.63 80.26875 145.63Q81.6125 145.63 82.47188 146.39563Q83.34688 147.14563 83.51875 148.47375ZM77.76875 153.41125Q77.76875 154.14563 78.08125 154.8175Q78.39375 155.47375 78.94063 155.8175Q79.50313 156.16125 80.1125 156.16125Q81.00313 156.16125 81.64375 155.4425Q82.28438 154.72375 82.28438 153.48938Q82.28438 152.30188 81.64375 151.63Q81.01875 150.9425 80.05 150.9425Q79.09688 150.9425 78.425 151.63Q77.76875 152.30188 77.76875 153.41125ZM86.00313 157.13L86.00313 155.52063L87.6125 155.52063L87.6125 157.13L86.00313 157.13ZM89.22188 151.47375Q89.22188 149.4425 89.62813 148.20813Q90.05 146.97375 90.87813 146.30188Q91.70625 145.63 92.95625 145.63Q93.87813 145.63 94.56563 146.005Q95.26875 146.36438 95.72188 147.0675Q96.175 147.77063 96.425 148.77063Q96.69063 149.77063 96.69063 151.47375Q96.69063 153.48938 96.26875 154.73938Q95.8625 155.97375 95.03438 156.66125Q94.20625 157.33313 92.95625 157.33313Q91.3 157.33313 90.34688 156.13Q89.22188 154.70813 89.22188 151.47375ZM90.65938 151.47375Q90.65938 154.30188 91.31563 155.23938Q91.9875 156.16125 92.95625 156.16125Q93.925 156.16125 94.58125 155.22375Q95.2375 154.28625 95.2375 151.47375Q95.2375 148.64563 94.58125 147.72375Q93.925 146.78625 92.94063 146.78625Q91.97188 146.78625 91.39375 147.61438Q90.65938 148.66125 90.65938 151.47375Z" fill-rule="nonzero"/><path fill="#000000" d="M71.72188 113.52333L71.72188 110.77333L66.75313 110.77333L66.75313 109.49208L71.9875 102.070206L73.12813 102.070206L73.12813 109.49208L74.675 109.49208L74.675 110.77333L73.12813 110.77333L73.12813 113.52333L71.72188 113.52333ZM71.72188 109.49208L71.72188 104.320206L68.14375 109.49208L71.72188 109.49208ZM78.37813 107.30458Q77.50313 106.99208 77.08125 106.39833Q76.65938 105.80458 76.65938 104.976456Q76.65938 103.726456 77.55 102.882706Q78.45625 102.02333 79.95625 102.02333Q81.45625 102.02333 82.3625 102.89833Q83.28438 103.757706 83.28438 105.007706Q83.28438 105.80458 82.8625 106.39833Q82.44063 106.99208 81.59688 107.30458Q82.64375 107.64833 83.19063 108.413956Q83.75313 109.17958 83.75313 110.24208Q83.75313 111.71083 82.70625 112.726456Q81.675 113.726456 79.97188 113.726456Q78.28438 113.726456 77.2375 112.726456Q76.20625 111.71083 76.20625 110.21083Q76.20625 109.08583 76.76875 108.33583Q77.33125 107.58583 78.37813 107.30458ZM78.09688 104.92958Q78.09688 105.74208 78.6125 106.257706Q79.14375 106.77333 79.9875 106.77333Q80.8 106.77333 81.31563 106.257706Q81.83125 105.74208 81.83125 105.007706Q81.83125 104.226456 81.3 103.71083Q80.76875 103.17958 79.97188 103.17958Q79.15938 103.17958 78.62813 103.695206Q78.09688 104.21083 78.09688 104.92958ZM77.64375 110.21083Q77.64375 110.820206 77.925 111.382706Q78.22188 111.945206 78.78438 112.257706Q79.34688 112.55458 79.9875 112.55458Q81.00313 112.55458 81.65938 111.913956Q82.31563 111.257706 82.31563 110.257706Q82.31563 109.24208 81.62813 108.58583Q80.95625 107.913956 79.94063 107.913956Q78.95625 107.913956 78.3 108.570206Q77.64375 109.226456 77.64375 110.21083ZM86.00313 113.52333L86.00313 111.913956L87.6125 111.913956L87.6125 113.52333L86.00313 113.52333ZM89.22188 107.86708Q89.22188 105.83583 89.62813 104.601456Q90.05 103.36708 90.87813 102.695206Q91.70625 102.02333 92.95625 102.02333Q93.87813 102.02333 94.56563 102.39833Q95.26875 102.757706 95.72188 103.46083Q96.175 104.163956 96.425 105.163956Q96.69063 106.163956 96.69063 107.86708Q96.69063 109.882706 96.26875 111.132706Q95.8625 112.36708 95.03438 113.05458Q94.20625 113.726456 92.95625 113.726456Q91.3 113.726456 90.34688 112.52333Q89.22188 111.101456 89.22188 107.86708ZM90.65938 107.86708Q90.65938 110.695206 91.31563 111.632706Q91.9875 112.55458 92.95625 112.55458Q93.925 112.55458 94.58125 111.61708Q95.2375 110.67958 95.2375 107.86708Q95.2375 105.038956 94.58125 104.11708Q93.925 103.17958 92.94063 103.17958Q91.97188 103.17958 91.39375 104.007706Q90.65938 105.05458 90.65938 107.86708Z" fill-rule="nonzero"/><path fill="#000000" d="M67.22188 66.916664L68.69063 66.791664Q68.8625 67.86979 69.45625 68.416664Q70.05 68.947914 70.89375 68.947914Q71.90938 68.947914 72.6125 68.18229Q73.31563 67.416664 73.31563 66.15104Q73.31563 64.947914 72.64375 64.260414Q71.97188 63.55729 70.87813 63.55729Q70.19063 63.55729 69.64375 63.86979Q69.09688 64.18229 68.78438 64.666664L67.47188 64.49479L68.58125 58.61979L74.26875 58.61979L74.26875 59.96354L69.70625 59.96354L69.08125 63.041664Q70.1125 62.322914 71.25313 62.322914Q72.75313 62.322914 73.78438 63.36979Q74.81563 64.40104 74.81563 66.02604Q74.81563 67.58854 73.90938 68.71354Q72.8 70.11979 70.89375 70.11979Q69.33125 70.11979 68.34688 69.24479Q67.3625 68.354164 67.22188 66.916664ZM76.22188 64.260414Q76.22188 62.229164 76.62813 60.99479Q77.05 59.760414 77.87813 59.08854Q78.70625 58.416664 79.95625 58.416664Q80.87813 58.416664 81.56563 58.791664Q82.26875 59.15104 82.72188 59.854164Q83.175 60.55729 83.425 61.55729Q83.69063 62.55729 83.69063 64.260414Q83.69063 66.27604 83.26875 67.52604Q82.8625 68.760414 82.03438 69.447914Q81.20625 70.11979 79.95625 70.11979Q78.3 70.11979 77.34688 68.916664Q76.22188 67.49479 76.22188 64.260414ZM77.65938 64.260414Q77.65938 67.08854 78.31563 68.02604Q78.9875 68.947914 79.95625 68.947914Q80.925 68.947914 81.58125 68.010414Q82.2375 67.072914 82.2375 64.260414Q82.2375 61.43229 81.58125 60.510414Q80.925 59.572914 79.94063 59.572914Q78.97188 59.572914 78.39375 60.40104Q77.65938 61.447914 77.65938 64.260414ZM86.00313 69.916664L86.00313 68.30729L87.6125 68.30729L87.6125 69.916664L86.00313 69.916664ZM89.22188 64.260414Q89.22188 62.229164 89.62813 60.99479Q90.05 59.760414 90.87813 59.08854Q91.70625 58.416664 92.95625 58.416664Q93.87813 58.416664 94.56563 58.791664Q95.26875 59.15104 95.72188 59.854164Q96.175 60.55729 96.425 61.55729Q96.69063 62.55729 96.69063 64.260414Q96.69063 66.27604 96.26875 67.52604Q95.8625 68.760414 95.03438 69.447914Q94.20625 70.11979 92.95625 70.11979Q91.3 70.11979 90.34688 68.916664Q89.22188 67.49479 89.22188 64.260414ZM90.65938 64.260414Q90.65938 67.08854 91.31563 68.02604Q91.9875 68.947914 92.95625 68.947914Q93.925 68.947914 94.58125 68.010414Q95.2375 67.072914 95.2375 64.260414Q95.2375 61.43229 94.58125 60.510414Q93.925 59.572914 92.94063 59.572914Q91.97188 59.572914 91.39375 60.40104Q90.65938 61.447914 90.65938 64.260414Z" fill-rule="nonzero"/><path fill="#000000" d="M137.35909 305.45L137.35909 293.9969L142.43721 293.9969Q143.96846 293.9969 144.76534 294.3094Q145.56221 294.60626 146.03096 295.3875Q146.51534 296.16876 146.51534 297.1219Q146.51534 298.34064 145.71846 299.1844Q144.93721 300.0125 143.28096 300.23126Q143.89034 300.52814 144.20284 300.8094Q144.85909 301.41876 145.45284 302.325L147.45284 305.45L145.54659 305.45L144.03096 303.0594Q143.35909 302.02814 142.92159 301.48126Q142.49971 300.9344 142.15596 300.71564Q141.82784 300.4969 141.46846 300.41876Q141.21846 300.35626 140.62471 300.35626L138.87471 300.35626L138.87471 305.45L137.35909 305.45ZM138.87471 299.04376L142.12471 299.04376Q143.17159 299.04376 143.74971 298.84064Q144.34346 298.6219 144.64034 298.15314Q144.95284 297.66876 144.95284 297.1219Q144.95284 296.3094 144.35909 295.79376Q143.76534 295.2625 142.49971 295.2625L138.87471 295.2625L138.87471 299.04376ZM153.56221 304.41876Q152.78096 305.09064 152.06221 305.3719Q151.34346 305.6375 150.51534 305.6375Q149.14034 305.6375 148.40596 304.96564Q147.67159 304.29376 147.67159 303.2625Q147.67159 302.65314 147.95284 302.15314Q148.23409 301.6375 148.67159 301.34064Q149.12471 301.02814 149.68721 300.8719Q150.10909 300.7625 150.93721 300.66876Q152.64034 300.46564 153.45284 300.1844Q153.45284 299.8875 153.45284 299.8094Q153.45284 298.95 153.06221 298.60626Q152.51534 298.1219 151.45284 298.1219Q150.46846 298.1219 149.98409 298.48126Q149.51534 298.825 149.29659 299.7L147.92159 299.5125Q148.10909 298.6375 148.53096 298.09064Q148.96846 297.54376 149.78096 297.2625Q150.59346 296.96564 151.65596 296.96564Q152.71846 296.96564 153.37471 297.21564Q154.04659 297.46564 154.35909 297.84064Q154.67159 298.21564 154.79659 298.79376Q154.87471 299.15314 154.87471 300.09064L154.87471 301.96564Q154.87471 303.9344 154.95284 304.45Q155.04659 304.96564 155.31221 305.45L153.84346 305.45Q153.62471 305.0125 153.56221 304.41876ZM153.45284 301.27814Q152.68721 301.59064 151.15596 301.8094Q150.28096 301.9344 149.92159 302.09064Q149.56221 302.2469 149.35909 302.5594Q149.17159 302.85626 149.17159 303.21564Q149.17159 303.77814 149.59346 304.15314Q150.03096 304.52814 150.84346 304.52814Q151.65596 304.52814 152.28096 304.1844Q152.92159 303.825 153.21846 303.2Q153.45284 302.73126 153.45284 301.79376L153.45284 301.27814ZM157.15596 305.45L157.15596 297.15314L158.42159 297.15314L158.42159 298.325Q159.32784 296.96564 161.06221 296.96564Q161.81221 296.96564 162.43721 297.23126Q163.06221 297.4969 163.37471 297.9344Q163.68721 298.3719 163.81221 298.98126Q163.89034 299.3719 163.89034 300.34064L163.89034 305.45L162.48409 305.45L162.48409 300.40314Q162.48409 299.54376 162.31221 299.1219Q162.15596 298.6844 161.73409 298.4344Q161.32784 298.1844 160.76534 298.1844Q159.85909 298.1844 159.20284 298.7625Q158.56221 299.325 158.56221 300.91876L158.56221 305.45L157.15596 305.45ZM170.53096 305.45L170.53096 304.40314Q169.74971 305.6375 168.21846 305.6375Q167.21846 305.6375 166.39034 305.09064Q165.56221 304.54376 165.09346 303.5594Q164.64034 302.575 164.64034 301.3094Q164.64034 300.0594 165.04659 299.0594Q165.46846 298.04376 166.29659 297.5125Q167.12471 296.96564 168.15596 296.96564Q168.90596 296.96564 169.48409 297.27814Q170.07784 297.59064 170.43721 298.10626L170.43721 293.9969L171.84346 293.9969L171.84346 305.45L170.53096 305.45ZM166.09346 301.3094Q166.09346 302.90314 166.76534 303.7Q167.43721 304.48126 168.34346 304.48126Q169.26534 304.48126 169.90596 303.73126Q170.56221 302.96564 170.56221 301.41876Q170.56221 299.71564 169.90596 298.91876Q169.24971 298.1219 168.28096 298.1219Q167.34346 298.1219 166.71846 298.8875Q166.09346 299.65314 166.09346 301.3094ZM173.62471 301.29376Q173.62471 298.9969 174.90596 297.8875Q175.98409 296.96564 177.51534 296.96564Q179.23409 296.96564 180.31221 298.09064Q181.40596 299.2 181.40596 301.1844Q181.40596 302.77814 180.92159 303.7Q180.43721 304.6219 179.51534 305.1375Q178.60909 305.6375 177.51534 305.6375Q175.78096 305.6375 174.70284 304.52814Q173.62471 303.40314 173.62471 301.29376ZM175.07784 301.29376Q175.07784 302.8875 175.76534 303.6844Q176.46846 304.48126 177.51534 304.48126Q178.56221 304.48126 179.24971 303.6844Q179.95284 302.8875 179.95284 301.2469Q179.95284 299.71564 179.24971 298.91876Q178.56221 298.1219 177.51534 298.1219Q176.46846 298.1219 175.76534 298.91876Q175.07784 299.7 175.07784 301.29376ZM183.15596 305.45L183.15596 297.15314L184.40596 297.15314L184.40596 298.3094Q184.79659 297.7 185.43721 297.34064Q186.09346 296.96564 186.92159 296.96564Q187.84346 296.96564 188.43721 297.35626Q189.03096 297.73126 189.26534 298.41876Q190.24971 296.96564 191.82784 296.96564Q193.06221 296.96564 193.71846 297.65314Q194.39034 298.325 194.39034 299.7469L194.39034 305.45L192.99971 305.45L192.99971 300.21564Q192.99971 299.3719 192.85909 299.0125Q192.71846 298.6375 192.35909 298.41876Q191.99971 298.1844 191.51534 298.1844Q190.64034 298.1844 190.06221 298.7625Q189.48409 299.34064 189.48409 300.6219L189.48409 305.45L188.07784 305.45L188.07784 300.0594Q188.07784 299.1219 187.73409 298.65314Q187.39034 298.1844 186.60909 298.1844Q186.01534 298.1844 185.51534 298.4969Q185.01534 298.8094 184.78096 299.41876Q184.56221 300.0125 184.56221 301.1375L184.56221 305.45L183.15596 305.45Z" fill-rule="nonzero"/><path fill="#000000" d="M234.7186 305.45L234.7186 293.9969L239.01547 293.9969Q240.32797 293.9969 241.12485 294.34064Q241.92172 294.6844 242.35922 295.41876Q242.81235 296.1375 242.81235 296.91876Q242.81235 297.65314 242.4061 298.3094Q242.01547 298.95 241.2186 299.35626Q242.24985 299.65314 242.81235 300.3875Q243.37485 301.1219 243.37485 302.1219Q243.37485 302.9344 243.0311 303.6219Q242.68735 304.3094 242.18735 304.6844Q241.68735 305.0594 240.93735 305.2625Q240.18735 305.45 239.0936 305.45L234.7186 305.45ZM236.23422 298.8094L238.7186 298.8094Q239.7186 298.8094 240.1561 298.66876Q240.73422 298.4969 241.0311 298.10626Q241.32797 297.7 241.32797 297.10626Q241.32797 296.52814 241.04672 296.10626Q240.7811 295.66876 240.26547 295.5125Q239.76547 295.34064 238.5311 295.34064L236.23422 295.34064L236.23422 298.8094ZM236.23422 304.09064L239.0936 304.09064Q239.82797 304.09064 240.12485 304.04376Q240.64047 303.95 240.98422 303.73126Q241.3436 303.5125 241.56235 303.09064Q241.79672 302.66876 241.79672 302.1219Q241.79672 301.48126 241.4686 301.0125Q241.14047 300.54376 240.56235 300.35626Q239.98422 300.15314 238.89047 300.15314L236.23422 300.15314L236.23422 304.09064ZM245.73422 305.45L245.73422 293.9969L248.01547 293.9969L250.73422 302.10626Q251.10922 303.23126 251.2811 303.79376Q251.4686 303.16876 251.89047 301.96564L254.62485 293.9969L256.67172 293.9969L256.67172 305.45L255.20297 305.45L255.20297 295.85626L251.87485 305.45L250.51547 305.45L247.20297 295.7L247.20297 305.45L245.73422 305.45ZM265.60922 304.09064L265.60922 305.45L258.0311 305.45Q258.01547 304.9344 258.20297 304.46564Q258.48422 303.7 259.12485 302.95Q259.76547 302.2 260.9686 301.21564Q262.82797 299.6844 263.48422 298.79376Q264.14047 297.8875 264.14047 297.09064Q264.14047 296.2625 263.54672 295.6844Q262.95297 295.10626 261.98422 295.10626Q260.9686 295.10626 260.35922 295.71564Q259.74985 296.325 259.74985 297.40314L258.29672 297.2625Q258.45297 295.6375 259.42172 294.79376Q260.39047 293.95 262.01547 293.95Q263.67172 293.95 264.62485 294.8719Q265.5936 295.77814 265.5936 297.1219Q265.5936 297.8094 265.31235 298.48126Q265.0311 299.1375 264.37485 299.8719Q263.7186 300.60626 262.20297 301.8875Q260.93735 302.95 260.57797 303.34064Q260.2186 303.71564 259.98422 304.09064L265.60922 304.09064ZM267.2186 302.45L268.68735 302.325Q268.85922 303.40314 269.45297 303.95Q270.04672 304.48126 270.89047 304.48126Q271.9061 304.48126 272.60922 303.71564Q273.31235 302.95 273.31235 301.6844Q273.31235 300.48126 272.64047 299.79376Q271.9686 299.09064 270.87485 299.09064Q270.18735 299.09064 269.64047 299.40314Q269.0936 299.71564 268.7811 300.2L267.4686 300.02814L268.57797 294.15314L274.26547 294.15314L274.26547 295.4969L269.70297 295.4969L269.07797 298.575Q270.10922 297.85626 271.24985 297.85626Q272.74985 297.85626 273.7811 298.90314Q274.81235 299.9344 274.81235 301.5594Q274.81235 303.1219 273.9061 304.2469Q272.79672 305.65314 270.89047 305.65314Q269.32797 305.65314 268.3436 304.77814Q267.35922 303.8875 267.2186 302.45Z" fill-rule="nonzero"/><path fill="#000000" d="M326.23438 305.45L326.23438 293.9969L330.1875 293.9969Q331.51562 293.9969 332.21875 294.15314Q333.20312 294.3875 333.90625 294.98126Q334.8125 295.7469 335.25 296.9344Q335.70312 298.1219 335.70312 299.65314Q335.70312 300.96564 335.39062 301.98126Q335.09375 302.98126 334.60938 303.6375Q334.14062 304.29376 333.57812 304.6844Q333.01562 305.0594 332.20312 305.2625Q331.40625 305.45 330.375 305.45L326.23438 305.45ZM327.75 304.09064L330.20312 304.09064Q331.32812 304.09064 331.96875 303.8875Q332.625 303.66876 333.0 303.29376Q333.54688 302.7469 333.84375 301.84064Q334.14062 300.9344 334.14062 299.6375Q334.14062 297.84064 333.54688 296.8719Q332.96875 295.90314 332.125 295.575Q331.51562 295.34064 330.15625 295.34064L327.75 295.34064L327.75 304.09064ZM337.71875 301.7625L339.15625 301.6375Q339.25 302.4969 339.625 303.0594Q340.0 303.60626 340.78125 303.95Q341.5625 304.27814 342.53125 304.27814Q343.40625 304.27814 344.0625 304.02814Q344.73438 303.7625 345.04688 303.325Q345.375 302.8719 345.375 302.34064Q345.375 301.79376 345.0625 301.40314Q344.75 300.9969 344.03125 300.71564Q343.57812 300.54376 342.0 300.16876Q340.42188 299.77814 339.78125 299.45Q338.96875 299.0125 338.5625 298.3875Q338.15625 297.7469 338.15625 296.95Q338.15625 296.09064 338.64062 295.34064Q339.14062 294.575 340.07812 294.1844Q341.03125 293.79376 342.1875 293.79376Q343.46875 293.79376 344.4375 294.21564Q345.40625 294.6219 345.92188 295.41876Q346.45312 296.21564 346.5 297.21564L345.04688 297.325Q344.92188 296.2469 344.25 295.7Q343.57812 295.1375 342.25 295.1375Q340.875 295.1375 340.25 295.6375Q339.625 296.1375 339.625 296.85626Q339.625 297.46564 340.0625 297.8719Q340.5 298.2625 342.34375 298.6844Q344.20312 299.10626 344.89062 299.41876Q345.89062 299.8719 346.35938 300.59064Q346.84375 301.29376 346.84375 302.21564Q346.84375 303.1219 346.3125 303.9344Q345.79688 304.7469 344.8125 305.2Q343.82812 305.65314 342.60938 305.65314Q341.04688 305.65314 340.0 305.2Q338.95312 304.73126 338.34375 303.825Q337.75 302.91876 337.71875 301.7625ZM349.5 305.45L349.5 293.9969L351.01562 293.9969L351.01562 305.45L349.5 305.45ZM352.26562 305.45L352.26562 293.9969L357.34375 293.9969Q358.875 293.9969 359.67188 294.3094Q360.46875 294.60626 360.9375 295.3875Q361.42188 296.16876 361.42188 297.1219Q361.42188 298.34064 360.625 299.1844Q359.84375 300.0125 358.1875 300.23126Q358.79688 300.52814 359.10938 300.8094Q359.76562 301.41876 360.35938 302.325L362.35938 305.45L360.45312 305.45L358.9375 303.0594Q358.26562 302.02814 357.82812 301.48126Q357.40625 300.9344 357.0625 300.71564Q356.73438 300.4969 356.375 300.41876Q356.125 300.35626 355.53125 300.35626L353.78125 300.35626L353.78125 305.45L352.26562 305.45ZM353.78125 299.04376L357.03125 299.04376Q358.07812 299.04376 358.65625 298.84064Q359.25 298.6219 359.54688 298.15314Q359.85938 297.66876 359.85938 297.1219Q359.85938 296.3094 359.26562 295.79376Q358.67188 295.2625 357.40625 295.2625L353.78125 295.2625L353.78125 299.04376Z" fill-rule="nonzero"/><path fill="#000000" d="M416.7189 305.45L416.7189 293.9969L421.79703 293.9969Q423.32828 293.9969 424.12515 294.3094Q424.92203 294.60626 425.39078 295.3875Q425.87515 296.16876 425.87515 297.1219Q425.87515 298.34064 425.07828 299.1844Q424.29703 300.0125 422.64078 300.23126Q423.25015 300.52814 423.56265 300.8094Q424.2189 301.41876 424.81265 302.325L426.81265 305.45L424.9064 305.45L423.39078 303.0594Q422.7189 302.02814 422.2814 301.48126Q421.85953 300.9344 421.51578 300.71564Q421.18765 300.4969 420.82828 300.41876Q420.57828 300.35626 419.98453 300.35626L418.23453 300.35626L418.23453 305.45L416.7189 305.45ZM418.23453 299.04376L421.48453 299.04376Q422.5314 299.04376 423.10953 298.84064Q423.70328 298.6219 424.00015 298.15314Q424.31265 297.66876 424.31265 297.1219Q424.31265 296.3094 423.7189 295.79376Q423.12515 295.2625 421.85953 295.2625L418.23453 295.2625L418.23453 299.04376ZM427.68765 305.45L427.68765 293.9969L431.64078 293.9969Q432.9689 293.9969 433.67203 294.15314Q434.6564 294.3875 435.35953 294.98126Q436.26578 295.7469 436.70328 296.9344Q437.1564 298.1219 437.1564 299.65314Q437.1564 300.96564 436.8439 301.98126Q436.54703 302.98126 436.06265 303.6375Q435.5939 304.29376 435.0314 304.6844Q434.4689 305.0594 433.6564 305.2625Q432.85953 305.45 431.82828 305.45L427.68765 305.45ZM429.20328 304.09064L431.6564 304.09064Q432.7814 304.09064 433.42203 303.8875Q434.07828 303.66876 434.45328 303.29376Q435.00015 302.7469 435.29703 301.84064Q435.5939 300.9344 435.5939 299.6375Q435.5939 297.84064 435.00015 296.8719Q434.42203 295.90314 433.57828 295.575Q432.9689 295.34064 431.60953 295.34064L429.20328 295.34064L429.20328 304.09064ZM439.17203 301.7625L440.60953 301.6375Q440.70328 302.4969 441.07828 303.0594Q441.45328 303.60626 442.23453 303.95Q443.01578 304.27814 443.98453 304.27814Q444.85953 304.27814 445.51578 304.02814Q446.18765 303.7625 446.50015 303.325Q446.82828 302.8719 446.82828 302.34064Q446.82828 301.79376 446.51578 301.40314Q446.20328 300.9969 445.48453 300.71564Q445.0314 300.54376 443.45328 300.16876Q441.87515 299.77814 441.23453 299.45Q440.42203 299.0125 440.01578 298.3875Q439.60953 297.7469 439.60953 296.95Q439.60953 296.09064 440.0939 295.34064Q440.5939 294.575 441.5314 294.1844Q442.48453 293.79376 443.64078 293.79376Q444.92203 293.79376 445.89078 294.21564Q446.85953 294.6219 447.37515 295.41876Q447.9064 296.21564 447.95328 297.21564L446.50015 297.325Q446.37515 296.2469 445.70328 295.7Q445.0314 295.1375 443.70328 295.1375Q442.32828 295.1375 441.70328 295.6375Q441.07828 296.1375 441.07828 296.85626Q441.07828 297.46564 441.51578 297.8719Q441.95328 298.2625 443.79703 298.6844Q445.6564 299.10626 446.3439 299.41876Q447.3439 299.8719 447.81265 300.59064Q448.29703 301.29376 448.29703 302.21564Q448.29703 303.1219 447.76578 303.9344Q447.25015 304.7469 446.26578 305.2Q445.2814 305.65314 444.06265 305.65314Q442.50015 305.65314 441.45328 305.2Q440.4064 304.73126 439.79703 303.825Q439.20328 302.91876 439.17203 301.7625Z" fill-rule="nonzero"/><path fill="#000000" d="M501.57843 305.45L501.57843 293.9969L503.09406 293.9969L503.09406 304.09064L508.73468 304.09064L508.73468 305.45L501.57843 305.45ZM510.67218 305.45L510.67218 293.9969L518.9534 293.9969L518.9534 295.34064L512.1878 295.34064L512.1878 298.85626L518.53156 298.85626L518.53156 300.2L512.1878 300.2L512.1878 304.09064L519.21906 304.09064L519.21906 305.45L510.67218 305.45ZM521.1253 301.7625L522.5628 301.6375Q522.65656 302.4969 523.03156 303.0594Q523.40656 303.60626 524.1878 303.95Q524.96906 304.27814 525.9378 304.27814Q526.8128 304.27814 527.46906 304.02814Q528.1409 303.7625 528.4534 303.325Q528.78156 302.8719 528.78156 302.34064Q528.78156 301.79376 528.46906 301.40314Q528.15656 300.9969 527.4378 300.71564Q526.9847 300.54376 525.40656 300.16876Q523.8284 299.77814 523.1878 299.45Q522.3753 299.0125 521.96906 298.3875Q521.5628 297.7469 521.5628 296.95Q521.5628 296.09064 522.0472 295.34064Q522.5472 294.575 523.4847 294.1844Q524.4378 293.79376 525.59406 293.79376Q526.8753 293.79376 527.84406 294.21564Q528.8128 294.6219 529.3284 295.41876Q529.8597 296.21564 529.90656 297.21564L528.4534 297.325Q528.3284 296.2469 527.65656 295.7Q526.9847 295.1375 525.65656 295.1375Q524.28156 295.1375 523.65656 295.6375Q523.03156 296.1375 523.03156 296.85626Q523.03156 297.46564 523.46906 297.8719Q523.90656 298.2625 525.7503 298.6844Q527.6097 299.10626 528.2972 299.41876Q529.2972 299.8719 529.7659 300.59064Q530.2503 301.29376 530.2503 302.21564Q530.2503 303.1219 529.71906 303.9344Q529.2034 304.7469 528.21906 305.2Q527.2347 305.65314 526.0159 305.65314Q524.4534 305.65314 523.40656 305.2Q522.3597 304.73126 521.7503 303.825Q521.15656 302.91876 521.1253 301.7625ZM532.1253 301.7625L533.5628 301.6375Q533.65656 302.4969 534.03156 303.0594Q534.40656 303.60626 535.1878 303.95Q535.96906 304.27814 536.9378 304.27814Q537.8128 304.27814 538.46906 304.02814Q539.1409 303.7625 539.4534 303.325Q539.78156 302.8719 539.78156 302.34064Q539.78156 301.79376 539.46906 301.40314Q539.15656 300.9969 538.4378 300.71564Q537.9847 300.54376 536.40656 300.16876Q534.8284 299.77814 534.1878 299.45Q533.3753 299.0125 532.96906 298.3875Q532.5628 297.7469 532.5628 296.95Q532.5628 296.09064 533.0472 295.34064Q533.5472 294.575 534.4847 294.1844Q535.4378 293.79376 536.59406 293.79376Q537.8753 293.79376 538.84406 294.21564Q539.8128 294.6219 540.3284 295.41876Q540.8597 296.21564 540.90656 297.21564L539.4534 297.325Q539.3284 296.2469 538.65656 295.7Q537.9847 295.1375 536.65656 295.1375Q535.28156 295.1375 534.65656 295.6375Q534.03156 296.1375 534.03156 296.85626Q534.03156 297.46564 534.46906 297.8719Q534.90656 298.2625 536.7503 298.6844Q538.6097 299.10626 539.2972 299.41876Q540.2972 299.8719 540.7659 300.59064Q541.2503 301.29376 541.2503 302.21564Q541.2503 303.1219 540.71906 303.9344Q540.2034 304.7469 539.21906 305.2Q538.2347 305.65314 537.0159 305.65314Q535.4534 305.65314 534.40656 305.2Q533.3597 304.73126 532.7503 303.825Q532.15656 302.91876 532.1253 301.7625Z" fill-rule="nonzero"/><path fill="#757575" d="M23.7375 37.55L23.7375 24.925L19.01875 24.925L19.01875 23.2375L30.3625 23.2375L30.3625 24.925L25.628124 24.925L25.628124 37.55L23.7375 37.55ZM31.846874 37.55L31.846874 27.175L33.425 27.175L33.425 28.753124Q34.034374 27.64375 34.55 27.3Q35.065624 26.940624 35.675 26.940624Q36.565624 26.940624 37.4875 27.503124L36.878124 29.14375Q36.2375 28.753124 35.596874 28.753124Q35.01875 28.753124 34.55 29.1125Q34.096874 29.45625 33.89375 30.065624Q33.6125 31.003124 33.6125 32.1125L33.6125 37.55L31.846874 37.55ZM45.64375 36.26875Q44.659374 37.096874 43.753124 37.440624Q42.846874 37.784374 41.815624 37.784374Q40.1125 37.784374 39.190624 36.95625Q38.26875 36.1125 38.26875 34.815624Q38.26875 34.05 38.6125 33.425Q38.971874 32.8 39.534374 32.425Q40.096874 32.034374 40.8 31.83125Q41.315624 31.70625 42.3625 31.565624Q44.4875 31.315624 45.4875 30.971874Q45.503124 30.6125 45.503124 30.503124Q45.503124 29.440624 45.003124 28.9875Q44.33125 28.39375 43.003124 28.39375Q41.753124 28.39375 41.159374 28.83125Q40.58125 29.26875 40.3 30.378124L38.58125 30.14375Q38.815624 29.034374 39.346874 28.3625Q39.878124 27.675 40.89375 27.315624Q41.909374 26.940624 43.253124 26.940624Q44.58125 26.940624 45.409374 27.253124Q46.2375 27.565624 46.628124 28.05Q47.01875 28.51875 47.175 29.2375Q47.26875 29.690624 47.26875 30.8625L47.26875 33.20625Q47.26875 35.659374 47.378124 36.315624Q47.4875 36.95625 47.83125 37.55L45.9875 37.55Q45.721874 37.003124 45.64375 36.26875ZM45.4875 32.346874Q44.534374 32.7375 42.6125 33.003124Q41.534374 33.159374 41.08125 33.3625Q40.64375 33.55 40.39375 33.925Q40.14375 34.3 40.14375 34.76875Q40.14375 35.471874 40.675 35.940624Q41.20625 36.409374 42.2375 36.409374Q43.253124 36.409374 44.034374 35.971874Q44.83125 35.51875 45.20625 34.753124Q45.4875 34.14375 45.4875 32.9875L45.4875 32.346874ZM49.878124 25.253124L49.878124 23.2375L51.64375 23.2375L51.64375 25.253124L49.878124 25.253124ZM49.878124 37.55L49.878124 27.175L51.64375 27.175L51.64375 37.55L49.878124 37.55ZM53.8625 37.55L53.8625 27.175L55.45625 27.175L55.45625 28.659374Q56.596874 26.940624 58.753124 26.940624Q59.690624 26.940624 60.471874 27.284374Q61.26875 27.6125 61.659374 28.159374Q62.05 28.70625 62.20625 29.45625Q62.3 29.95625 62.3 31.175L62.3 37.55L60.534374 37.55L60.534374 31.2375Q60.534374 30.159374 60.33125 29.628124Q60.128124 29.096874 59.596874 28.784374Q59.08125 28.471874 58.378124 28.471874Q57.253124 28.471874 56.440624 29.190624Q55.628124 29.89375 55.628124 31.878124L55.628124 37.55L53.8625 37.55ZM63.878124 25.253124L63.878124 23.2375L65.64375 23.2375L65.64375 25.253124L63.878124 25.253124ZM63.878124 37.55L63.878124 27.175L65.64375 27.175L65.64375 37.55L63.878124 37.55ZM67.8625 37.55L67.8625 27.175L69.45625 27.175L69.45625 28.659374Q70.59688 26.940624 72.75313 26.940624Q73.69063 26.940624 74.47188 27.284374Q75.26875 27.6125 75.65938 28.159374Q76.05 28.70625 76.20625 29.45625Q76.3 29.95625 76.3 31.175L76.3 37.55L74.53438 37.55L74.53438 31.2375Q74.53438 30.159374 74.33125 29.628124Q74.12813 29.096874 73.59688 28.784374Q73.08125 28.471874 72.37813 28.471874Q71.25313 28.471874 70.44063 29.190624Q69.62813 29.89375 69.62813 31.878124L69.62813 37.55L67.8625 37.55ZM77.55 38.409374L79.25313 38.659374Q79.3625 39.45625 79.84688 39.815624Q80.50313 40.3 81.64375 40.3Q82.8625 40.3 83.51875 39.815624Q84.19063 39.33125 84.425 38.45625Q84.56563 37.909374 84.55 36.190624Q83.39375 37.55 81.675 37.55Q79.53438 37.55 78.3625 36.003124Q77.19063 34.45625 77.19063 32.3Q77.19063 30.815624 77.72188 29.565624Q78.26875 28.315624 79.28438 27.628124Q80.31563 26.940624 81.69063 26.940624Q83.51875 26.940624 84.72188 28.425L84.72188 27.175L86.33125 27.175L86.33125 36.14375Q86.33125 38.565624 85.83125 39.565624Q85.34688 40.58125 84.26875 41.159374Q83.20625 41.753124 81.64375 41.753124Q79.8 41.753124 78.64375 40.925Q77.50313 40.096874 77.55 38.409374ZM79.00313 32.175Q79.00313 34.221874 79.81563 35.159374Q80.62813 36.096874 81.84688 36.096874Q83.05 36.096874 83.8625 35.159374Q84.69063 34.221874 84.69063 32.2375Q84.69063 30.33125 83.84688 29.3625Q83.00313 28.39375 81.81563 28.39375Q80.64375 28.39375 79.81563 29.346874Q79.00313 30.3 79.00313 32.175ZM95.01875 37.55L95.01875 23.2375L96.90938 23.2375L96.90938 35.8625L103.95625 35.8625L103.95625 37.55L95.01875 37.55ZM105.83125 37.55L105.83125 23.2375L107.58125 23.2375L107.58125 37.55L105.83125 37.55ZM116.64375 36.26875Q115.65938 37.096874 114.75313 37.440624Q113.84688 37.784374 112.81563 37.784374Q111.1125 37.784374 110.19063 36.95625Q109.26875 36.1125 109.26875 34.815624Q109.26875 34.05 109.6125 33.425Q109.97188 32.8 110.53438 32.425Q111.09688 32.034374 111.8 31.83125Q112.31563 31.70625 113.3625 31.565624Q115.4875 31.315624 116.4875 30.971874Q116.50313 30.6125 116.50313 30.503124Q116.50313 29.440624 116.00313 28.9875Q115.33125 28.39375 114.00313 28.39375Q112.75313 28.39375 112.15938 28.83125Q111.58125 29.26875 111.3 30.378124L109.58125 30.14375Q109.81563 29.034374 110.34688 28.3625Q110.87813 27.675 111.89375 27.315624Q112.90938 26.940624 114.25313 26.940624Q115.58125 26.940624 116.40938 27.253124Q117.2375 27.565624 117.62813 28.05Q118.01875 28.51875 118.175 29.2375Q118.26875 29.690624 118.26875 30.8625L118.26875 33.20625Q118.26875 35.659374 118.37813 36.315624Q118.4875 36.95625 118.83125 37.55L116.9875 37.55Q116.72188 37.003124 116.64375 36.26875ZM116.4875 32.346874Q115.53438 32.7375 113.6125 33.003124Q112.53438 33.159374 112.08125 33.3625Q111.64375 33.55 111.39375 33.925Q111.14375 34.3 111.14375 34.76875Q111.14375 35.471874 111.675 35.940624Q112.20625 36.409374 113.2375 36.409374Q114.25313 36.409374 115.03438 35.971874Q115.83125 35.51875 116.20625 34.753124Q116.4875 34.14375 116.4875 32.9875L116.4875 32.346874ZM120.8625 37.55L120.8625 27.175L122.44063 27.175L122.44063 28.628124Q122.925 27.878124 123.7375 27.409374Q124.55 26.940624 125.58125 26.940624Q126.7375 26.940624 127.47188 27.425Q128.20625 27.89375 128.51875 28.753124Q129.75313 26.940624 131.72188 26.940624Q133.26875 26.940624 134.09688 27.8Q134.925 28.659374 134.925 30.425L134.925 37.55L133.175 37.55L133.175 31.01875Q133.175 29.95625 133.00313 29.503124Q132.83125 29.034374 132.37813 28.753124Q131.94063 28.471874 131.33125 28.471874Q130.2375 28.471874 129.50313 29.20625Q128.78438 29.925 128.78438 31.51875L128.78438 37.55L127.03438 37.55L127.03438 30.815624Q127.03438 29.64375 126.59688 29.065624Q126.175 28.471874 125.19063 28.471874Q124.45625 28.471874 123.81563 28.8625Q123.19063 29.253124 122.90938 30.003124Q122.62813 30.753124 122.62813 32.175L122.62813 37.55L120.8625 37.55ZM143.64375 36.26875Q142.65938 37.096874 141.75313 37.440624Q140.84688 37.784374 139.81563 37.784374Q138.1125 37.784374 137.19063 36.95625Q136.26875 36.1125 136.26875 34.815624Q136.26875 34.05 136.6125 33.425Q136.97188 32.8 137.53438 32.425Q138.09688 32.034374 138.8 31.83125Q139.31563 31.70625 140.3625 31.565624Q142.4875 31.315624 143.4875 30.971874Q143.50313 30.6125 143.50313 30.503124Q143.50313 29.440624 143.00313 28.9875Q142.33125 28.39375 141.00313 28.39375Q139.75313 28.39375 139.15938 28.83125Q138.58125 29.26875 138.3 30.378124L136.58125 30.14375Q136.81563 29.034374 137.34688 28.3625Q137.87813 27.675 138.89375 27.315624Q139.90938 26.940624 141.25313 26.940624Q142.58125 26.940624 143.40938 27.253124Q144.2375 27.565624 144.62813 28.05Q145.01875 28.51875 145.175 29.2375Q145.26875 29.690624 145.26875 30.8625L145.26875 33.20625Q145.26875 35.659374 145.37813 36.315624Q145.4875 36.95625 145.83125 37.55L143.9875 37.55Q143.72188 37.003124 143.64375 36.26875ZM143.4875 32.346874Q142.53438 32.7375 140.6125 33.003124Q139.53438 33.159374 139.08125 33.3625Q138.64375 33.55 138.39375 33.925Q138.14375 34.3 138.14375 34.76875Q138.14375 35.471874 138.675 35.940624Q139.20625 36.409374 140.2375 36.409374Q141.25313 36.409374 142.03438 35.971874Q142.83125 35.51875 143.20625 34.753124Q143.4875 34.14375 143.4875 32.9875L143.4875 32.346874ZM156.6125 35.8625L156.6125 37.55L147.15938 37.55Q147.14375 36.909374 147.3625 36.33125Q147.72188 35.3625 148.51875 34.425Q149.31563 33.4875 150.81563 32.253124Q153.15938 30.346874 153.97188 29.2375Q154.8 28.1125 154.8 27.1125Q154.8 26.065624 154.05 25.346874Q153.3 24.628124 152.09688 24.628124Q150.83125 24.628124 150.06563 25.39375Q149.3 26.159374 149.3 27.503124L147.4875 27.315624Q147.675 25.3 148.87813 24.2375Q150.09688 23.175 152.14375 23.175Q154.19063 23.175 155.39375 24.315624Q156.59688 25.45625 156.59688 27.14375Q156.59688 28.003124 156.2375 28.846874Q155.89375 29.675 155.08125 30.596874Q154.26875 31.503124 152.37813 33.1125Q150.78438 34.440624 150.33125 34.909374Q149.89375 35.378124 149.59688 35.8625L156.6125 35.8625ZM158.19063 33.253124L158.19063 31.4875L163.58125 31.4875L163.58125 33.253124L158.19063 33.253124ZM165.50313 25.1125L165.50313 23.425L174.76875 23.425L174.76875 24.784374Q173.39375 26.2375 172.05 28.659374Q170.70625 31.065624 169.9875 33.6125Q169.45625 35.409374 169.3 37.55L167.50313 37.55Q167.53438 35.8625 168.15938 33.471874Q168.8 31.08125 169.9875 28.8625Q171.175 26.628124 172.50313 25.1125L165.50313 25.1125ZM177.01875 37.55L177.01875 23.2375L182.39375 23.2375Q184.03438 23.2375 185.01875 23.675Q186.00313 24.096874 186.56563 25.003124Q187.12813 25.909374 187.12813 26.89375Q187.12813 27.815624 186.62813 28.628124Q186.14375 29.440624 185.12813 29.925Q186.425 30.315624 187.12813 31.2375Q187.83125 32.14375 187.83125 33.39375Q187.83125 34.409374 187.39375 35.26875Q186.97188 36.128124 186.34688 36.596874Q185.72188 37.065624 184.78438 37.315624Q183.84688 37.55 182.47188 37.55L177.01875 37.55ZM178.90938 29.253124L182.00313 29.253124Q183.26875 29.253124 183.81563 29.08125Q184.53438 28.8625 184.89375 28.378124Q185.26875 27.878124 185.26875 27.1125Q185.26875 26.409374 184.925 25.8625Q184.58125 25.315624 183.94063 25.128124Q183.31563 24.925 181.76875 24.925L178.90938 24.925L178.90938 29.253124ZM178.90938 35.8625L182.47188 35.8625Q183.39375 35.8625 183.76875 35.784374Q184.425 35.675 184.8625 35.409374Q185.3 35.128124 185.58125 34.6125Q185.8625 34.08125 185.8625 33.39375Q185.8625 32.596874 185.45625 32.003124Q185.05 31.409374 184.31563 31.175Q183.58125 30.940624 182.22188 30.940624L178.90938 30.940624L178.90938 35.8625ZM195.22188 32.3625Q195.22188 29.4875 196.81563 28.096874Q198.15938 26.940624 200.08125 26.940624Q202.22188 26.940624 203.56563 28.346874Q204.925 29.753124 204.925 32.221874Q204.925 34.221874 204.33125 35.378124Q203.7375 36.51875 202.58125 37.159374Q201.44063 37.784374 200.08125 37.784374Q197.89375 37.784374 196.55 36.39375Q195.22188 34.9875 195.22188 32.3625ZM197.01875 32.3625Q197.01875 34.3625 197.87813 35.346874Q198.75313 36.33125 200.08125 36.33125Q201.39375 36.33125 202.25313 35.346874Q203.12813 34.346874 203.12813 32.3Q203.12813 30.378124 202.25313 29.39375Q201.37813 28.39375 200.08125 28.39375Q198.75313 28.39375 197.87813 29.39375Q197.01875 30.378124 197.01875 32.3625ZM206.8625 37.55L206.8625 27.175L208.45625 27.175L208.45625 28.659374Q209.59688 26.940624 211.75313 26.940624Q212.69063 26.940624 213.47188 27.284374Q214.26875 27.6125 214.65938 28.159374Q215.05 28.70625 215.20625 29.45625Q215.3 29.95625 215.3 31.175L215.3 37.55L213.53438 37.55L213.53438 31.2375Q213.53438 30.159374 213.33125 29.628124Q213.12813 29.096874 212.59688 28.784374Q212.08125 28.471874 211.37813 28.471874Q210.25313 28.471874 209.44063 29.190624Q208.62813 29.89375 208.62813 31.878124L208.62813 37.55L206.8625 37.55ZM222.37813 33.8L224.22188 33.64375Q224.425 34.9875 225.175 35.675Q225.925 36.346874 226.9875 36.346874Q228.25313 36.346874 229.12813 35.39375Q230.00313 34.440624 230.00313 32.846874Q230.00313 31.346874 229.15938 30.4875Q228.31563 29.6125 226.95625 29.6125Q226.09688 29.6125 225.40938 30.003124Q224.7375 30.378124 224.34688 31.003124L222.69063 30.784374L224.08125 23.425L231.20625 23.425L231.20625 25.1125L225.4875 25.1125L224.72188 28.95625Q226.00313 28.05 227.425 28.05Q229.3 28.05 230.58125 29.3625Q231.87813 30.659374 231.87813 32.690624Q231.87813 34.64375 230.7375 36.05Q229.3625 37.8 226.9875 37.8Q225.03438 37.8 223.78438 36.70625Q222.55 35.6125 222.37813 33.8ZM233.70625 26.675Q233.70625 25.14375 234.47188 24.065624Q235.25313 22.9875 236.72188 22.9875Q238.06563 22.9875 238.94063 23.95625Q239.83125 24.909374 239.83125 26.784374Q239.83125 28.596874 238.94063 29.58125Q238.05 30.55 236.7375 30.55Q235.44063 30.55 234.56563 29.596874Q233.70625 28.628124 233.70625 26.675ZM236.76875 24.20625Q236.1125 24.20625 235.675 24.76875Q235.25313 25.33125 235.25313 26.846874Q235.25313 28.221874 235.69063 28.784374Q236.12813 29.346874 236.76875 29.346874Q237.44063 29.346874 237.8625 28.784374Q238.3 28.20625 238.3 26.70625Q238.3 25.315624 237.8625 24.76875Q237.425 24.20625 236.76875 24.20625ZM236.78438 38.08125L244.6125 22.9875L246.03438 22.9875L238.2375 38.08125L236.78438 38.08125ZM242.97188 34.190624Q242.97188 32.64375 243.7375 31.58125Q244.51875 30.503124 245.9875 30.503124Q247.33125 30.503124 248.20625 31.471874Q249.09688 32.425 249.09688 34.3Q249.09688 36.1125 248.20625 37.096874Q247.31563 38.08125 246.00313 38.08125Q244.70625 38.08125 243.83125 37.1125Q242.97188 36.128124 242.97188 34.190624ZM246.03438 31.721874Q245.37813 31.721874 244.94063 32.284374Q244.50313 32.846874 244.50313 34.3625Q244.50313 35.7375 244.94063 36.3Q245.37813 36.8625 246.03438 36.8625Q246.70625 36.8625 247.12813 36.3Q247.56563 35.7375 247.56563 34.221874Q247.56563 32.846874 247.12813 32.284374Q246.69063 31.721874 246.03438 31.721874ZM264.59686 37.55L264.59686 36.2375Q263.6125 37.784374 261.6906 37.784374Q260.45624 37.784374 259.40936 37.096874Q258.3781 36.409374 257.8 35.190624Q257.2375 33.971874 257.2375 32.378124Q257.2375 30.815624 257.7531 29.55Q258.26874 28.284374 259.3 27.6125Q260.34686 26.940624 261.6125 26.940624Q262.55 26.940624 263.28436 27.346874Q264.01874 27.7375 264.4875 28.3625L264.4875 23.2375L266.22186 23.2375L266.22186 37.55L264.59686 37.55ZM259.03436 32.378124Q259.03436 34.3625 259.8781 35.346874Q260.72186 36.33125 261.8625 36.33125Q263.01874 36.33125 263.8156 35.39375Q264.6281 34.45625 264.6281 32.51875Q264.6281 30.39375 263.8 29.39375Q262.9875 28.39375 261.78436 28.39375Q260.6125 28.39375 259.8156 29.3625Q259.03436 30.315624 259.03436 32.378124ZM275.64374 36.26875Q274.65936 37.096874 273.7531 37.440624Q272.84686 37.784374 271.8156 37.784374Q270.1125 37.784374 269.1906 36.95625Q268.26874 36.1125 268.26874 34.815624Q268.26874 34.05 268.6125 33.425Q268.97186 32.8 269.53436 32.425Q270.09686 32.034374 270.8 31.83125Q271.3156 31.70625 272.3625 31.565624Q274.4875 31.315624 275.4875 30.971874Q275.5031 30.6125 275.5031 30.503124Q275.5031 29.440624 275.0031 28.9875Q274.33124 28.39375 273.0031 28.39375Q271.7531 28.39375 271.15936 28.83125Q270.58124 29.26875 270.3 30.378124L268.58124 30.14375Q268.8156 29.034374 269.34686 28.3625Q269.8781 27.675 270.89374 27.315624Q271.90936 26.940624 273.2531 26.940624Q274.58124 26.940624 275.40936 27.253124Q276.2375 27.565624 276.6281 28.05Q277.01874 28.51875 277.175 29.2375Q277.26874 29.690624 277.26874 30.8625L277.26874 33.20625Q277.26874 35.659374 277.3781 36.315624Q277.4875 36.95625 277.83124 37.55L275.9875 37.55Q275.72186 37.003124 275.64374 36.26875ZM275.4875 32.346874Q274.53436 32.7375 272.6125 33.003124Q271.53436 33.159374 271.08124 33.3625Q270.64374 33.55 270.39374 33.925Q270.14374 34.3 270.14374 34.76875Q270.14374 35.471874 270.675 35.940624Q271.20624 36.409374 272.2375 36.409374Q273.2531 36.409374 274.03436 35.971874Q274.83124 35.51875 275.20624 34.753124Q275.4875 34.14375 275.4875 32.9875L275.4875 32.346874ZM283.70624 35.971874L283.95624 37.534374Q283.22186 37.690624 282.6281 37.690624Q281.675 37.690624 281.14374 37.39375Q280.6281 37.08125 280.40936 36.596874Q280.1906 36.096874 280.1906 34.51875L280.1906 28.55L278.90936 28.55L278.90936 27.175L280.1906 27.175L280.1906 24.6125L281.9406 23.55L281.9406 27.175L283.70624 27.175L283.70624 28.55L281.9406 28.55L281.9406 34.6125Q281.9406 35.3625 282.03436 35.58125Q282.1281 35.784374 282.33124 35.925Q282.55 36.05 282.9406 36.05Q283.22186 36.05 283.70624 35.971874ZM292.64374 36.26875Q291.65936 37.096874 290.7531 37.440624Q289.84686 37.784374 288.8156 37.784374Q287.1125 37.784374 286.1906 36.95625Q285.26874 36.1125 285.26874 34.815624Q285.26874 34.05 285.6125 33.425Q285.97186 32.8 286.53436 32.425Q287.09686 32.034374 287.8 31.83125Q288.3156 31.70625 289.3625 31.565624Q291.4875 31.315624 292.4875 30.971874Q292.5031 30.6125 292.5031 30.503124Q292.5031 29.440624 292.0031 28.9875Q291.33124 28.39375 290.0031 28.39375Q288.7531 28.39375 288.15936 28.83125Q287.58124 29.26875 287.3 30.378124L285.58124 30.14375Q285.8156 29.034374 286.34686 28.3625Q286.8781 27.675 287.89374 27.315624Q288.90936 26.940624 290.2531 26.940624Q291.58124 26.940624 292.40936 27.253124Q293.2375 27.565624 293.6281 28.05Q294.01874 28.51875 294.175 29.2375Q294.26874 29.690624 294.26874 30.8625L294.26874 33.20625Q294.26874 35.659374 294.3781 36.315624Q294.4875 36.95625 294.83124 37.55L292.9875 37.55Q292.72186 37.003124 292.64374 36.26875ZM292.4875 32.346874Q291.53436 32.7375 289.6125 33.003124Q288.53436 33.159374 288.08124 33.3625Q287.64374 33.55 287.39374 33.925Q287.14374 34.3 287.14374 34.76875Q287.14374 35.471874 287.675 35.940624Q288.20624 36.409374 289.2375 36.409374Q290.2531 36.409374 291.03436 35.971874Q291.83124 35.51875 292.20624 34.753124Q292.4875 34.14375 292.4875 32.9875L292.4875 32.346874ZM302.15936 34.45625L303.90936 34.175Q304.05 35.221874 304.72186 35.784374Q305.39374 36.33125 306.59686 36.33125Q307.8 36.33125 308.3781 35.846874Q308.97186 35.346874 308.97186 34.690624Q308.97186 34.096874 308.45624 33.753124Q308.09686 33.51875 306.65936 33.159374Q304.72186 32.659374 303.97186 32.315624Q303.2375 31.95625 302.84686 31.33125Q302.45624 30.690624 302.45624 29.925Q302.45624 29.2375 302.76874 28.64375Q303.09686 28.05 303.64374 27.659374Q304.05 27.3625 304.7531 27.159374Q305.47186 26.940624 306.28436 26.940624Q307.5031 26.940624 308.425 27.3Q309.34686 27.64375 309.78436 28.253124Q310.22186 28.846874 310.39374 29.846874L308.675 30.08125Q308.55 29.284374 307.9875 28.846874Q307.425 28.39375 306.40936 28.39375Q305.1906 28.39375 304.675 28.8Q304.15936 29.190624 304.15936 29.721874Q304.15936 30.065624 304.3781 30.346874Q304.58124 30.628124 305.05 30.815624Q305.3156 30.909374 306.59686 31.253124Q308.47186 31.753124 309.20624 32.08125Q309.9406 32.39375 310.3625 33.003124Q310.78436 33.596874 310.78436 34.503124Q310.78436 35.378124 310.26874 36.159374Q309.7531 36.940624 308.78436 37.3625Q307.8156 37.784374 306.59686 37.784374Q304.58124 37.784374 303.51874 36.940624Q302.45624 36.096874 302.15936 34.45625ZM319.97186 34.20625L321.78436 34.440624Q321.3625 36.01875 320.1906 36.909374Q319.03436 37.784374 317.22186 37.784374Q314.95624 37.784374 313.6125 36.39375Q312.28436 34.9875 312.28436 32.45625Q312.28436 29.83125 313.6281 28.39375Q314.97186 26.940624 317.1281 26.940624Q319.20624 26.940624 320.51874 28.3625Q321.84686 29.76875 321.84686 32.346874Q321.84686 32.503124 321.83124 32.815624L314.09686 32.815624Q314.1906 34.51875 315.0656 35.425Q315.9406 36.33125 317.2375 36.33125Q318.20624 36.33125 318.8781 35.83125Q319.5656 35.315624 319.97186 34.20625ZM314.1906 31.3625L319.9875 31.3625Q319.8781 30.065624 319.33124 29.409374Q318.4875 28.39375 317.14374 28.39375Q315.9406 28.39375 315.1125 29.20625Q314.28436 30.003124 314.1906 31.3625ZM323.83124 37.55L323.83124 23.2375L325.58124 23.2375L325.58124 37.55L323.83124 37.55ZM334.97186 34.20625L336.78436 34.440624Q336.3625 36.01875 335.1906 36.909374Q334.03436 37.784374 332.22186 37.784374Q329.95624 37.784374 328.6125 36.39375Q327.28436 34.9875 327.28436 32.45625Q327.28436 29.83125 328.6281 28.39375Q329.97186 26.940624 332.1281 26.940624Q334.20624 26.940624 335.51874 28.3625Q336.84686 29.76875 336.84686 32.346874Q336.84686 32.503124 336.83124 32.815624L329.09686 32.815624Q329.1906 34.51875 330.0656 35.425Q330.9406 36.33125 332.2375 36.33125Q333.20624 36.33125 333.8781 35.83125Q334.5656 35.315624 334.97186 34.20625ZM329.1906 31.3625L334.9875 31.3625Q334.8781 30.065624 334.33124 29.409374Q333.4875 28.39375 332.14374 28.39375Q330.9406 28.39375 330.1125 29.20625Q329.28436 30.003124 329.1906 31.3625ZM345.64374 33.753124L347.3625 33.971874Q347.08124 35.76875 345.90936 36.784374Q344.7531 37.784374 343.05 37.784374Q340.925 37.784374 339.6281 36.39375Q338.33124 35.003124 338.33124 32.409374Q338.33124 30.721874 338.8781 29.471874Q339.4406 28.20625 340.58124 27.58125Q341.72186 26.940624 343.0656 26.940624Q344.7531 26.940624 345.8156 27.8Q346.89374 28.659374 347.20624 30.221874L345.4875 30.4875Q345.2531 29.440624 344.6281 28.925Q344.0031 28.39375 343.1281 28.39375Q341.8 28.39375 340.97186 29.346874Q340.14374 30.3 340.14374 32.346874Q340.14374 34.440624 340.9406 35.39375Q341.7375 36.33125 343.03436 36.33125Q344.0656 36.33125 344.7531 35.70625Q345.45624 35.065624 345.64374 33.753124ZM352.70624 35.971874L352.95624 37.534374Q352.22186 37.690624 351.6281 37.690624Q350.675 37.690624 350.14374 37.39375Q349.6281 37.08125 349.40936 36.596874Q349.1906 36.096874 349.1906 34.51875L349.1906 28.55L347.90936 28.55L347.90936 27.175L349.1906 27.175L349.1906 24.6125L350.9406 23.55L350.9406 27.175L352.70624 27.175L352.70624 28.55L350.9406 28.55L350.9406 34.6125Q350.9406 35.3625 351.03436 35.58125Q351.1281 35.784374 351.33124 35.925Q351.55 36.05 351.9406 36.05Q352.22186 36.05 352.70624 35.971874ZM361.97186 34.20625L363.78436 34.440624Q363.3625 36.01875 362.1906 36.909374Q361.03436 37.784374 359.22186 37.784374Q356.95624 37.784374 355.6125 36.39375Q354.28436 34.9875 354.28436 32.45625Q354.28436 29.83125 355.6281 28.39375Q356.97186 26.940624 359.1281 26.940624Q361.20624 26.940624 362.51874 28.3625Q363.84686 29.76875 363.84686 32.346874Q363.84686 32.503124 363.83124 32.815624L356.09686 32.815624Q356.1906 34.51875 357.0656 35.425Q357.9406 36.33125 359.2375 36.33125Q360.20624 36.33125 360.8781 35.83125Q361.5656 35.315624 361.97186 34.20625ZM356.1906 31.3625L361.9875 31.3625Q361.8781 30.065624 361.33124 29.409374Q360.4875 28.39375 359.14374 28.39375Q357.9406 28.39375 357.1125 29.20625Q356.28436 30.003124 356.1906 31.3625ZM372.59686 37.55L372.59686 36.2375Q371.6125 37.784374 369.6906 37.784374Q368.45624 37.784374 367.40936 37.096874Q366.3781 36.409374 365.8 35.190624Q365.2375 33.971874 365.2375 32.378124Q365.2375 30.815624 365.7531 29.55Q366.26874 28.284374 367.3 27.6125Q368.34686 26.940624 369.6125 26.940624Q370.55 26.940624 371.28436 27.346874Q372.01874 27.7375 372.4875 28.3625L372.4875 23.2375L374.22186 23.2375L374.22186 37.55L372.59686 37.55ZM367.03436 32.378124Q367.03436 34.3625 367.8781 35.346874Q368.72186 36.33125 369.8625 36.33125Q371.01874 36.33125 371.8156 35.39375Q372.6281 34.45625 372.6281 32.51875Q372.6281 30.39375 371.8 29.39375Q370.9875 28.39375 369.78436 28.39375Q368.6125 28.39375 367.8156 29.3625Q367.03436 30.315624 367.03436 32.378124ZM384.4875 37.55L382.8625 37.55L382.8625 23.2375L384.6125 23.2375L384.6125 28.346874Q385.7375 26.940624 387.45624 26.940624Q388.40936 26.940624 389.26874 27.33125Q390.1281 27.721874 390.675 28.425Q391.22186 29.1125 391.53436 30.096874Q391.84686 31.08125 391.84686 32.20625Q391.84686 34.878124 390.53436 36.33125Q389.22186 37.784374 387.3781 37.784374Q385.53436 37.784374 384.4875 36.253124L384.4875 37.55ZM384.47186 32.284374Q384.47186 34.14375 384.97186 34.9875Q385.8156 36.33125 387.22186 36.33125Q388.3781 36.33125 389.20624 35.33125Q390.05 34.33125 390.05 32.346874Q390.05 30.315624 389.2375 29.3625Q388.4406 28.39375 387.3 28.39375Q386.14374 28.39375 385.3 29.39375Q384.47186 30.39375 384.47186 32.284374ZM393.78436 41.55L393.59686 39.89375Q394.175 40.05 394.59686 40.05Q395.1906 40.05 395.53436 39.846874Q395.89374 39.659374 396.1125 39.315624Q396.28436 39.05 396.65936 38.003124Q396.70624 37.846874 396.8156 37.565624L392.8781 27.175L394.76874 27.175L396.925 33.190624Q397.34686 34.33125 397.675 35.58125Q397.9875 34.378124 398.39374 33.221874L400.6125 27.175L402.3781 27.175L398.425 37.721874Q397.8 39.440624 397.4406 40.08125Q396.97186 40.95625 396.3625 41.346874Q395.76874 41.753124 394.925 41.753124Q394.40936 41.753124 393.78436 41.55ZM416.59686 37.55L416.59686 36.2375Q415.6125 37.784374 413.6906 37.784374Q412.45624 37.784374 411.40936 37.096874Q410.3781 36.409374 409.8 35.190624Q409.2375 33.971874 409.2375 32.378124Q409.2375 30.815624 409.7531 29.55Q410.26874 28.284374 411.3 27.6125Q412.34686 26.940624 413.6125 26.940624Q414.55 26.940624 415.28436 27.346874Q416.01874 27.7375 416.4875 28.3625L416.4875 23.2375L418.22186 23.2375L418.22186 37.55L416.59686 37.55ZM411.03436 32.378124Q411.03436 34.3625 411.8781 35.346874Q412.72186 36.33125 413.8625 36.33125Q415.01874 36.33125 415.8156 35.39375Q416.6281 34.45625 416.6281 32.51875Q416.6281 30.39375 415.8 29.39375Q414.9875 28.39375 413.78436 28.39375Q412.6125 28.39375 411.8156 29.3625Q411.03436 30.315624 411.03436 32.378124ZM420.8781 25.253124L420.8781 23.2375L422.64374 23.2375L422.64374 25.253124L420.8781 25.253124ZM420.8781 37.55L420.8781 27.175L422.64374 27.175L422.64374 37.55L420.8781 37.55ZM425.28436 37.55L425.28436 28.55L423.7375 28.55L423.7375 27.175L425.28436 27.175L425.28436 26.08125Q425.28436 25.034374 425.47186 24.51875Q425.72186 23.83125 426.3625 23.409374Q427.0031 22.9875 428.15936 22.9875Q428.90936 22.9875 429.8 23.159374L429.53436 24.690624Q428.9875 24.596874 428.5031 24.596874Q427.70624 24.596874 427.3625 24.940624Q427.03436 25.284374 427.03436 26.221874L427.03436 27.175L429.0656 27.175L429.0656 28.55L427.03436 28.55L427.03436 37.55L425.28436 37.55ZM431.28436 37.55L431.28436 28.55L429.7375 28.55L429.7375 27.175L431.28436 27.175L431.28436 26.08125Q431.28436 25.034374 431.47186 24.51875Q431.72186 23.83125 432.3625 23.409374Q433.0031 22.9875 434.15936 22.9875Q434.90936 22.9875 435.8 23.159374L435.53436 24.690624Q434.9875 24.596874 434.5031 24.596874Q433.70624 24.596874 433.3625 24.940624Q433.03436 25.284374 433.03436 26.221874L433.03436 27.175L435.0656 27.175L435.0656 28.55L433.03436 28.55L433.03436 37.55L431.28436 37.55ZM443.97186 34.20625L445.78436 34.440624Q445.3625 36.01875 444.1906 36.909374Q443.03436 37.784374 441.22186 37.784374Q438.95624 37.784374 437.6125 36.39375Q436.28436 34.9875 436.28436 32.45625Q436.28436 29.83125 437.6281 28.39375Q438.97186 26.940624 441.1281 26.940624Q443.20624 26.940624 444.51874 28.3625Q445.84686 29.76875 445.84686 32.346874Q445.84686 32.503124 445.83124 32.815624L438.09686 32.815624Q438.1906 34.51875 439.0656 35.425Q439.9406 36.33125 441.2375 36.33125Q442.20624 36.33125 442.8781 35.83125Q443.5656 35.315624 443.97186 34.20625ZM438.1906 31.3625L443.9875 31.3625Q443.8781 30.065624 443.33124 29.409374Q442.4875 28.39375 441.14374 28.39375Q439.9406 28.39375 439.1125 29.20625Q438.28436 30.003124 438.1906 31.3625ZM447.84686 37.55L447.84686 27.175L449.425 27.175L449.425 28.753124Q450.03436 27.64375 450.55 27.3Q451.0656 26.940624 451.675 26.940624Q452.5656 26.940624 453.4875 27.503124L452.8781 29.14375Q452.2375 28.753124 451.59686 28.753124Q451.01874 28.753124 450.55 29.1125Q450.09686 29.45625 449.89374 30.065624Q449.6125 31.003124 449.6125 32.1125L449.6125 37.55L447.84686 37.55ZM461.97186 34.20625L463.78436 34.440624Q463.3625 36.01875 462.1906 36.909374Q461.03436 37.784374 459.22186 37.784374Q456.95624 37.784374 455.6125 36.39375Q454.28436 34.9875 454.28436 32.45625Q454.28436 29.83125 455.6281 28.39375Q456.97186 26.940624 459.1281 26.940624Q461.20624 26.940624 462.51874 28.3625Q463.84686 29.76875 463.84686 32.346874Q463.84686 32.503124 463.83124 32.815624L456.09686 32.815624Q456.1906 34.51875 457.0656 35.425Q457.9406 36.33125 459.2375 36.33125Q460.20624 36.33125 460.8781 35.83125Q461.5656 35.315624 461.97186 34.20625ZM456.1906 31.3625L461.9875 31.3625Q461.8781 30.065624 461.33124 29.409374Q460.4875 28.39375 459.14374 28.39375Q457.9406 28.39375 457.1125 29.20625Q456.28436 30.003124 456.1906 31.3625ZM465.8625 37.55L465.8625 27.175L467.45624 27.175L467.45624 28.659374Q468.59686 26.940624 470.7531 26.940624Q471.6906 26.940624 472.47186 27.284374Q473.26874 27.6125 473.65936 28.159374Q474.05 28.70625 474.20624 29.45625Q474.3 29.95625 474.3 31.175L474.3 37.55L472.53436 37.55L472.53436 31.2375Q472.53436 30.159374 472.33124 29.628124Q472.1281 29.096874 471.59686 28.784374Q471.08124 28.471874 470.3781 28.471874Q469.2531 28.471874 468.4406 29.190624Q467.6281 29.89375 467.6281 31.878124L467.6281 37.55L465.8625 37.55ZM479.70624 35.971874L479.95624 37.534374Q479.22186 37.690624 478.6281 37.690624Q477.675 37.690624 477.14374 37.39375Q476.6281 37.08125 476.40936 36.596874Q476.1906 36.096874 476.1906 34.51875L476.1906 28.55L474.90936 28.55L474.90936 27.175L476.1906 27.175L476.1906 24.6125L477.9406 23.55L477.9406 27.175L479.70624 27.175L479.70624 28.55L477.9406 28.55L477.9406 34.6125Q477.9406 35.3625 478.03436 35.58125Q478.1281 35.784374 478.33124 35.925Q478.55 36.05 478.9406 36.05Q479.22186 36.05 479.70624 35.971874ZM487.8625 37.55L487.8625 27.175L489.4406 27.175L489.4406 28.628124Q489.925 27.878124 490.7375 27.409374Q491.55 26.940624 492.58124 26.940624Q493.7375 26.940624 494.47186 27.425Q495.20624 27.89375 495.51874 28.753124Q496.7531 26.940624 498.72186 26.940624Q500.26874 26.940624 501.09686 27.8Q501.925 28.659374 501.925 30.425L501.925 37.55L500.175 37.55L500.175 31.01875Q500.175 29.95625 500.0031 29.503124Q499.83124 29.034374 499.3781 28.753124Q498.9406 28.471874 498.33124 28.471874Q497.2375 28.471874 496.5031 29.20625Q495.78436 29.925 495.78436 31.51875L495.78436 37.55L494.03436 37.55L494.03436 30.815624Q494.03436 29.64375 493.59686 29.065624Q493.175 28.471874 492.1906 28.471874Q491.45624 28.471874 490.8156 28.8625Q490.1906 29.253124 489.90936 30.003124Q489.6281 30.753124 489.6281 32.175L489.6281 37.55L487.8625 37.55ZM510.97186 34.20625L512.78436 34.440624Q512.3625 36.01875 511.1906 36.909374Q510.03436 37.784374 508.22186 37.784374Q505.95624 37.784374 504.6125 36.39375Q503.28436 34.9875 503.28436 32.45625Q503.28436 29.83125 504.6281 28.39375Q505.97186 26.940624 508.1281 26.940624Q510.20624 26.940624 511.51874 28.3625Q512.84686 29.76875 512.84686 32.346874Q512.84686 32.503124 512.83124 32.815624L505.09686 32.815624Q505.1906 34.51875 506.0656 35.425Q506.9406 36.33125 508.2375 36.33125Q509.20624 36.33125 509.8781 35.83125Q510.5656 35.315624 510.97186 34.20625ZM505.1906 31.3625L510.9875 31.3625Q510.8781 30.065624 510.33124 29.409374Q509.4875 28.39375 508.14374 28.39375Q506.9406 28.39375 506.1125 29.20625Q505.28436 30.003124 505.1906 31.3625ZM518.70624 35.971874L518.95624 37.534374Q518.22186 37.690624 517.6281 37.690624Q516.675 37.690624 516.14374 37.39375Q515.6281 37.08125 515.40936 36.596874Q515.1906 36.096874 515.1906 34.51875L515.1906 28.55L513.90936 28.55L513.90936 27.175L515.1906 27.175L515.1906 24.6125L516.9406 23.55L516.9406 27.175L518.70624 27.175L518.70624 28.55L516.9406 28.55L516.9406 34.6125Q516.9406 35.3625 517.03436 35.58125Q517.1281 35.784374 517.33124 35.925Q517.55 36.05 517.9406 36.05Q518.22186 36.05 518.70624 35.971874ZM520.8625 37.55L520.8625 23.2375L522.6281 23.2375L522.6281 28.3625Q523.8625 26.940624 525.7375 26.940624Q526.8781 26.940624 527.72186 27.39375Q528.58124 27.846874 528.9406 28.659374Q529.3156 29.45625 529.3156 30.971874L529.3156 37.55L527.5656 37.55L527.5656 30.971874Q527.5656 29.659374 526.9875 29.065624Q526.40936 28.45625 525.3781 28.45625Q524.59686 28.45625 523.89374 28.8625Q523.20624 29.26875 522.90936 29.971874Q522.6281 30.659374 522.6281 31.878124L522.6281 37.55L520.8625 37.55ZM530.22186 32.3625Q530.22186 29.4875 531.8156 28.096874Q533.15936 26.940624 535.08124 26.940624Q537.22186 26.940624 538.5656 28.346874Q539.925 29.753124 539.925 32.221874Q539.925 34.221874 539.33124 35.378124Q538.7375 36.51875 537.58124 37.159374Q536.4406 37.784374 535.08124 37.784374Q532.89374 37.784374 531.55 36.39375Q530.22186 34.9875 530.22186 32.3625ZM532.01874 32.3625Q532.01874 34.3625 532.8781 35.346874Q533.7531 36.33125 535.08124 36.33125Q536.39374 36.33125 537.2531 35.346874Q538.1281 34.346874 538.1281 32.3Q538.1281 30.378124 537.2531 29.39375Q536.3781 28.39375 535.08124 28.39375Q533.7531 28.39375 532.8781 29.39375Q532.01874 30.378124 532.01874 32.3625ZM548.59686 37.55L548.59686 36.2375Q547.6125 37.784374 545.6906 37.784374Q544.45624 37.784374 543.40936 37.096874Q542.3781 36.409374 541.8 35.190624Q541.2375 33.971874 541.2375 32.378124Q541.2375 30.815624 541.7531 29.55Q542.26874 28.284374 543.3 27.6125Q544.34686 26.940624 545.6125 26.940624Q546.55 26.940624 547.28436 27.346874Q548.01874 27.7375 548.4875 28.3625L548.4875 23.2375L550.22186 23.2375L550.22186 37.55L548.59686 37.55ZM543.03436 32.378124Q543.03436 34.3625 543.8781 35.346874Q544.72186 36.33125 545.8625 36.33125Q547.01874 36.33125 547.8156 35.39375Q548.6281 34.45625 548.6281 32.51875Q548.6281 30.39375 547.8 29.39375Q546.9875 28.39375 545.78436 28.39375Q544.6125 28.39375 543.8156 29.3625Q543.03436 30.315624 543.03436 32.378124ZM552.15936 34.45625L553.90936 34.175Q554.05 35.221874 554.72186 35.784374Q555.39374 36.33125 556.59686 36.33125Q557.8 36.33125 558.3781 35.846874Q558.97186 35.346874 558.97186 34.690624Q558.97186 34.096874 558.45624 33.753124Q558.09686 33.51875 556.65936 33.159374Q554.72186 32.659374 553.97186 32.315624Q553.2375 31.95625 552.84686 31.33125Q552.45624 30.690624 552.45624 29.925Q552.45624 29.2375 552.76874 28.64375Q553.09686 28.05 553.64374 27.659374Q554.05 27.3625 554.7531 27.159374Q555.47186 26.940624 556.28436 26.940624Q557.5031 26.940624 558.425 27.3Q559.34686 27.64375 559.78436 28.253124Q560.22186 28.846874 560.39374 29.846874L558.675 30.08125Q558.55 29.284374 557.9875 28.846874Q557.425 28.39375 556.40936 28.39375Q555.1906 28.39375 554.675 28.8Q554.15936 29.190624 554.15936 29.721874Q554.15936 30.065624 554.3781 30.346874Q554.58124 30.628124 555.05 30.815624Q555.3156 30.909374 556.59686 31.253124Q558.47186 31.753124 559.20624 32.08125Q559.9406 32.39375 560.3625 33.003124Q560.78436 33.596874 560.78436 34.503124Q560.78436 35.378124 560.26874 36.159374Q559.7531 36.940624 558.78436 37.3625Q557.8156 37.784374 556.59686 37.784374Q554.58124 37.784374 553.51874 36.940624Q552.45624 36.096874 552.15936 34.45625Z" fill-rule="nonzero"/></svg>