<svg xmlns:xlink="http://www.w3.org/1999/xlink" xmlns="http://www.w3.org/2000/svg" version="1.1" fill="none" stroke="none" stroke-linecap="square" stroke-miterlimit="10" viewBox="0 0 539 371"><path fill="#ffffff" d="M0 0L539.0 0L539.0 371.0L0 371.0L0 0Z" fill-rule="nonzero"/><path stroke="#cccccc" stroke-width="1.0" stroke-linecap="butt" d="M115.5 277.5L520.5 277.5" fill-rule="nonzero"/><path stroke="#cccccc" stroke-width="1.0" stroke-linecap="butt" d="M115.5 224.5L520.5 224.5" fill-rule="nonzero"/><path stroke="#cccccc" stroke-width="1.0" stroke-linecap="butt" d="M115.5 172.5L520.5 172.5" fill-rule="nonzero"/><path stroke="#cccccc" stroke-width="1.0" stroke-linecap="butt" d="M115.5 119.5L520.5 119.5" fill-rule="nonzero"/><path stroke="#cccccc" stroke-width="1.0" stroke-linecap="butt" d="M115.5 66.5L520.5 66.5" fill-rule="nonzero"/><clipPath id="id_0"><path d="M115.55 66.916664L520.45 66.916664L520.45 277.45L115.55 277.45L115.55 66.916664Z" clip-rule="nonzero"/></clipPath><path stroke="#000000" stroke-width="2.0" stroke-linecap="butt" stroke-opacity="0.0" clip-path="url(#id_0)" d="M209.0 277.0L148.0 277.0L148.0 111.0C148.0 109.89543 148.89543 109.0 150.0 109.0L207.0 109.0C208.10457 109.0 209.0 109.89543 209.0 111.0Z" fill-rule="nonzero"/><path fill="#cc0000" clip-path="url(#id_0)" d="M209.0 277.0L148.0 277.0L148.0 111.0C148.0 109.89543 148.89543 109.0 150.0 109.0L207.0 109.0C208.10457 109.0 209.0 109.89543 209.0 111.0Z" fill-rule="nonzero"/><path stroke="#000000" stroke-width="2.0" stroke-linecap="butt" stroke-opacity="0.0" clip-path="url(#id_0)" d="M302.0 277.0L241.0 277.0L241.0 220.0C241.0 218.89543 241.89543 218.0 243.0 218.0L300.0 218.0C301.10458 218.0 302.0 218.89543 302.0 220.0Z" fill-rule="nonzero"/><path fill="#3c78d8" clip-path="url(#id_0)" d="M302.0 277.0L241.0 277.0L241.0 220.0C241.0 218.89543 241.89543 218.0 243.0 218.0L300.0 218.0C301.10458 218.0 302.0 218.89543 302.0 220.0Z" fill-rule="nonzero"/><path stroke="#000000" stroke-width="2.0" stroke-linecap="butt" stroke-opacity="0.0" clip-path="url(#id_0)" d="M396.0 277.0L335.0 277.0L335.0 69.0C335.0 67.89543 335.89542 67.0 337.0 67.0L394.0 67.0C395.10458 67.0 396.0 67.89543 396.0 69.0Z" fill-rule="nonzero"/><path fill="#3c78d8" clip-path="url(#id_0)" d="M396.0 277.0L335.0 277.0L335.0 69.0C335.0 67.89543 335.89542 67.0 337.0 67.0L394.0 67.0C395.10458 67.0 396.0 67.89543 396.0 69.0Z" fill-rule="nonzero"/><path stroke="#000000" stroke-width="2.0" stroke-linecap="butt" stroke-opacity="0.0" clip-path="url(#id_0)" d="M489.0 277.0L428.0 277.0L428.0 118.0C428.0 116.89543 428.89542 116.0 430.0 116.0L487.0 116.0C488.10458 116.0 489.0 116.89543 489.0 118.0Z" fill-rule="nonzero"/><path fill="#3c78d8" clip-path="url(#id_0)" d="M489.0 277.0L428.0 277.0L428.0 118.0C428.0 116.89543 428.89542 116.0 430.0 116.0L487.0 116.0C488.10458 116.0 489.0 116.89543 489.0 118.0Z" fill-rule="nonzero"/><path fill="#000000" d="M267.89062 348.45L267.89062 335.5594L272.32812 335.5594Q273.82812 335.5594 274.625 335.7469Q275.73438 335.9969 276.51562 336.66876Q277.53125 337.52814 278.03125 338.8719Q278.54688 340.21564 278.54688 341.9344Q278.54688 343.40314 278.20312 344.54376Q277.85938 345.66876 277.3125 346.41876Q276.78125 347.15314 276.14062 347.59064Q275.51562 348.0125 274.60938 348.23126Q273.70312 348.45 272.53125 348.45L267.89062 348.45ZM269.59375 346.9344L272.34375 346.9344Q273.625 346.9344 274.34375 346.7Q275.0625 346.45 275.5 346.02814Q276.10938 345.41876 276.4375 344.40314Q276.78125 343.3719 276.78125 341.90314Q276.78125 339.8875 276.10938 338.8094Q275.45312 337.71564 274.5 337.35626Q273.82812 337.09064 272.29688 337.09064L269.59375 337.09064L269.59375 346.9344ZM286.78125 347.29376Q285.90625 348.04376 285.07812 348.35626Q284.26562 348.66876 283.34375 348.66876Q281.79688 348.66876 280.96875 347.91876Q280.15625 347.15314 280.15625 345.98126Q280.15625 345.3094 280.46875 344.7469Q280.78125 344.16876 281.28125 343.825Q281.78125 343.48126 282.42188 343.3094Q282.89062 343.1844 283.82812 343.075Q285.73438 342.84064 286.64062 342.52814Q286.65625 342.2 286.65625 342.10626Q286.65625 341.15314 286.20312 340.7469Q285.59375 340.21564 284.40625 340.21564Q283.28125 340.21564 282.75 340.60626Q282.21875 340.9969 281.96875 341.9969L280.42188 341.77814Q280.64062 340.77814 281.10938 340.16876Q281.59375 339.5594 282.5 339.23126Q283.42188 338.90314 284.64062 338.90314Q285.82812 338.90314 286.57812 339.1844Q287.32812 339.46564 287.67188 339.90314Q288.03125 340.325 288.17188 340.96564Q288.25 341.3719 288.25 342.4344L288.25 344.54376Q288.25 346.7469 288.34375 347.34064Q288.45312 347.91876 288.75 348.45L287.09375 348.45Q286.84375 347.95 286.78125 347.29376ZM286.64062 343.7625Q285.78125 344.1219 284.0625 344.35626Q283.09375 344.4969 282.6875 344.6844Q282.28125 344.85626 282.0625 345.2Q281.84375 345.52814 281.84375 345.95Q281.84375 346.575 282.3125 346.9969Q282.79688 347.41876 283.71875 347.41876Q284.64062 347.41876 285.34375 347.02814Q286.0625 346.6219 286.39062 345.9344Q286.64062 345.3875 286.64062 344.34064L286.64062 343.7625ZM294.14062 347.02814L294.375 348.4344Q293.70312 348.575 293.17188 348.575Q292.3125 348.575 291.82812 348.3094Q291.35938 348.02814 291.17188 347.59064Q290.98438 347.1375 290.98438 345.71564L290.98438 340.34064L289.8125 340.34064L289.8125 339.1219L290.98438 339.1219L290.98438 336.8094L292.54688 335.85626L292.54688 339.1219L294.14062 339.1219L294.14062 340.34064L292.54688 340.34064L292.54688 345.8094Q292.54688 346.48126 292.625 346.6844Q292.71875 346.8719 292.90625 346.98126Q293.09375 347.09064 293.45312 347.09064Q293.70312 347.09064 294.14062 347.02814ZM301.78125 347.29376Q300.90625 348.04376 300.07812 348.35626Q299.26562 348.66876 298.34375 348.66876Q296.79688 348.66876 295.96875 347.91876Q295.15625 347.15314 295.15625 345.98126Q295.15625 345.3094 295.46875 344.7469Q295.78125 344.16876 296.28125 343.825Q296.78125 343.48126 297.42188 343.3094Q297.89062 343.1844 298.82812 343.075Q300.73438 342.84064 301.64062 342.52814Q301.65625 342.2 301.65625 342.10626Q301.65625 341.15314 301.20312 340.7469Q300.59375 340.21564 299.40625 340.21564Q298.28125 340.21564 297.75 340.60626Q297.21875 340.9969 296.96875 341.9969L295.42188 341.77814Q295.64062 340.77814 296.10938 340.16876Q296.59375 339.5594 297.5 339.23126Q298.42188 338.90314 299.64062 338.90314Q300.82812 338.90314 301.57812 339.1844Q302.32812 339.46564 302.67188 339.90314Q303.03125 340.325 303.17188 340.96564Q303.25 341.3719 303.25 342.4344L303.25 344.54376Q303.25 346.7469 303.34375 347.34064Q303.45312 347.91876 303.75 348.45L302.09375 348.45Q301.84375 347.95 301.78125 347.29376ZM301.64062 343.7625Q300.78125 344.1219 299.0625 344.35626Q298.09375 344.4969 297.6875 344.6844Q297.28125 344.85626 297.0625 345.2Q296.84375 345.52814 296.84375 345.95Q296.84375 346.575 297.3125 346.9969Q297.79688 347.41876 298.71875 347.41876Q299.64062 347.41876 300.34375 347.02814Q301.0625 346.6219 301.39062 345.9344Q301.64062 345.3875 301.64062 344.34064L301.64062 343.7625ZM309.46875 348.45L314.42188 335.5594L316.26562 335.5594L321.53125 348.45L319.59375 348.45L318.09375 344.54376L312.70312 344.54376L311.28125 348.45L309.46875 348.45ZM313.1875 343.15314L317.5625 343.15314L316.21875 339.59064Q315.59375 337.96564 315.29688 336.91876Q315.0625 338.15314 314.60938 339.3719L313.1875 343.15314ZM321.6875 348.45L321.6875 339.1219L323.10938 339.1219L323.10938 340.41876Q323.54688 339.7469 324.26562 339.325Q325.0 338.90314 325.9375 338.90314Q326.96875 338.90314 327.625 339.34064Q328.29688 339.7625 328.5625 340.54376Q329.67188 338.90314 331.45312 338.90314Q332.84375 338.90314 333.57812 339.6844Q334.32812 340.45 334.32812 342.04376L334.32812 348.45L332.76562 348.45L332.76562 342.575Q332.76562 341.6219 332.60938 341.2Q332.45312 340.77814 332.04688 340.52814Q331.64062 340.27814 331.09375 340.27814Q330.10938 340.27814 329.45312 340.9344Q328.8125 341.59064 328.8125 343.02814L328.8125 348.45L327.23438 348.45L327.23438 342.3875Q327.23438 341.325 326.84375 340.8094Q326.45312 340.27814 325.57812 340.27814Q324.90625 340.27814 324.34375 340.6375Q323.78125 340.98126 323.51562 341.65314Q323.26562 342.325 323.26562 343.60626L323.26562 348.45L321.6875 348.45ZM335.09375 343.77814Q335.09375 341.1844 336.54688 339.9344Q337.75 338.90314 339.46875 338.90314Q341.40625 338.90314 342.625 340.16876Q343.84375 341.4344 343.84375 343.65314Q343.84375 345.45 343.29688 346.48126Q342.76562 347.5125 341.73438 348.09064Q340.70312 348.66876 339.46875 348.66876Q337.51562 348.66876 336.29688 347.41876Q335.09375 346.15314 335.09375 343.77814ZM336.71875 343.77814Q336.71875 345.575 337.5 346.46564Q338.28125 347.35626 339.46875 347.35626Q340.65625 347.35626 341.4375 346.46564Q342.21875 345.5594 342.21875 343.73126Q342.21875 341.9969 341.42188 341.10626Q340.64062 340.21564 339.46875 340.21564Q338.28125 340.21564 337.5 341.10626Q336.71875 341.9969 336.71875 343.77814ZM351.79688 348.45L351.79688 347.075Q350.71875 348.66876 348.84375 348.66876Q348.01562 348.66876 347.29688 348.35626Q346.57812 348.02814 346.23438 347.5594Q345.89062 347.075 345.75 346.3719Q345.65625 345.90314 345.65625 344.90314L345.65625 339.1219L347.23438 339.1219L347.23438 344.29376Q347.23438 345.52814 347.32812 345.96564Q347.48438 346.59064 347.96875 346.95Q348.45312 347.29376 349.15625 347.29376Q349.875 347.29376 350.5 346.9344Q351.125 346.575 351.375 345.95Q351.64062 345.3094 351.64062 344.1219L351.64062 339.1219L353.21875 339.1219L353.21875 348.45L351.79688 348.45ZM355.6875 348.45L355.6875 339.1219L357.10938 339.1219L357.10938 340.45Q358.14062 338.90314 360.07812 338.90314Q360.92188 338.90314 361.625 339.21564Q362.34375 339.5125 362.6875 340.0125Q363.04688 340.4969 363.1875 341.16876Q363.26562 341.60626 363.26562 342.71564L363.26562 348.45L361.6875 348.45L361.6875 342.77814Q361.6875 341.8094 361.5 341.325Q361.32812 340.84064 360.84375 340.5594Q360.375 340.27814 359.75 340.27814Q358.73438 340.27814 358.0 340.91876Q357.26562 341.5594 357.26562 343.35626L357.26562 348.45L355.6875 348.45ZM369.14062 347.02814L369.375 348.4344Q368.70312 348.575 368.17188 348.575Q367.3125 348.575 366.82812 348.3094Q366.35938 348.02814 366.17188 347.59064Q365.98438 347.1375 365.98438 345.71564L365.98438 340.34064L364.8125 340.34064L364.8125 339.1219L365.98438 339.1219L365.98438 336.8094L367.54688 335.85626L367.54688 339.1219L369.14062 339.1219L369.14062 340.34064L367.54688 340.34064L367.54688 345.8094Q367.54688 346.48126 367.625 346.6844Q367.71875 346.8719 367.90625 346.98126Q368.09375 347.09064 368.45312 347.09064Q368.70312 347.09064 369.14062 347.02814Z" fill-rule="nonzero"/><path fill="#000000" d="M35.55001 266.2146L22.659388 261.26147L22.659388 259.41772L35.55001 254.15208L35.55001 256.0896L31.643763 257.5896L31.643763 262.98022L35.55001 264.4021L35.55001 266.2146ZM30.253138 262.49585L30.253138 258.12085L26.690638 259.4646Q25.065638 260.0896 24.018763 260.38647Q25.253138 260.62085 26.471888 261.07397L30.253138 262.49585ZM35.55001 251.40208L26.221888 254.94896L26.221888 253.27708L31.800013 251.27708Q32.70626 250.94896 33.690636 250.68333Q32.940636 250.46458 31.909388 250.08958L26.221888 248.02708L26.221888 246.38646L35.55001 249.93333L35.55001 251.40208ZM32.55001 238.60521L32.753136 236.96458Q34.17501 237.35521 34.971886 238.40208Q35.76876 239.44896 35.76876 241.07396Q35.76876 243.12083 34.503136 244.32396Q33.23751 245.52708 30.956263 245.52708Q28.612513 245.52708 27.315638 244.32396Q26.003138 243.10521 26.003138 241.16771Q26.003138 239.29271 27.284388 238.10521Q28.550013 236.91771 30.862513 236.91771Q31.003138 236.91771 31.284388 236.93333L31.284388 243.88646Q32.83126 243.80833 33.64376 243.02708Q34.45626 242.23021 34.45626 241.07396Q34.45626 240.19896 34.003136 239.58958Q33.55001 238.96458 32.55001 238.60521ZM29.987513 243.80833L29.987513 238.58958Q28.815638 238.69896 28.221888 239.18333Q27.300013 239.94896 27.300013 241.15208Q27.300013 242.23021 28.034388 242.98021Q28.768763 243.71458 29.987513 243.80833ZM35.55001 235.01146L26.221888 235.01146L26.221888 233.58958L27.628138 233.58958Q26.643763 233.04271 26.331263 232.58958Q26.003138 232.12083 26.003138 231.57396Q26.003138 230.76146 26.518763 229.94896L27.987513 230.48021Q27.643763 231.07396 27.643763 231.65208Q27.643763 232.16771 27.956263 232.58958Q28.268763 232.99583 28.815638 233.16771Q29.659388 233.43333 30.659388 233.43333L35.55001 233.43333L35.55001 235.01146ZM34.39376 222.90208Q35.14376 223.77708 35.45626 224.60521Q35.76876 225.41771 35.76876 226.33958Q35.76876 227.88646 35.01876 228.71458Q34.253136 229.52708 33.08126 229.52708Q32.409386 229.52708 31.846888 229.21458Q31.268763 228.90208 30.925013 228.40208Q30.581263 227.90208 30.409388 227.26146Q30.284388 226.79271 30.175013 225.85521Q29.940638 223.94896 29.628138 223.04271Q29.300013 223.02708 29.206263 223.02708Q28.253138 223.02708 27.846888 223.48021Q27.315638 224.08958 27.315638 225.27708Q27.315638 226.40208 27.706263 226.93333Q28.096888 227.46458 29.096888 227.71458L28.878138 229.26146Q27.878138 229.04271 27.268763 228.57396Q26.659388 228.08958 26.331263 227.18333Q26.003138 226.26146 26.003138 225.04271Q26.003138 223.85521 26.284388 223.10521Q26.565638 222.35521 27.003138 222.01146Q27.425013 221.65208 28.065638 221.51146Q28.471888 221.43333 29.534388 221.43333L31.643763 221.43333Q33.846886 221.43333 34.440636 221.33958Q35.01876 221.23021 35.55001 220.93333L35.55001 222.58958Q35.05001 222.83958 34.39376 222.90208ZM30.862513 223.04271Q31.221888 223.90208 31.456263 225.62083Q31.596888 226.58958 31.784388 226.99583Q31.956263 227.40208 32.30001 227.62083Q32.628136 227.83958 33.05001 227.83958Q33.67501 227.83958 34.096886 227.37083Q34.51876 226.88646 34.51876 225.96458Q34.51876 225.04271 34.128136 224.33958Q33.721886 223.62083 33.034386 223.29271Q32.48751 223.04271 31.440638 223.04271L30.862513 223.04271ZM36.33126 219.29271L36.55001 217.74583Q37.26876 217.65208 37.596886 217.21458Q38.034386 216.62083 38.034386 215.60521Q38.034386 214.51146 37.58126 213.91771Q37.14376 213.30833 36.36251 213.10521Q35.878136 212.98021 34.33126 212.98021Q35.55001 214.02708 35.55001 215.57396Q35.55001 217.49583 34.159386 218.55833Q32.76876 219.60521 30.831263 219.60521Q29.487513 219.60521 28.362513 219.12083Q27.237513 218.63646 26.628138 217.71458Q26.003138 216.79271 26.003138 215.55833Q26.003138 213.90208 27.346888 212.83958L26.221888 212.83958L26.221888 211.37083L34.284386 211.37083Q36.471886 211.37083 37.378136 211.82396Q38.284386 212.26146 38.80001 213.23021Q39.33126 214.18333 39.33126 215.58958Q39.33126 217.26146 38.58126 218.29271Q37.83126 219.32396 36.33126 219.29271ZM30.721888 217.98021Q32.55001 217.98021 33.39376 217.24583Q34.23751 216.51146 34.23751 215.41771Q34.23751 214.32396 33.409386 213.58958Q32.565636 212.85521 30.768763 212.85521Q29.050013 212.85521 28.190638 213.62083Q27.315638 214.37083 27.315638 215.44896Q27.315638 216.49583 28.175013 217.24583Q29.034388 217.98021 30.721888 217.98021ZM32.55001 202.60521L32.753136 200.96458Q34.17501 201.35521 34.971886 202.40208Q35.76876 203.44896 35.76876 205.07396Q35.76876 207.12083 34.503136 208.32396Q33.23751 209.52708 30.956263 209.52708Q28.612513 209.52708 27.315638 208.32396Q26.003138 207.10521 26.003138 205.16771Q26.003138 203.29271 27.284388 202.10521Q28.550013 200.91771 30.862513 200.91771Q31.003138 200.91771 31.284388 200.93333L31.284388 207.88646Q32.83126 207.80833 33.64376 207.02708Q34.45626 206.23021 34.45626 205.07396Q34.45626 204.19896 34.003136 203.58958Q33.55001 202.96458 32.55001 202.60521ZM29.987513 207.80833L29.987513 202.58958Q28.815638 202.69896 28.221888 203.18333Q27.300013 203.94896 27.300013 205.15208Q27.300013 206.23021 28.034388 206.98021Q28.768763 207.71458 29.987513 207.80833ZM35.55001 193.79271L22.659388 193.79271L22.659388 188.93333Q22.659388 187.65208 22.784388 186.98021Q22.940638 186.02708 23.393763 185.38646Q23.831263 184.74583 24.643763 184.35521Q25.440638 183.96458 26.393763 183.96458Q28.034388 183.96458 29.175013 185.01146Q30.315638 186.05833 30.315638 188.77708L30.315638 192.08958L35.55001 192.08958L35.55001 193.79271ZM28.784388 192.08958L28.784388 188.76146Q28.784388 187.10521 28.175013 186.41771Q27.565638 185.71458 26.440638 185.71458Q25.628138 185.71458 25.065638 186.12083Q24.487513 186.52708 24.300013 187.19896Q24.190638 187.63646 24.190638 188.79271L24.190638 192.08958L28.784388 192.08958ZM32.55001 175.60521L32.753136 173.96458Q34.17501 174.35521 34.971886 175.40208Q35.76876 176.44896 35.76876 178.07396Q35.76876 180.12083 34.503136 181.32396Q33.23751 182.52708 30.956263 182.52708Q28.612513 182.52708 27.315638 181.32396Q26.003138 180.10521 26.003138 178.16771Q26.003138 176.29271 27.284388 175.10521Q28.550013 173.91771 30.862513 173.91771Q31.003138 173.91771 31.284388 173.93333L31.284388 180.88646Q32.83126 180.80833 33.64376 180.02708Q34.45626 179.23021 34.45626 178.07396Q34.45626 177.19896 34.003136 176.58958Q33.55001 175.96458 32.55001 175.60521ZM29.987513 180.80833L29.987513 175.58958Q28.815638 175.69896 28.221888 176.18333Q27.300013 176.94896 27.300013 178.15208Q27.300013 179.23021 28.034388 179.98021Q28.768763 180.71458 29.987513 180.80833ZM35.55001 172.01146L26.221888 172.01146L26.221888 170.58958L27.628138 170.58958Q26.643763 170.04271 26.331263 169.58958Q26.003138 169.12083 26.003138 168.57396Q26.003138 167.76146 26.518763 166.94896L27.987513 167.48021Q27.643763 168.07396 27.643763 168.65208Q27.643763 169.16771 27.956263 169.58958Q28.268763 169.99583 28.815638 170.16771Q29.659388 170.43333 30.659388 170.43333L35.55001 170.43333L35.55001 172.01146ZM35.55001 165.62083L27.440638 165.62083L27.440638 167.01146L26.221888 167.01146L26.221888 165.62083L25.221888 165.62083Q24.284388 165.62083 23.831263 165.44896Q23.206263 165.23021 22.831263 164.65208Q22.440638 164.07396 22.440638 163.02708Q22.440638 162.37083 22.596888 161.55833L23.987513 161.79271Q23.893763 162.29271 23.893763 162.73021Q23.893763 163.44896 24.206263 163.74583Q24.503138 164.04271 25.346888 164.04271L26.221888 164.04271L26.221888 162.23021L27.440638 162.23021L27.440638 164.04271L35.55001 164.04271L35.55001 165.62083ZM30.878138 161.58958Q28.284388 161.58958 27.034388 160.13646Q26.003138 158.93333 26.003138 157.21458Q26.003138 155.27708 27.268763 154.05833Q28.534388 152.83958 30.753138 152.83958Q32.55001 152.83958 33.58126 153.38646Q34.61251 153.91771 35.190636 154.94896Q35.76876 155.98021 35.76876 157.21458Q35.76876 159.16771 34.51876 160.38646Q33.253136 161.58958 30.878138 161.58958ZM30.878138 159.96458Q32.67501 159.96458 33.565636 159.18333Q34.45626 158.40208 34.45626 157.21458Q34.45626 156.02708 33.565636 155.24583Q32.659386 154.46458 30.831263 154.46458Q29.096888 154.46458 28.206263 155.26146Q27.315638 156.04271 27.315638 157.21458Q27.315638 158.40208 28.206263 159.18333Q29.096888 159.96458 30.878138 159.96458ZM35.55001 151.01146L26.221888 151.01146L26.221888 149.58958L27.628138 149.58958Q26.643763 149.04271 26.331263 148.58958Q26.003138 148.12083 26.003138 147.57396Q26.003138 146.76146 26.518763 145.94896L27.987513 146.48021Q27.643763 147.07396 27.643763 147.65208Q27.643763 148.16771 27.956263 148.58958Q28.268763 148.99583 28.815638 149.16771Q29.659388 149.43333 30.659388 149.43333L35.55001 149.43333L35.55001 151.01146ZM35.55001 144.99583L26.221888 144.99583L26.221888 143.57396L27.518763 143.57396Q26.846888 143.13646 26.425013 142.41771Q26.003138 141.68333 26.003138 140.74583Q26.003138 139.71458 26.440638 139.05833Q26.862513 138.38646 27.643763 138.12083Q26.003138 137.01146 26.003138 135.23021Q26.003138 133.83958 26.784388 133.10521Q27.550013 132.35521 29.143763 132.35521L35.55001 132.35521L35.55001 133.91771L29.675013 133.91771Q28.721888 133.91771 28.300013 134.07396Q27.878138 134.23021 27.628138 134.63646Q27.378138 135.04271 27.378138 135.58958Q27.378138 136.57396 28.034388 137.23021Q28.690638 137.87083 30.128138 137.87083L35.55001 137.87083L35.55001 139.44896L29.487513 139.44896Q28.425013 139.44896 27.909388 139.83958Q27.378138 140.23021 27.378138 141.10521Q27.378138 141.77708 27.737513 142.33958Q28.081263 142.90208 28.753138 143.16771Q29.425013 143.41771 30.706263 143.41771L35.55001 143.41771L35.55001 144.99583ZM34.39376 124.902084Q35.14376 125.777084 35.45626 126.60521Q35.76876 127.41771 35.76876 128.33958Q35.76876 129.88646 35.01876 130.71458Q34.253136 131.52708 33.08126 131.52708Q32.409386 131.52708 31.846888 131.21458Q31.268763 130.90208 30.925013 130.40208Q30.581263 129.90208 30.409388 129.26146Q30.284388 128.79271 30.175013 127.85521Q29.940638 125.94896 29.628138 125.04271Q29.300013 125.027084 29.206263 125.027084Q28.253138 125.027084 27.846888 125.48021Q27.315638 126.089584 27.315638 127.277084Q27.315638 128.40208 27.706263 128.93333Q28.096888 129.46458 29.096888 129.71458L28.878138 131.26146Q27.878138 131.04271 27.268763 130.57396Q26.659388 130.08958 26.331263 129.18333Q26.003138 128.26146 26.003138 127.04271Q26.003138 125.85521 26.284388 125.10521Q26.565638 124.35521 27.003138 124.01146Q27.425013 123.652084 28.065638 123.51146Q28.471888 123.433334 29.534388 123.433334L31.643763 123.433334Q33.846886 123.433334 34.440636 123.339584Q35.01876 123.23021 35.55001 122.933334L35.55001 124.589584Q35.05001 124.839584 34.39376 124.902084ZM30.862513 125.04271Q31.221888 125.902084 31.456263 127.620834Q31.596888 128.58958 31.784388 128.99583Q31.956263 129.40208 32.30001 129.62083Q32.628136 129.83958 33.05001 129.83958Q33.67501 129.83958 34.096886 129.37083Q34.51876 128.88646 34.51876 127.964584Q34.51876 127.04271 34.128136 126.339584Q33.721886 125.620834 33.034386 125.29271Q32.48751 125.04271 31.440638 125.04271L30.862513 125.04271ZM35.55001 120.995834L26.221888 120.995834L26.221888 119.57396L27.550013 119.57396Q26.003138 118.54271 26.003138 116.60521Q26.003138 115.76146 26.315638 115.058334Q26.612513 114.339584 27.112513 113.995834Q27.596888 113.63646 28.268763 113.495834Q28.706263 113.41771 29.815638 113.41771L35.55001 113.41771L35.55001 114.995834L29.878138 114.995834Q28.909388 114.995834 28.425013 115.183334Q27.940638 115.35521 27.659388 115.839584Q27.378138 116.308334 27.378138 116.933334Q27.378138 117.94896 28.018763 118.683334Q28.659388 119.41771 30.456263 119.41771L35.55001 119.41771L35.55001 120.995834ZM32.128136 104.902084L32.33126 103.35521Q33.940636 103.60521 34.86251 104.652084Q35.76876 105.69896 35.76876 107.23021Q35.76876 109.152084 34.51876 110.32396Q33.253136 111.48021 30.925013 111.48021Q29.409388 111.48021 28.284388 110.98021Q27.143763 110.48021 26.581263 109.464584Q26.003138 108.433334 26.003138 107.23021Q26.003138 105.69896 26.784388 104.745834Q27.550013 103.777084 28.956263 103.495834L29.190638 105.04271Q28.253138 105.26146 27.784388 105.82396Q27.300013 106.370834 27.300013 107.16771Q27.300013 108.35521 28.159388 109.10521Q29.018763 109.85521 30.878138 109.85521Q32.753136 109.85521 33.61251 109.13646Q34.45626 108.41771 34.45626 107.245834Q34.45626 106.32396 33.89376 105.69896Q33.315636 105.07396 32.128136 104.902084ZM32.55001 95.60521L32.753136 93.964584Q34.17501 94.35521 34.971886 95.402084Q35.76876 96.44896 35.76876 98.07396Q35.76876 100.120834 34.503136 101.32396Q33.23751 102.527084 30.956263 102.527084Q28.612513 102.527084 27.315638 101.32396Q26.003138 100.10521 26.003138 98.16771Q26.003138 96.29271 27.284388 95.10521Q28.550013 93.91771 30.862513 93.91771Q31.003138 93.91771 31.284388 93.933334L31.284388 100.88646Q32.83126 100.808334 33.64376 100.027084Q34.45626 99.23021 34.45626 98.07396Q34.45626 97.19896 34.003136 96.589584Q33.55001 95.964584 32.55001 95.60521ZM29.987513 100.808334L29.987513 95.589584Q28.815638 95.69896 28.221888 96.183334Q27.300013 96.94896 27.300013 98.152084Q27.300013 99.23021 28.034388 99.98021Q28.768763 100.714584 29.987513 100.808334Z" fill-rule="nonzero"/><path fill="#000000" d="M67.37813 280.7L69.22188 280.54376Q69.425 281.8875 70.175 282.575Q70.925 283.2469 71.9875 283.2469Q73.25313 283.2469 74.12813 282.29376Q75.00313 281.34064 75.00313 279.7469Q75.00313 278.2469 74.15938 277.3875Q73.31563 276.5125 71.95625 276.5125Q71.09688 276.5125 70.40938 276.90314Q69.7375 277.27814 69.34688 277.90314L67.69063 277.6844L69.08125 270.325L76.20625 270.325L76.20625 272.0125L70.4875 272.0125L69.72188 275.85626Q71.00313 274.95 72.425 274.95Q74.3 274.95 75.58125 276.2625Q76.87813 277.5594 76.87813 279.59064Q76.87813 281.54376 75.7375 282.95Q74.3625 284.7 71.9875 284.7Q70.03438 284.7 68.78438 283.60626Q67.55 282.5125 67.37813 280.7ZM78.37813 277.3875Q78.37813 274.85626 78.89375 273.3094Q79.425 271.7469 80.45625 270.91876Q81.4875 270.075 83.05 270.075Q84.20625 270.075 85.06563 270.54376Q85.94063 270.9969 86.50313 271.8719Q87.06563 272.7469 87.39375 274.0125Q87.72188 275.2625 87.72188 277.3875Q87.72188 279.90314 87.19063 281.45Q86.675 282.9969 85.64375 283.85626Q84.62813 284.7 83.05 284.7Q80.97188 284.7 79.8 283.21564Q78.37813 281.41876 78.37813 277.3875ZM80.19063 277.3875Q80.19063 280.91876 81.00313 282.09064Q81.83125 283.2469 83.05 283.2469Q84.25313 283.2469 85.08125 282.075Q85.90938 280.90314 85.90938 277.3875Q85.90938 273.85626 85.08125 272.7Q84.25313 271.52814 83.03438 271.52814Q81.81563 271.52814 81.09688 272.5594Q80.19063 273.85626 80.19063 277.3875ZM90.3625 284.45L90.3625 282.45L92.3625 282.45L92.3625 284.45L90.3625 284.45ZM95.37813 277.3875Q95.37813 274.85626 95.89375 273.3094Q96.425 271.7469 97.45625 270.91876Q98.4875 270.075 100.05 270.075Q101.20625 270.075 102.06563 270.54376Q102.94063 270.9969 103.50313 271.8719Q104.06563 272.7469 104.39375 274.0125Q104.72188 275.2625 104.72188 277.3875Q104.72188 279.90314 104.19063 281.45Q103.675 282.9969 102.64375 283.85626Q101.62813 284.7 100.05 284.7Q97.97188 284.7 96.8 283.21564Q95.37813 281.41876 95.37813 277.3875ZM97.19063 277.3875Q97.19063 280.91876 98.00313 282.09064Q98.83125 283.2469 100.05 283.2469Q101.25313 283.2469 102.08125 282.075Q102.90938 280.90314 102.90938 277.3875Q102.90938 273.85626 102.08125 272.7Q101.25313 271.52814 100.03438 271.52814Q98.81563 271.52814 98.09688 272.5594Q97.19063 273.85626 97.19063 277.3875Z" fill-rule="nonzero"/><path fill="#000000" d="M67.37813 228.06667L69.22188 227.91042Q69.425 229.25417 70.175 229.94167Q70.925 230.61354 71.9875 230.61354Q73.25313 230.61354 74.12813 229.66042Q75.00313 228.70729 75.00313 227.11354Q75.00313 225.61354 74.15938 224.75417Q73.31563 223.87917 71.95625 223.87917Q71.09688 223.87917 70.40938 224.26979Q69.7375 224.64479 69.34688 225.26979L67.69063 225.05104L69.08125 217.69167L76.20625 217.69167L76.20625 219.37917L70.4875 219.37917L69.72188 223.22292Q71.00313 222.31667 72.425 222.31667Q74.3 222.31667 75.58125 223.62917Q76.87813 224.92604 76.87813 226.95729Q76.87813 228.91042 75.7375 230.31667Q74.3625 232.06667 71.9875 232.06667Q70.03438 232.06667 68.78438 230.97292Q67.55 229.87917 67.37813 228.06667ZM85.00313 231.81667L83.2375 231.81667L83.2375 220.61354Q82.6125 221.22292 81.58125 221.83229Q80.55 222.42604 79.72188 222.73854L79.72188 221.03542Q81.20625 220.34792 82.3 219.36354Q83.40938 218.36354 83.8625 217.44167L85.00313 217.44167L85.00313 231.81667ZM90.3625 231.81667L90.3625 229.81667L92.3625 229.81667L92.3625 231.81667L90.3625 231.81667ZM95.37813 224.75417Q95.37813 222.22292 95.89375 220.67604Q96.425 219.11354 97.45625 218.28542Q98.4875 217.44167 100.05 217.44167Q101.20625 217.44167 102.06563 217.91042Q102.94063 218.36354 103.50313 219.23854Q104.06563 220.11354 104.39375 221.37917Q104.72188 222.62917 104.72188 224.75417Q104.72188 227.26979 104.19063 228.81667Q103.675 230.36354 102.64375 231.22292Q101.62813 232.06667 100.05 232.06667Q97.97188 232.06667 96.8 230.58229Q95.37813 228.78542 95.37813 224.75417ZM97.19063 224.75417Q97.19063 228.28542 98.00313 229.45729Q98.83125 230.61354 100.05 230.61354Q101.25313 230.61354 102.08125 229.44167Q102.90938 228.26979 102.90938 224.75417Q102.90938 221.22292 102.08125 220.06667Q101.25313 218.89479 100.03438 218.89479Q98.81563 218.89479 98.09688 219.92604Q97.19063 221.22292 97.19063 224.75417Z" fill-rule="nonzero"/><path fill="#000000" d="M67.37813 175.43333L69.22188 175.27708Q69.425 176.62083 70.175 177.30833Q70.925 177.98021 71.9875 177.98021Q73.25313 177.98021 74.12813 177.02708Q75.00313 176.07396 75.00313 174.48021Q75.00313 172.98021 74.15938 172.12083Q73.31563 171.24583 71.95625 171.24583Q71.09688 171.24583 70.40938 171.63646Q69.7375 172.01146 69.34688 172.63646L67.69063 172.41771L69.08125 165.05833L76.20625 165.05833L76.20625 166.74583L70.4875 166.74583L69.72188 170.58958Q71.00313 169.68333 72.425 169.68333Q74.3 169.68333 75.58125 170.99583Q76.87813 172.29271 76.87813 174.32396Q76.87813 176.27708 75.7375 177.68333Q74.3625 179.43333 71.9875 179.43333Q70.03438 179.43333 68.78438 178.33958Q67.55 177.24583 67.37813 175.43333ZM87.6125 177.49583L87.6125 179.18333L78.15938 179.18333Q78.14375 178.54271 78.3625 177.96458Q78.72188 176.99583 79.51875 176.05833Q80.31563 175.12083 81.81563 173.88646Q84.15938 171.98021 84.97188 170.87083Q85.8 169.74583 85.8 168.74583Q85.8 167.69896 85.05 166.98021Q84.3 166.26146 83.09688 166.26146Q81.83125 166.26146 81.06563 167.02708Q80.3 167.79271 80.3 169.13646L78.4875 168.94896Q78.675 166.93333 79.87813 165.87083Q81.09688 164.80833 83.14375 164.80833Q85.19063 164.80833 86.39375 165.94896Q87.59688 167.08958 87.59688 168.77708Q87.59688 169.63646 87.2375 170.48021Q86.89375 171.30833 86.08125 172.23021Q85.26875 173.13646 83.37813 174.74583Q81.78438 176.07396 81.33125 176.54271Q80.89375 177.01146 80.59688 177.49583L87.6125 177.49583ZM90.3625 179.18333L90.3625 177.18333L92.3625 177.18333L92.3625 179.18333L90.3625 179.18333ZM95.37813 172.12083Q95.37813 169.58958 95.89375 168.04271Q96.425 166.48021 97.45625 165.65208Q98.4875 164.80833 100.05 164.80833Q101.20625 164.80833 102.06563 165.27708Q102.94063 165.73021 103.50313 166.60521Q104.06563 167.48021 104.39375 168.74583Q104.72188 169.99583 104.72188 172.12083Q104.72188 174.63646 104.19063 176.18333Q103.675 177.73021 102.64375 178.58958Q101.62813 179.43333 100.05 179.43333Q97.97188 179.43333 96.8 177.94896Q95.37813 176.15208 95.37813 172.12083ZM97.19063 172.12083Q97.19063 175.65208 98.00313 176.82396Q98.83125 177.98021 100.05 177.98021Q101.25313 177.98021 102.08125 176.80833Q102.90938 175.63646 102.90938 172.12083Q102.90938 168.58958 102.08125 167.43333Q101.25313 166.26146 100.03438 166.26146Q98.81563 166.26146 98.09688 167.29271Q97.19063 168.58958 97.19063 172.12083Z" fill-rule="nonzero"/><path fill="#000000" d="M67.37813 122.8L69.22188 122.64375Q69.425 123.9875 70.175 124.675Q70.925 125.34688 71.9875 125.34688Q73.25313 125.34688 74.12813 124.39375Q75.00313 123.44063 75.00313 121.84688Q75.00313 120.34688 74.15938 119.4875Q73.31563 118.6125 71.95625 118.6125Q71.09688 118.6125 70.40938 119.00313Q69.7375 119.37813 69.34688 120.00313L67.69063 119.78438L69.08125 112.425L76.20625 112.425L76.20625 114.1125L70.4875 114.1125L69.72188 117.95625Q71.00313 117.05 72.425 117.05Q74.3 117.05 75.58125 118.3625Q76.87813 119.65938 76.87813 121.69063Q76.87813 123.64375 75.7375 125.05Q74.3625 126.8 71.9875 126.8Q70.03438 126.8 68.78438 125.70625Q67.55 124.6125 67.37813 122.8ZM78.39375 122.76875L80.14375 122.53438Q80.45625 124.03438 81.175 124.69063Q81.90938 125.34688 82.95625 125.34688Q84.19063 125.34688 85.03438 124.4875Q85.89375 123.62813 85.89375 122.3625Q85.89375 121.14375 85.09688 120.3625Q84.31563 119.58125 83.09688 119.58125Q82.59688 119.58125 81.8625 119.76875L82.05 118.22188Q82.22188 118.25313 82.33125 118.25313Q83.45625 118.25313 84.34688 117.675Q85.25313 117.08125 85.25313 115.8625Q85.25313 114.89375 84.59688 114.25313Q83.94063 113.6125 82.90938 113.6125Q81.89375 113.6125 81.20625 114.26875Q80.51875 114.90938 80.33125 116.19063L78.56563 115.87813Q78.89375 114.1125 80.03438 113.14375Q81.175 112.175 82.87813 112.175Q84.05 112.175 85.03438 112.675Q86.01875 113.175 86.53438 114.05Q87.06563 114.925 87.06563 115.89375Q87.06563 116.81563 86.56563 117.58125Q86.06563 118.34688 85.09688 118.8Q86.3625 119.08125 87.06563 120.01875Q87.76875 120.94063 87.76875 122.31563Q87.76875 124.19063 86.39375 125.50313Q85.03438 126.8 82.94063 126.8Q81.05 126.8 79.8 125.675Q78.56563 124.55 78.39375 122.76875ZM90.3625 126.55L90.3625 124.55L92.3625 124.55L92.3625 126.55L90.3625 126.55ZM95.37813 119.4875Q95.37813 116.95625 95.89375 115.40938Q96.425 113.84688 97.45625 113.01875Q98.4875 112.175 100.05 112.175Q101.20625 112.175 102.06563 112.64375Q102.94063 113.09688 103.50313 113.97188Q104.06563 114.84688 104.39375 116.1125Q104.72188 117.3625 104.72188 119.4875Q104.72188 122.00313 104.19063 123.55Q103.675 125.09688 102.64375 125.95625Q101.62813 126.8 100.05 126.8Q97.97188 126.8 96.8 125.31563Q95.37813 123.51875 95.37813 119.4875ZM97.19063 119.4875Q97.19063 123.01875 98.00313 124.19063Q98.83125 125.34688 100.05 125.34688Q101.25313 125.34688 102.08125 124.175Q102.90938 123.00313 102.90938 119.4875Q102.90938 115.95625 102.08125 114.8Q101.25313 113.62813 100.03438 113.62813Q98.81563 113.62813 98.09688 114.65938Q97.19063 115.95625 97.19063 119.4875Z" fill-rule="nonzero"/><path fill="#000000" d="M67.37813 70.166664L69.22188 70.010414Q69.425 71.354164 70.175 72.041664Q70.925 72.71354 71.9875 72.71354Q73.25313 72.71354 74.12813 71.760414Q75.00313 70.80729 75.00313 69.21354Q75.00313 67.71354 74.15938 66.854164Q73.31563 65.979164 71.95625 65.979164Q71.09688 65.979164 70.40938 66.36979Q69.7375 66.74479 69.34688 67.36979L67.69063 67.15104L69.08125 59.791664L76.20625 59.791664L76.20625 61.479164L70.4875 61.479164L69.72188 65.322914Q71.00313 64.416664 72.425 64.416664Q74.3 64.416664 75.58125 65.729164Q76.87813 67.02604 76.87813 69.05729Q76.87813 71.010414 75.7375 72.416664Q74.3625 74.166664 71.9875 74.166664Q70.03438 74.166664 68.78438 73.072914Q67.55 71.979164 67.37813 70.166664ZM84.01875 73.916664L84.01875 70.49479L77.8 70.49479L77.8 68.86979L84.33125 59.604164L85.76875 59.604164L85.76875 68.86979L87.70625 68.86979L87.70625 70.49479L85.76875 70.49479L85.76875 73.916664L84.01875 73.916664ZM84.01875 68.86979L84.01875 62.416664L79.53438 68.86979L84.01875 68.86979ZM90.3625 73.916664L90.3625 71.916664L92.3625 71.916664L92.3625 73.916664L90.3625 73.916664ZM95.37813 66.854164Q95.37813 64.322914 95.89375 62.77604Q96.425 61.21354 97.45625 60.385414Q98.4875 59.541664 100.05 59.541664Q101.20625 59.541664 102.06563 60.010414Q102.94063 60.46354 103.50313 61.33854Q104.06563 62.21354 104.39375 63.479164Q104.72188 64.729164 104.72188 66.854164Q104.72188 69.36979 104.19063 70.916664Q103.675 72.46354 102.64375 73.322914Q101.62813 74.166664 100.05 74.166664Q97.97188 74.166664 96.8 72.68229Q95.37813 70.885414 95.37813 66.854164ZM97.19063 66.854164Q97.19063 70.385414 98.00313 71.55729Q98.83125 72.71354 100.05 72.71354Q101.25313 72.71354 102.08125 71.541664Q102.90938 70.36979 102.90938 66.854164Q102.90938 63.322914 102.08125 62.166664Q101.25313 60.99479 100.03438 60.99479Q98.81563 60.99479 98.09688 62.02604Q97.19063 63.322914 97.19063 66.854164Z" fill-rule="nonzero"/><path fill="#000000" d="M163.84805 300.45L162.4418 300.45L162.4418 291.48126Q161.92618 291.96564 161.09805 292.45Q160.28555 292.9344 159.6293 293.1844L159.6293 291.825Q160.80118 291.2625 161.67618 290.48126Q162.5668 289.6844 162.9418 288.95L163.84805 288.95L163.84805 300.45ZM167.55118 294.79376Q167.55118 292.7625 167.95743 291.52814Q168.3793 290.29376 169.20743 289.6219Q170.03555 288.95 171.28555 288.95Q172.20743 288.95 172.89493 289.325Q173.59805 289.6844 174.05118 290.3875Q174.5043 291.09064 174.7543 292.09064Q175.01993 293.09064 175.01993 294.79376Q175.01993 296.8094 174.59805 298.0594Q174.1918 299.29376 173.36368 299.98126Q172.53555 300.65314 171.28555 300.65314Q169.6293 300.65314 168.67618 299.45Q167.55118 298.02814 167.55118 294.79376ZM168.98868 294.79376Q168.98868 297.6219 169.64493 298.5594Q170.3168 299.48126 171.28555 299.48126Q172.2543 299.48126 172.91055 298.54376Q173.5668 297.60626 173.5668 294.79376Q173.5668 291.96564 172.91055 291.04376Q172.2543 290.10626 171.26993 290.10626Q170.30118 290.10626 169.72305 290.9344Q168.98868 291.98126 168.98868 294.79376ZM176.55118 294.79376Q176.55118 292.7625 176.95743 291.52814Q177.3793 290.29376 178.20743 289.6219Q179.03555 288.95 180.28555 288.95Q181.20743 288.95 181.89493 289.325Q182.59805 289.6844 183.05118 290.3875Q183.5043 291.09064 183.7543 292.09064Q184.01993 293.09064 184.01993 294.79376Q184.01993 296.8094 183.59805 298.0594Q183.1918 299.29376 182.36368 299.98126Q181.53555 300.65314 180.28555 300.65314Q178.6293 300.65314 177.67618 299.45Q176.55118 298.02814 176.55118 294.79376ZM177.98868 294.79376Q177.98868 297.6219 178.64493 298.5594Q179.3168 299.48126 180.28555 299.48126Q181.2543 299.48126 181.91055 298.54376Q182.5668 297.60626 182.5668 294.79376Q182.5668 291.96564 181.91055 291.04376Q181.2543 290.10626 180.26993 290.10626Q179.30118 290.10626 178.72305 290.9344Q177.98868 291.98126 177.98868 294.79376ZM185.8168 291.7469Q185.8168 290.5125 186.42618 289.65314Q187.05118 288.79376 188.22305 288.79376Q189.30118 288.79376 190.0043 289.575Q190.70743 290.34064 190.70743 291.825Q190.70743 293.27814 189.98868 294.075Q189.28555 294.85626 188.23868 294.85626Q187.1918 294.85626 186.5043 294.09064Q185.8168 293.3094 185.8168 291.7469ZM188.2543 289.7625Q187.73868 289.7625 187.3793 290.21564Q187.03555 290.66876 187.03555 291.8875Q187.03555 292.98126 187.3793 293.4344Q187.73868 293.8875 188.2543 293.8875Q188.78555 293.8875 189.1293 293.4344Q189.48868 292.98126 189.48868 291.77814Q189.48868 290.66876 189.1293 290.21564Q188.78555 289.7625 188.2543 289.7625ZM188.26993 300.8719L194.53555 288.79376L195.67618 288.79376L189.42618 300.8719L188.26993 300.8719ZM193.22305 297.7625Q193.22305 296.52814 193.83243 295.66876Q194.45743 294.8094 195.6293 294.8094Q196.70743 294.8094 197.41055 295.59064Q198.1293 296.35626 198.1293 297.84064Q198.1293 299.29376 197.41055 300.09064Q196.6918 300.8719 195.64493 300.8719Q194.59805 300.8719 193.91055 300.09064Q193.22305 299.3094 193.22305 297.7625ZM195.67618 295.77814Q195.14493 295.77814 194.78555 296.23126Q194.4418 296.6844 194.4418 297.90314Q194.4418 298.9969 194.78555 299.45Q195.14493 299.90314 195.66055 299.90314Q196.20743 299.90314 196.55118 299.45Q196.89493 298.9969 196.89493 297.79376Q196.89493 296.6844 196.53555 296.23126Q196.1918 295.77814 195.67618 295.77814Z" fill-rule="nonzero"/><path fill="#000000" d="M243.22539 300.45L243.22539 288.9969L248.30351 288.9969Q249.83476 288.9969 250.63164 289.3094Q251.42851 289.60626 251.89726 290.3875Q252.38164 291.16876 252.38164 292.1219Q252.38164 293.34064 251.58476 294.1844Q250.80351 295.0125 249.14726 295.23126Q249.75664 295.52814 250.06914 295.8094Q250.72539 296.41876 251.31914 297.325L253.31914 300.45L251.41289 300.45L249.89726 298.0594Q249.22539 297.02814 248.78789 296.48126Q248.36601 295.9344 248.02226 295.71564Q247.69414 295.4969 247.33476 295.41876Q247.08476 295.35626 246.49101 295.35626L244.74101 295.35626L244.74101 300.45L243.22539 300.45ZM244.74101 294.04376L247.99101 294.04376Q249.03789 294.04376 249.61601 293.84064Q250.20976 293.6219 250.50664 293.15314Q250.81914 292.66876 250.81914 292.1219Q250.81914 291.3094 250.22539 290.79376Q249.63164 290.2625 248.36601 290.2625L244.74101 290.2625L244.74101 294.04376ZM259.42853 299.41876Q258.64728 300.09064 257.92853 300.3719Q257.20978 300.6375 256.38165 300.6375Q255.00664 300.6375 254.27226 299.96564Q253.53789 299.29376 253.53789 298.2625Q253.53789 297.65314 253.81914 297.15314Q254.10039 296.6375 254.53789 296.34064Q254.99101 296.02814 255.55351 295.8719Q255.97539 295.7625 256.80353 295.66876Q258.50665 295.46564 259.31915 295.1844Q259.31915 294.8875 259.31915 294.8094Q259.31915 293.95 258.92853 293.60626Q258.38165 293.1219 257.31915 293.1219Q256.33478 293.1219 255.85039 293.48126Q255.38164 293.825 255.16289 294.7L253.78789 294.5125Q253.97539 293.6375 254.39726 293.09064Q254.83476 292.54376 255.64726 292.2625Q256.45978 291.96564 257.52228 291.96564Q258.58478 291.96564 259.24103 292.21564Q259.9129 292.46564 260.2254 292.84064Q260.5379 293.21564 260.6629 293.79376Q260.74103 294.15314 260.74103 295.09064L260.74103 296.96564Q260.74103 298.9344 260.81915 299.45Q260.9129 299.96564 261.17853 300.45L259.70978 300.45Q259.49103 300.0125 259.42853 299.41876ZM259.31915 296.27814Q258.55353 296.59064 257.02228 296.8094Q256.14728 296.9344 255.78789 297.09064Q255.42851 297.2469 255.22539 297.5594Q255.03789 297.85626 255.03789 298.21564Q255.03789 298.77814 255.45976 299.15314Q255.89726 299.52814 256.70978 299.52814Q257.52228 299.52814 258.14728 299.1844Q258.7879 298.825 259.08478 298.2Q259.31915 297.73126 259.31915 296.79376L259.31915 296.27814ZM263.02228 300.45L263.02228 292.15314L264.2879 292.15314L264.2879 293.325Q265.19415 291.96564 266.92853 291.96564Q267.67853 291.96564 268.30353 292.23126Q268.92853 292.4969 269.24103 292.9344Q269.55353 293.3719 269.67853 293.98126Q269.75665 294.3719 269.75665 295.34064L269.75665 300.45L268.3504 300.45L268.3504 295.40314Q268.3504 294.54376 268.17853 294.1219Q268.02228 293.6844 267.6004 293.4344Q267.19415 293.1844 266.63165 293.1844Q265.7254 293.1844 265.06915 293.7625Q264.42853 294.325 264.42853 295.91876L264.42853 300.45L263.02228 300.45ZM276.39728 300.45L276.39728 299.40314Q275.61603 300.6375 274.08478 300.6375Q273.08478 300.6375 272.25665 300.09064Q271.42853 299.54376 270.95978 298.5594Q270.50665 297.575 270.50665 296.3094Q270.50665 295.0594 270.9129 294.0594Q271.33478 293.04376 272.1629 292.5125Q272.99103 291.96564 274.02228 291.96564Q274.77228 291.96564 275.3504 292.27814Q275.94415 292.59064 276.30353 293.10626L276.30353 288.9969L277.70978 288.9969L277.70978 300.45L276.39728 300.45ZM271.95978 296.3094Q271.95978 297.90314 272.63165 298.7Q273.30353 299.48126 274.20978 299.48126Q275.13165 299.48126 275.77228 298.73126Q276.42853 297.96564 276.42853 296.41876Q276.42853 294.71564 275.77228 293.91876Q275.11603 293.1219 274.14728 293.1219Q273.20978 293.1219 272.58478 293.8875Q271.95978 294.65314 271.95978 296.3094ZM279.49103 296.29376Q279.49103 293.9969 280.77228 292.8875Q281.8504 291.96564 283.38165 291.96564Q285.1004 291.96564 286.17853 293.09064Q287.27228 294.2 287.27228 296.1844Q287.27228 297.77814 286.7879 298.7Q286.30353 299.6219 285.38165 300.1375Q284.4754 300.6375 283.38165 300.6375Q281.64728 300.6375 280.56915 299.52814Q279.49103 298.40314 279.49103 296.29376ZM280.94415 296.29376Q280.94415 297.8875 281.63165 298.6844Q282.33478 299.48126 283.38165 299.48126Q284.42853 299.48126 285.11603 298.6844Q285.81915 297.8875 285.81915 296.2469Q285.81915 294.71564 285.11603 293.91876Q284.42853 293.1219 283.38165 293.1219Q282.33478 293.1219 281.63165 293.91876Q280.94415 294.7 280.94415 296.29376ZM289.02228 300.45L289.02228 292.15314L290.27228 292.15314L290.27228 293.3094Q290.6629 292.7 291.30353 292.34064Q291.95978 291.96564 292.7879 291.96564Q293.70978 291.96564 294.30353 292.35626Q294.89728 292.73126 295.13165 293.41876Q296.11603 291.96564 297.69415 291.96564Q298.92853 291.96564 299.58478 292.65314Q300.25665 293.325 300.25665 294.7469L300.25665 300.45L298.86603 300.45L298.86603 295.21564Q298.86603 294.3719 298.7254 294.0125Q298.58478 293.6375 298.2254 293.41876Q297.86603 293.1844 297.38165 293.1844Q296.50665 293.1844 295.92853 293.7625Q295.3504 294.34064 295.3504 295.6219L295.3504 300.45L293.94415 300.45L293.94415 295.0594Q293.94415 294.1219 293.6004 293.65314Q293.25665 293.1844 292.4754 293.1844Q291.88165 293.1844 291.38165 293.4969Q290.88165 293.8094 290.64728 294.41876Q290.42853 295.0125 290.42853 296.1375L290.42853 300.45L289.02228 300.45Z" fill-rule="nonzero"/><path fill="#000000" d="M323.7121 297.45L325.18085 297.325Q325.35272 298.40314 325.94647 298.95Q326.54022 299.48126 327.38397 299.48126Q328.3996 299.48126 329.10272 298.71564Q329.80585 297.95 329.80585 296.6844Q329.80585 295.48126 329.13397 294.79376Q328.4621 294.09064 327.36835 294.09064Q326.68085 294.09064 326.13397 294.40314Q325.5871 294.71564 325.2746 295.2L323.9621 295.02814L325.07147 289.15314L330.75897 289.15314L330.75897 290.4969L326.19647 290.4969L325.57147 293.575Q326.60272 292.85626 327.74335 292.85626Q329.24335 292.85626 330.2746 293.90314Q331.30585 294.9344 331.30585 296.5594Q331.30585 298.1219 330.3996 299.2469Q329.29022 300.65314 327.38397 300.65314Q325.82147 300.65314 324.8371 299.77814Q323.85272 298.8875 323.7121 297.45ZM332.97772 291.7469Q332.97772 290.5125 333.5871 289.65314Q334.2121 288.79376 335.38397 288.79376Q336.4621 288.79376 337.16522 289.575Q337.86835 290.34064 337.86835 291.825Q337.86835 293.27814 337.1496 294.075Q336.44647 294.85626 335.3996 294.85626Q334.35272 294.85626 333.66522 294.09064Q332.97772 293.3094 332.97772 291.7469ZM335.41522 289.7625Q334.8996 289.7625 334.54022 290.21564Q334.19647 290.66876 334.19647 291.8875Q334.19647 292.98126 334.54022 293.4344Q334.8996 293.8875 335.41522 293.8875Q335.94647 293.8875 336.29022 293.4344Q336.6496 292.98126 336.6496 291.77814Q336.6496 290.66876 336.29022 290.21564Q335.94647 289.7625 335.41522 289.7625ZM335.43085 300.8719L341.69647 288.79376L342.8371 288.79376L336.5871 300.8719L335.43085 300.8719ZM340.38397 297.7625Q340.38397 296.52814 340.99335 295.66876Q341.61835 294.8094 342.79022 294.8094Q343.86835 294.8094 344.57147 295.59064Q345.29022 296.35626 345.29022 297.84064Q345.29022 299.29376 344.57147 300.09064Q343.85272 300.8719 342.80585 300.8719Q341.75897 300.8719 341.07147 300.09064Q340.38397 299.3094 340.38397 297.7625ZM342.8371 295.77814Q342.30585 295.77814 341.94647 296.23126Q341.60272 296.6844 341.60272 297.90314Q341.60272 298.9969 341.94647 299.45Q342.30585 299.90314 342.82147 299.90314Q343.36835 299.90314 343.7121 299.45Q344.05585 298.9969 344.05585 297.79376Q344.05585 296.6844 343.69647 296.23126Q343.35272 295.77814 342.8371 295.77814ZM351.2121 300.45L351.2121 288.9969L352.72772 288.9969L352.72772 299.09064L358.36835 299.09064L358.36835 300.45L351.2121 300.45ZM360.30585 300.45L360.30585 288.9969L368.5871 288.9969L368.5871 290.34064L361.82147 290.34064L361.82147 293.85626L368.16522 293.85626L368.16522 295.2L361.82147 295.2L361.82147 299.09064L368.85272 299.09064L368.85272 300.45L360.30585 300.45ZM370.75897 296.7625L372.19647 296.6375Q372.29022 297.4969 372.66522 298.0594Q373.04022 298.60626 373.82147 298.95Q374.60272 299.27814 375.57147 299.27814Q376.44647 299.27814 377.10272 299.02814Q377.7746 298.7625 378.0871 298.325Q378.41522 297.8719 378.41522 297.34064Q378.41522 296.79376 378.10272 296.40314Q377.79022 295.9969 377.07147 295.71564Q376.61835 295.54376 375.04022 295.16876Q373.4621 294.77814 372.82147 294.45Q372.00897 294.0125 371.60272 293.3875Q371.19647 292.7469 371.19647 291.95Q371.19647 291.09064 371.68085 290.34064Q372.18085 289.575 373.11835 289.1844Q374.07147 288.79376 375.22772 288.79376Q376.50897 288.79376 377.47772 289.21564Q378.44647 289.6219 378.9621 290.41876Q379.49335 291.21564 379.54022 292.21564L378.0871 292.325Q377.9621 291.2469 377.29022 290.7Q376.61835 290.1375 375.29022 290.1375Q373.91522 290.1375 373.29022 290.6375Q372.66522 291.1375 372.66522 291.85626Q372.66522 292.46564 373.10272 292.8719Q373.54022 293.2625 375.38397 293.6844Q377.24335 294.10626 377.93085 294.41876Q378.93085 294.8719 379.3996 295.59064Q379.88397 296.29376 379.88397 297.21564Q379.88397 298.1219 379.35272 298.9344Q378.8371 299.7469 377.85272 300.2Q376.86835 300.65314 375.6496 300.65314Q374.0871 300.65314 373.04022 300.2Q371.99335 299.73126 371.38397 298.825Q370.79022 297.91876 370.75897 296.7625ZM381.75897 296.7625L383.19647 296.6375Q383.29022 297.4969 383.66522 298.0594Q384.04022 298.60626 384.82147 298.95Q385.60272 299.27814 386.57147 299.27814Q387.44647 299.27814 388.10272 299.02814Q388.7746 298.7625 389.0871 298.325Q389.41522 297.8719 389.41522 297.34064Q389.41522 296.79376 389.10272 296.40314Q388.79022 295.9969 388.07147 295.71564Q387.61835 295.54376 386.04022 295.16876Q384.4621 294.77814 383.82147 294.45Q383.00897 294.0125 382.60272 293.3875Q382.19647 292.7469 382.19647 291.95Q382.19647 291.09064 382.68085 290.34064Q383.18085 289.575 384.11835 289.1844Q385.07147 288.79376 386.22772 288.79376Q387.50897 288.79376 388.47772 289.21564Q389.44647 289.6219 389.9621 290.41876Q390.49335 291.21564 390.54022 292.21564L389.0871 292.325Q388.9621 291.2469 388.29022 290.7Q387.61835 290.1375 386.29022 290.1375Q384.91522 290.1375 384.29022 290.6375Q383.66522 291.1375 383.66522 291.85626Q383.66522 292.46564 384.10272 292.8719Q384.54022 293.2625 386.38397 293.6844Q388.24335 294.10626 388.93085 294.41876Q389.93085 294.8719 390.3996 295.59064Q390.88397 296.29376 390.88397 297.21564Q390.88397 298.1219 390.35272 298.9344Q389.8371 299.7469 388.85272 300.2Q387.86835 300.65314 386.6496 300.65314Q385.0871 300.65314 384.04022 300.2Q382.99335 299.73126 382.38397 298.825Q381.79022 297.91876 381.75897 296.7625ZM392.55585 297.0125L392.55585 295.59064L396.86835 295.59064L396.86835 297.0125L392.55585 297.0125ZM401.19647 300.45L401.19647 290.34064L397.41522 290.34064L397.41522 288.9969L406.49335 288.9969L406.49335 290.34064L402.7121 290.34064L402.7121 300.45L401.19647 300.45Z" fill-rule="nonzero"/><path fill="#000000" d="M423.79257 297.45L425.26132 297.325Q425.4332 298.40314 426.02695 298.95Q426.6207 299.48126 427.46445 299.48126Q428.48007 299.48126 429.1832 298.71564Q429.88632 297.95 429.88632 296.6844Q429.88632 295.48126 429.21445 294.79376Q428.54257 294.09064 427.44882 294.09064Q426.76132 294.09064 426.21445 294.40314Q425.66757 294.71564 425.35507 295.2L424.04257 295.02814L425.15195 289.15314L430.83945 289.15314L430.83945 290.4969L426.27695 290.4969L425.65195 293.575Q426.6832 292.85626 427.82382 292.85626Q429.32382 292.85626 430.35507 293.90314Q431.38632 294.9344 431.38632 296.5594Q431.38632 298.1219 430.48007 299.2469Q429.3707 300.65314 427.46445 300.65314Q425.90195 300.65314 424.91757 299.77814Q423.9332 298.8875 423.79257 297.45ZM433.0582 291.7469Q433.0582 290.5125 433.66757 289.65314Q434.29257 288.79376 435.46445 288.79376Q436.54257 288.79376 437.2457 289.575Q437.94882 290.34064 437.94882 291.825Q437.94882 293.27814 437.23007 294.075Q436.52695 294.85626 435.48007 294.85626Q434.4332 294.85626 433.7457 294.09064Q433.0582 293.3094 433.0582 291.7469ZM435.4957 289.7625Q434.98007 289.7625 434.6207 290.21564Q434.27695 290.66876 434.27695 291.8875Q434.27695 292.98126 434.6207 293.4344Q434.98007 293.8875 435.4957 293.8875Q436.02695 293.8875 436.3707 293.4344Q436.73007 292.98126 436.73007 291.77814Q436.73007 290.66876 436.3707 290.21564Q436.02695 289.7625 435.4957 289.7625ZM435.51132 300.8719L441.77695 288.79376L442.91757 288.79376L436.66757 300.8719L435.51132 300.8719ZM440.46445 297.7625Q440.46445 296.52814 441.07382 295.66876Q441.69882 294.8094 442.8707 294.8094Q443.94882 294.8094 444.65195 295.59064Q445.3707 296.35626 445.3707 297.84064Q445.3707 299.29376 444.65195 300.09064Q443.9332 300.8719 442.88632 300.8719Q441.83945 300.8719 441.15195 300.09064Q440.46445 299.3094 440.46445 297.7625ZM442.91757 295.77814Q442.38632 295.77814 442.02695 296.23126Q441.6832 296.6844 441.6832 297.90314Q441.6832 298.9969 442.02695 299.45Q442.38632 299.90314 442.90195 299.90314Q443.44882 299.90314 443.79257 299.45Q444.13632 298.9969 444.13632 297.79376Q444.13632 296.6844 443.77695 296.23126Q443.4332 295.77814 442.91757 295.77814ZM451.29257 300.45L451.29257 288.9969L452.8082 288.9969L452.8082 299.09064L458.44882 299.09064L458.44882 300.45L451.29257 300.45ZM460.38632 300.45L460.38632 288.9969L468.66757 288.9969L468.66757 290.34064L461.90195 290.34064L461.90195 293.85626L468.2457 293.85626L468.2457 295.2L461.90195 295.2L461.90195 299.09064L468.9332 299.09064L468.9332 300.45L460.38632 300.45ZM470.83945 296.7625L472.27695 296.6375Q472.3707 297.4969 472.7457 298.0594Q473.1207 298.60626 473.90195 298.95Q474.6832 299.27814 475.65195 299.27814Q476.52695 299.27814 477.1832 299.02814Q477.85507 298.7625 478.16757 298.325Q478.4957 297.8719 478.4957 297.34064Q478.4957 296.79376 478.1832 296.40314Q477.8707 295.9969 477.15195 295.71564Q476.69882 295.54376 475.1207 295.16876Q473.54257 294.77814 472.90195 294.45Q472.08945 294.0125 471.6832 293.3875Q471.27695 292.7469 471.27695 291.95Q471.27695 291.09064 471.76132 290.34064Q472.26132 289.575 473.19882 289.1844Q474.15195 288.79376 475.3082 288.79376Q476.58945 288.79376 477.5582 289.21564Q478.52695 289.6219 479.04257 290.41876Q479.57382 291.21564 479.6207 292.21564L478.16757 292.325Q478.04257 291.2469 477.3707 290.7Q476.69882 290.1375 475.3707 290.1375Q473.9957 290.1375 473.3707 290.6375Q472.7457 291.1375 472.7457 291.85626Q472.7457 292.46564 473.1832 292.8719Q473.6207 293.2625 475.46445 293.6844Q477.32382 294.10626 478.01132 294.41876Q479.01132 294.8719 479.48007 295.59064Q479.96445 296.29376 479.96445 297.21564Q479.96445 298.1219 479.4332 298.9344Q478.91757 299.7469 477.9332 300.2Q476.94882 300.65314 475.73007 300.65314Q474.16757 300.65314 473.1207 300.2Q472.07382 299.73126 471.46445 298.825Q470.8707 297.91876 470.83945 296.7625ZM481.83945 296.7625L483.27695 296.6375Q483.3707 297.4969 483.7457 298.0594Q484.1207 298.60626 484.90195 298.95Q485.6832 299.27814 486.65195 299.27814Q487.52695 299.27814 488.1832 299.02814Q488.85507 298.7625 489.16757 298.325Q489.4957 297.8719 489.4957 297.34064Q489.4957 296.79376 489.1832 296.40314Q488.8707 295.9969 488.15195 295.71564Q487.69882 295.54376 486.1207 295.16876Q484.54257 294.77814 483.90195 294.45Q483.08945 294.0125 482.6832 293.3875Q482.27695 292.7469 482.27695 291.95Q482.27695 291.09064 482.76132 290.34064Q483.26132 289.575 484.19882 289.1844Q485.15195 288.79376 486.3082 288.79376Q487.58945 288.79376 488.5582 289.21564Q489.52695 289.6219 490.04257 290.41876Q490.57382 291.21564 490.6207 292.21564L489.16757 292.325Q489.04257 291.2469 488.3707 290.7Q487.69882 290.1375 486.3707 290.1375Q484.9957 290.1375 484.3707 290.6375Q483.7457 291.1375 483.7457 291.85626Q483.7457 292.46564 484.1832 292.8719Q484.6207 293.2625 486.46445 293.6844Q488.32382 294.10626 489.01132 294.41876Q490.01132 294.8719 490.48007 295.59064Q490.96445 296.29376 490.96445 297.21564Q490.96445 298.1219 490.4332 298.9344Q489.91757 299.7469 488.9332 300.2Q487.94882 300.65314 486.73007 300.65314Q485.16757 300.65314 484.1207 300.2Q483.07382 299.73126 482.46445 298.825Q481.8707 297.91876 481.83945 296.7625Z" fill-rule="nonzero"/><path fill="#757575" d="M46.1875 37.55L46.1875 24.925L41.46875 24.925L41.46875 23.2375L52.8125 23.2375L52.8125 24.925L48.078125 24.925L48.078125 37.55L46.1875 37.55ZM54.296875 37.55L54.296875 27.175L55.875 27.175L55.875 28.753124Q56.484375 27.64375 57.0 27.3Q57.515625 26.940624 58.125 26.940624Q59.015625 26.940624 59.9375 27.503124L59.328125 29.14375Q58.6875 28.753124 58.046875 28.753124Q57.46875 28.753124 57.0 29.1125Q56.546875 29.45625 56.34375 30.065624Q56.0625 31.003124 56.0625 32.1125L56.0625 37.55L54.296875 37.55ZM68.09375 36.26875Q67.109375 37.096874 66.203125 37.440624Q65.296875 37.784374 64.265625 37.784374Q62.5625 37.784374 61.640625 36.95625Q60.71875 36.1125 60.71875 34.815624Q60.71875 34.05 61.0625 33.425Q61.421875 32.8 61.984375 32.425Q62.546875 32.034374 63.25 31.83125Q63.765625 31.70625 64.8125 31.565624Q66.9375 31.315624 67.9375 30.971874Q67.953125 30.6125 67.953125 30.503124Q67.953125 29.440624 67.453125 28.9875Q66.78125 28.39375 65.453125 28.39375Q64.203125 28.39375 63.609375 28.83125Q63.03125 29.26875 62.75 30.378124L61.03125 30.14375Q61.265625 29.034374 61.796875 28.3625Q62.328125 27.675 63.34375 27.315624Q64.359375 26.940624 65.703125 26.940624Q67.03125 26.940624 67.859375 27.253124Q68.6875 27.565624 69.078125 28.05Q69.46875 28.51875 69.625 29.2375Q69.71875 29.690624 69.71875 30.8625L69.71875 33.20625Q69.71875 35.659374 69.828125 36.315624Q69.9375 36.95625 70.28125 37.55L68.4375 37.55Q68.171875 37.003124 68.09375 36.26875ZM67.9375 32.346874Q66.984375 32.7375 65.0625 33.003124Q63.984375 33.159374 63.53125 33.3625Q63.09375 33.55 62.84375 33.925Q62.59375 34.3 62.59375 34.76875Q62.59375 35.471874 63.125 35.940624Q63.65625 36.409374 64.6875 36.409374Q65.703125 36.409374 66.484375 35.971874Q67.28125 35.51875 67.65625 34.753124Q67.9375 34.14375 67.9375 32.9875L67.9375 32.346874ZM72.328125 25.253124L72.328125 23.2375L74.09375 23.2375L74.09375 25.253124L72.328125 25.253124ZM72.328125 37.55L72.328125 27.175L74.09375 27.175L74.09375 37.55L72.328125 37.55ZM76.3125 37.55L76.3125 27.175L77.90625 27.175L77.90625 28.659374Q79.046875 26.940624 81.203125 26.940624Q82.140625 26.940624 82.921875 27.284374Q83.71875 27.6125 84.109375 28.159374Q84.5 28.70625 84.65625 29.45625Q84.75 29.95625 84.75 31.175L84.75 37.55L82.984375 37.55L82.984375 31.2375Q82.984375 30.159374 82.78125 29.628124Q82.578125 29.096874 82.046875 28.784374Q81.53125 28.471874 80.828125 28.471874Q79.703125 28.471874 78.890625 29.190624Q78.078125 29.89375 78.078125 31.878124L78.078125 37.55L76.3125 37.55ZM92.46875 37.55L92.46875 23.2375L94.359375 23.2375L94.359375 35.8625L101.40625 35.8625L101.40625 37.55L92.46875 37.55ZM103.28125 37.55L103.28125 23.2375L105.03125 23.2375L105.03125 37.55L103.28125 37.55ZM114.09375 36.26875Q113.109375 37.096874 112.203125 37.440624Q111.296875 37.784374 110.265625 37.784374Q108.5625 37.784374 107.640625 36.95625Q106.71875 36.1125 106.71875 34.815624Q106.71875 34.05 107.0625 33.425Q107.421875 32.8 107.984375 32.425Q108.546875 32.034374 109.25 31.83125Q109.765625 31.70625 110.8125 31.565624Q112.9375 31.315624 113.9375 30.971874Q113.953125 30.6125 113.953125 30.503124Q113.953125 29.440624 113.453125 28.9875Q112.78125 28.39375 111.453125 28.39375Q110.203125 28.39375 109.609375 28.83125Q109.03125 29.26875 108.75 30.378124L107.03125 30.14375Q107.265625 29.034374 107.796875 28.3625Q108.328125 27.675 109.34375 27.315624Q110.359375 26.940624 111.703125 26.940624Q113.03125 26.940624 113.859375 27.253124Q114.6875 27.565624 115.078125 28.05Q115.46875 28.51875 115.625 29.2375Q115.71875 29.690624 115.71875 30.8625L115.71875 33.20625Q115.71875 35.659374 115.828125 36.315624Q115.9375 36.95625 116.28125 37.55L114.4375 37.55Q114.171875 37.003124 114.09375 36.26875ZM113.9375 32.346874Q112.984375 32.7375 111.0625 33.003124Q109.984375 33.159374 109.53125 33.3625Q109.09375 33.55 108.84375 33.925Q108.59375 34.3 108.59375 34.76875Q108.59375 35.471874 109.125 35.940624Q109.65625 36.409374 110.6875 36.409374Q111.703125 36.409374 112.484375 35.971874Q113.28125 35.51875 113.65625 34.753124Q113.9375 34.14375 113.9375 32.9875L113.9375 32.346874ZM118.3125 37.55L118.3125 27.175L119.890625 27.175L119.890625 28.628124Q120.375 27.878124 121.1875 27.409374Q122.0 26.940624 123.03125 26.940624Q124.1875 26.940624 124.921875 27.425Q125.65625 27.89375 125.96875 28.753124Q127.203125 26.940624 129.17188 26.940624Q130.71875 26.940624 131.54688 27.8Q132.375 28.659374 132.375 30.425L132.375 37.55L130.625 37.55L130.625 31.01875Q130.625 29.95625 130.45312 29.503124Q130.28125 29.034374 129.82812 28.753124Q129.39062 28.471874 128.78125 28.471874Q127.6875 28.471874 126.953125 29.20625Q126.234375 29.925 126.234375 31.51875L126.234375 37.55L124.484375 37.55L124.484375 30.815624Q124.484375 29.64375 124.046875 29.065624Q123.625 28.471874 122.640625 28.471874Q121.90625 28.471874 121.265625 28.8625Q120.640625 29.253124 120.359375 30.003124Q120.078125 30.753124 120.078125 32.175L120.078125 37.55L118.3125 37.55ZM141.09375 36.26875Q140.10938 37.096874 139.20312 37.440624Q138.29688 37.784374 137.26562 37.784374Q135.5625 37.784374 134.64062 36.95625Q133.71875 36.1125 133.71875 34.815624Q133.71875 34.05 134.0625 33.425Q134.42188 32.8 134.98438 32.425Q135.54688 32.034374 136.25 31.83125Q136.76562 31.70625 137.8125 31.565624Q139.9375 31.315624 140.9375 30.971874Q140.95312 30.6125 140.95312 30.503124Q140.95312 29.440624 140.45312 28.9875Q139.78125 28.39375 138.45312 28.39375Q137.20312 28.39375 136.60938 28.83125Q136.03125 29.26875 135.75 30.378124L134.03125 30.14375Q134.26562 29.034374 134.79688 28.3625Q135.32812 27.675 136.34375 27.315624Q137.35938 26.940624 138.70312 26.940624Q140.03125 26.940624 140.85938 27.253124Q141.6875 27.565624 142.07812 28.05Q142.46875 28.51875 142.625 29.2375Q142.71875 29.690624 142.71875 30.8625L142.71875 33.20625Q142.71875 35.659374 142.82812 36.315624Q142.9375 36.95625 143.28125 37.55L141.4375 37.55Q141.17188 37.003124 141.09375 36.26875ZM140.9375 32.346874Q139.98438 32.7375 138.0625 33.003124Q136.98438 33.159374 136.53125 33.3625Q136.09375 33.55 135.84375 33.925Q135.59375 34.3 135.59375 34.76875Q135.59375 35.471874 136.125 35.940624Q136.65625 36.409374 137.6875 36.409374Q138.70312 36.409374 139.48438 35.971874Q140.28125 35.51875 140.65625 34.753124Q140.9375 34.14375 140.9375 32.9875L140.9375 32.346874ZM154.0625 35.8625L154.0625 37.55L144.60938 37.55Q144.59375 36.909374 144.8125 36.33125Q145.17188 35.3625 145.96875 34.425Q146.76562 33.4875 148.26562 32.253124Q150.60938 30.346874 151.42188 29.2375Q152.25 28.1125 152.25 27.1125Q152.25 26.065624 151.5 25.346874Q150.75 24.628124 149.54688 24.628124Q148.28125 24.628124 147.51562 25.39375Q146.75 26.159374 146.75 27.503124L144.9375 27.315624Q145.125 25.3 146.32812 24.2375Q147.54688 23.175 149.59375 23.175Q151.64062 23.175 152.84375 24.315624Q154.04688 25.45625 154.04688 27.14375Q154.04688 28.003124 153.6875 28.846874Q153.34375 29.675 152.53125 30.596874Q151.71875 31.503124 149.82812 33.1125Q148.23438 34.440624 147.78125 34.909374Q147.34375 35.378124 147.04688 35.8625L154.0625 35.8625ZM155.64062 33.253124L155.64062 31.4875L161.03125 31.4875L161.03125 33.253124L155.64062 33.253124ZM169.45312 37.55L167.6875 37.55L167.6875 26.346874Q167.0625 26.95625 166.03125 27.565624Q165.0 28.159374 164.17188 28.471874L164.17188 26.76875Q165.65625 26.08125 166.75 25.096874Q167.85938 24.096874 168.3125 23.175L169.45312 23.175L169.45312 37.55ZM173.84375 33.76875L175.59375 33.534374Q175.90625 35.034374 176.625 35.690624Q177.35938 36.346874 178.40625 36.346874Q179.64062 36.346874 180.48438 35.4875Q181.34375 34.628124 181.34375 33.3625Q181.34375 32.14375 180.54688 31.3625Q179.76562 30.58125 178.54688 30.58125Q178.04688 30.58125 177.3125 30.76875L177.5 29.221874Q177.67188 29.253124 177.78125 29.253124Q178.90625 29.253124 179.79688 28.675Q180.70312 28.08125 180.70312 26.8625Q180.70312 25.89375 180.04688 25.253124Q179.39062 24.6125 178.35938 24.6125Q177.34375 24.6125 176.65625 25.26875Q175.96875 25.909374 175.78125 27.190624L174.01562 26.878124Q174.34375 25.1125 175.48438 24.14375Q176.625 23.175 178.32812 23.175Q179.5 23.175 180.48438 23.675Q181.46875 24.175 181.98438 25.05Q182.51562 25.925 182.51562 26.89375Q182.51562 27.815624 182.01562 28.58125Q181.51562 29.346874 180.54688 29.8Q181.8125 30.08125 182.51562 31.01875Q183.21875 31.940624 183.21875 33.315624Q183.21875 35.190624 181.84375 36.503124Q180.48438 37.8 178.39062 37.8Q176.5 37.8 175.25 36.675Q174.01562 35.55 173.84375 33.76875ZM185.46875 37.55L185.46875 23.2375L190.84375 23.2375Q192.48438 23.2375 193.46875 23.675Q194.45312 24.096874 195.01562 25.003124Q195.57812 25.909374 195.57812 26.89375Q195.57812 27.815624 195.07812 28.628124Q194.59375 29.440624 193.57812 29.925Q194.875 30.315624 195.57812 31.2375Q196.28125 32.14375 196.28125 33.39375Q196.28125 34.409374 195.84375 35.26875Q195.42188 36.128124 194.79688 36.596874Q194.17188 37.065624 193.23438 37.315624Q192.29688 37.55 190.92188 37.55L185.46875 37.55ZM187.35938 29.253124L190.45312 29.253124Q191.71875 29.253124 192.26562 29.08125Q192.98438 28.8625 193.34375 28.378124Q193.71875 27.878124 193.71875 27.1125Q193.71875 26.409374 193.375 25.8625Q193.03125 25.315624 192.39062 25.128124Q191.76562 24.925 190.21875 24.925L187.35938 24.925L187.35938 29.253124ZM187.35938 35.8625L190.92188 35.8625Q191.84375 35.8625 192.21875 35.784374Q192.875 35.675 193.3125 35.409374Q193.75 35.128124 194.03125 34.6125Q194.3125 34.08125 194.3125 33.39375Q194.3125 32.596874 193.90625 32.003124Q193.5 31.409374 192.76562 31.175Q192.03125 30.940624 190.67188 30.940624L187.35938 30.940624L187.35938 35.8625ZM203.67188 32.3625Q203.67188 29.4875 205.26562 28.096874Q206.60938 26.940624 208.53125 26.940624Q210.67188 26.940624 212.01562 28.346874Q213.375 29.753124 213.375 32.221874Q213.375 34.221874 212.78125 35.378124Q212.1875 36.51875 211.03125 37.159374Q209.89062 37.784374 208.53125 37.784374Q206.34375 37.784374 205.0 36.39375Q203.67188 34.9875 203.67188 32.3625ZM205.46875 32.3625Q205.46875 34.3625 206.32812 35.346874Q207.20312 36.33125 208.53125 36.33125Q209.84375 36.33125 210.70312 35.346874Q211.57812 34.346874 211.57812 32.3Q211.57812 30.378124 210.70312 29.39375Q209.82812 28.39375 208.53125 28.39375Q207.20312 28.39375 206.32812 29.39375Q205.46875 30.378124 205.46875 32.3625ZM215.3125 37.55L215.3125 27.175L216.90625 27.175L216.90625 28.659374Q218.04688 26.940624 220.20312 26.940624Q221.14062 26.940624 221.92188 27.284374Q222.71875 27.6125 223.10938 28.159374Q223.5 28.70625 223.65625 29.45625Q223.75 29.95625 223.75 31.175L223.75 37.55L221.98438 37.55L221.98438 31.2375Q221.98438 30.159374 221.78125 29.628124Q221.57812 29.096874 221.04688 28.784374Q220.53125 28.471874 219.82812 28.471874Q218.70312 28.471874 217.89062 29.190624Q217.07812 29.89375 217.07812 31.878124L217.07812 37.55L215.3125 37.55ZM231.64062 37.55L231.64062 23.2375L241.29688 23.2375L241.29688 24.925L233.53125 24.925L233.53125 29.3625L240.25 29.3625L240.25 31.05L233.53125 31.05L233.53125 37.55L231.64062 37.55ZM250.10938 37.55L250.10938 36.01875Q248.90625 37.784374 246.82812 37.784374Q245.90625 37.784374 245.10938 37.440624Q244.3125 37.08125 243.92188 36.55Q243.54688 36.01875 243.39062 35.2375Q243.28125 34.721874 243.28125 33.596874L243.28125 27.175L245.03125 27.175L245.03125 32.925Q245.03125 34.3 245.14062 34.784374Q245.3125 35.471874 245.84375 35.878124Q246.39062 36.26875 247.17188 36.26875Q247.96875 36.26875 248.65625 35.8625Q249.35938 35.45625 249.64062 34.76875Q249.9375 34.065624 249.9375 32.7375L249.9375 27.175L251.6875 27.175L251.6875 37.55L250.10938 37.55ZM253.28125 37.55L253.28125 23.2375L255.03125 23.2375L255.03125 37.55L253.28125 37.55ZM257.28125 37.55L257.28125 23.2375L259.03125 23.2375L259.03125 37.55L257.28125 37.55ZM267.54688 37.55L267.54688 23.2375L272.46875 23.2375Q274.14062 23.2375 275.03125 23.440624Q276.25 23.721874 277.125 24.45625Q278.25 25.425 278.8125 26.909374Q279.375 28.39375 279.375 30.315624Q279.375 31.940624 279.0 33.20625Q278.625 34.45625 278.01562 35.284374Q277.42188 36.1125 276.71875 36.596874Q276.01562 37.065624 275.01562 37.315624Q274.01562 37.55 272.70312 37.55L267.54688 37.55ZM269.4375 35.8625L272.5 35.8625Q273.90625 35.8625 274.70312 35.596874Q275.51562 35.33125 276.0 34.846874Q276.67188 34.175 277.04688 33.05Q277.42188 31.909374 277.42188 30.284374Q277.42188 28.034374 276.6875 26.83125Q275.95312 25.628124 274.89062 25.221874Q274.14062 24.925 272.45312 24.925L269.4375 24.925L269.4375 35.8625ZM288.09375 36.26875Q287.10938 37.096874 286.20312 37.440624Q285.29688 37.784374 284.26562 37.784374Q282.5625 37.784374 281.64062 36.95625Q280.71875 36.1125 280.71875 34.815624Q280.71875 34.05 281.0625 33.425Q281.42188 32.8 281.98438 32.425Q282.54688 32.034374 283.25 31.83125Q283.76562 31.70625 284.8125 31.565624Q286.9375 31.315624 287.9375 30.971874Q287.95312 30.6125 287.95312 30.503124Q287.95312 29.440624 287.45312 28.9875Q286.78125 28.39375 285.45312 28.39375Q284.20312 28.39375 283.60938 28.83125Q283.03125 29.26875 282.75 30.378124L281.03125 30.14375Q281.26562 29.034374 281.79688 28.3625Q282.32812 27.675 283.34375 27.315624Q284.35938 26.940624 285.70312 26.940624Q287.03125 26.940624 287.85938 27.253124Q288.6875 27.565624 289.07812 28.05Q289.46875 28.51875 289.625 29.2375Q289.71875 29.690624 289.71875 30.8625L289.71875 33.20625Q289.71875 35.659374 289.82812 36.315624Q289.9375 36.95625 290.28125 37.55L288.4375 37.55Q288.17188 37.003124 288.09375 36.26875ZM287.9375 32.346874Q286.98438 32.7375 285.0625 33.003124Q283.98438 33.159374 283.53125 33.3625Q283.09375 33.55 282.84375 33.925Q282.59375 34.3 282.59375 34.76875Q282.59375 35.471874 283.125 35.940624Q283.65625 36.409374 284.6875 36.409374Q285.70312 36.409374 286.48438 35.971874Q287.28125 35.51875 287.65625 34.753124Q287.9375 34.14375 287.9375 32.9875L287.9375 32.346874ZM296.15625 35.971874L296.40625 37.534374Q295.67188 37.690624 295.07812 37.690624Q294.125 37.690624 293.59375 37.39375Q293.07812 37.08125 292.85938 36.596874Q292.64062 36.096874 292.64062 34.51875L292.64062 28.55L291.35938 28.55L291.35938 27.175L292.64062 27.175L292.64062 24.6125L294.39062 23.55L294.39062 27.175L296.15625 27.175L296.15625 28.55L294.39062 28.55L294.39062 34.6125Q294.39062 35.3625 294.48438 35.58125Q294.57812 35.784374 294.78125 35.925Q295.0 36.05 295.39062 36.05Q295.67188 36.05 296.15625 35.971874ZM305.09375 36.26875Q304.10938 37.096874 303.20312 37.440624Q302.29688 37.784374 301.26562 37.784374Q299.5625 37.784374 298.64062 36.95625Q297.71875 36.1125 297.71875 34.815624Q297.71875 34.05 298.0625 33.425Q298.42188 32.8 298.98438 32.425Q299.54688 32.034374 300.25 31.83125Q300.76562 31.70625 301.8125 31.565624Q303.9375 31.315624 304.9375 30.971874Q304.95312 30.6125 304.95312 30.503124Q304.95312 29.440624 304.45312 28.9875Q303.78125 28.39375 302.45312 28.39375Q301.20312 28.39375 300.60938 28.83125Q300.03125 29.26875 299.75 30.378124L298.03125 30.14375Q298.26562 29.034374 298.79688 28.3625Q299.32812 27.675 300.34375 27.315624Q301.35938 26.940624 302.70312 26.940624Q304.03125 26.940624 304.85938 27.253124Q305.6875 27.565624 306.07812 28.05Q306.46875 28.51875 306.625 29.2375Q306.71875 29.690624 306.71875 30.8625L306.71875 33.20625Q306.71875 35.659374 306.82812 36.315624Q306.9375 36.95625 307.28125 37.55L305.4375 37.55Q305.17188 37.003124 305.09375 36.26875ZM304.9375 32.346874Q303.98438 32.7375 302.0625 33.003124Q300.98438 33.159374 300.53125 33.3625Q300.09375 33.55 299.84375 33.925Q299.59375 34.3 299.59375 34.76875Q299.59375 35.471874 300.125 35.940624Q300.65625 36.409374 301.6875 36.409374Q302.70312 36.409374 303.48438 35.971874Q304.28125 35.51875 304.65625 34.753124Q304.9375 34.14375 304.9375 32.9875L304.9375 32.346874ZM314.67188 32.3625Q314.67188 29.4875 316.26562 28.096874Q317.60938 26.940624 319.53125 26.940624Q321.67188 26.940624 323.01562 28.346874Q324.375 29.753124 324.375 32.221874Q324.375 34.221874 323.78125 35.378124Q323.1875 36.51875 322.03125 37.159374Q320.89062 37.784374 319.53125 37.784374Q317.34375 37.784374 316.0 36.39375Q314.67188 34.9875 314.67188 32.3625ZM316.46875 32.3625Q316.46875 34.3625 317.32812 35.346874Q318.20312 36.33125 319.53125 36.33125Q320.84375 36.33125 321.70312 35.346874Q322.57812 34.346874 322.57812 32.3Q322.57812 30.378124 321.70312 29.39375Q320.82812 28.39375 319.53125 28.39375Q318.20312 28.39375 317.32812 29.39375Q316.46875 30.378124 316.46875 32.3625ZM326.29688 37.55L326.29688 27.175L327.875 27.175L327.875 28.753124Q328.48438 27.64375 329.0 27.3Q329.51562 26.940624 330.125 26.940624Q331.01562 26.940624 331.9375 27.503124L331.32812 29.14375Q330.6875 28.753124 330.04688 28.753124Q329.46875 28.753124 329.0 29.1125Q328.54688 29.45625 328.34375 30.065624Q328.0625 31.003124 328.0625 32.1125L328.0625 37.55L326.29688 37.55ZM338.82812 33.8L340.67188 33.64375Q340.875 34.9875 341.625 35.675Q342.375 36.346874 343.4375 36.346874Q344.70312 36.346874 345.57812 35.39375Q346.45312 34.440624 346.45312 32.846874Q346.45312 31.346874 345.60938 30.4875Q344.76562 29.6125 343.40625 29.6125Q342.54688 29.6125 341.85938 30.003124Q341.1875 30.378124 340.79688 31.003124L339.14062 30.784374L340.53125 23.425L347.65625 23.425L347.65625 25.1125L341.9375 25.1125L341.17188 28.95625Q342.45312 28.05 343.875 28.05Q345.75 28.05 347.03125 29.3625Q348.32812 30.659374 348.32812 32.690624Q348.32812 34.64375 347.1875 36.05Q345.8125 37.8 343.4375 37.8Q341.48438 37.8 340.23438 36.70625Q339.0 35.6125 338.82812 33.8ZM350.15625 26.675Q350.15625 25.14375 350.92188 24.065624Q351.70312 22.9875 353.17188 22.9875Q354.51562 22.9875 355.39062 23.95625Q356.28125 24.909374 356.28125 26.784374Q356.28125 28.596874 355.39062 29.58125Q354.5 30.55 353.1875 30.55Q351.89062 30.55 351.01562 29.596874Q350.15625 28.628124 350.15625 26.675ZM353.21875 24.20625Q352.5625 24.20625 352.125 24.76875Q351.70312 25.33125 351.70312 26.846874Q351.70312 28.221874 352.14062 28.784374Q352.57812 29.346874 353.21875 29.346874Q353.89062 29.346874 354.3125 28.784374Q354.75 28.20625 354.75 26.70625Q354.75 25.315624 354.3125 24.76875Q353.875 24.20625 353.21875 24.20625ZM353.23438 38.08125L361.0625 22.9875L362.48438 22.9875L354.6875 38.08125L353.23438 38.08125ZM359.42188 34.190624Q359.42188 32.64375 360.1875 31.58125Q360.96875 30.503124 362.4375 30.503124Q363.78125 30.503124 364.65625 31.471874Q365.54688 32.425 365.54688 34.3Q365.54688 36.1125 364.65625 37.096874Q363.76562 38.08125 362.45312 38.08125Q361.15625 38.08125 360.28125 37.1125Q359.42188 36.128124 359.42188 34.190624ZM362.48438 31.721874Q361.82812 31.721874 361.39062 32.284374Q360.95312 32.846874 360.95312 34.3625Q360.95312 35.7375 361.39062 36.3Q361.82812 36.8625 362.48438 36.8625Q363.15625 36.8625 363.57812 36.3Q364.01562 35.7375 364.01562 34.221874Q364.01562 32.846874 363.57812 32.284374Q363.14062 31.721874 362.48438 31.721874ZM373.90625 32.95625L375.6875 32.8Q375.8125 33.8625 376.26562 34.55Q376.73438 35.2375 377.70312 35.675Q378.6875 36.096874 379.92188 36.096874Q381.0 36.096874 381.82812 35.784374Q382.65625 35.45625 383.0625 34.89375Q383.46875 34.33125 383.46875 33.659374Q383.46875 32.9875 383.07812 32.4875Q382.6875 31.9875 381.79688 31.64375Q381.21875 31.409374 379.23438 30.940624Q377.26562 30.471874 376.48438 30.05Q375.45312 29.51875 374.95312 28.721874Q374.45312 27.925 374.45312 26.940624Q374.45312 25.846874 375.0625 24.909374Q375.67188 23.971874 376.85938 23.4875Q378.04688 22.9875 379.48438 22.9875Q381.07812 22.9875 382.29688 23.503124Q383.51562 24.01875 384.15625 25.01875Q384.8125 26.003124 384.85938 27.26875L383.04688 27.409374Q382.90625 26.05 382.0625 25.3625Q381.21875 24.659374 379.5625 24.659374Q377.84375 24.659374 377.04688 25.3Q376.26562 25.925 376.26562 26.8Q376.26562 27.58125 376.82812 28.08125Q377.375 28.58125 379.6875 29.096874Q382.0 29.6125 382.85938 30.003124Q384.10938 30.58125 384.70312 31.471874Q385.29688 32.346874 385.29688 33.503124Q385.29688 34.64375 384.64062 35.659374Q383.98438 36.675 382.75 37.2375Q381.53125 37.8 380.0 37.8Q378.0625 37.8 376.75 37.2375Q375.4375 36.659374 374.6875 35.51875Q373.9375 34.378124 373.90625 32.95625ZM394.42188 34.20625L396.23438 34.440624Q395.8125 36.01875 394.64062 36.909374Q393.48438 37.784374 391.67188 37.784374Q389.40625 37.784374 388.0625 36.39375Q386.73438 34.9875 386.73438 32.45625Q386.73438 29.83125 388.07812 28.39375Q389.42188 26.940624 391.57812 26.940624Q393.65625 26.940624 394.96875 28.3625Q396.29688 29.76875 396.29688 32.346874Q396.29688 32.503124 396.28125 32.815624L388.54688 32.815624Q388.64062 34.51875 389.51562 35.425Q390.39062 36.33125 391.6875 36.33125Q392.65625 36.33125 393.32812 35.83125Q394.01562 35.315624 394.42188 34.20625ZM388.64062 31.3625L394.4375 31.3625Q394.32812 30.065624 393.78125 29.409374Q392.9375 28.39375 391.59375 28.39375Q390.39062 28.39375 389.5625 29.20625Q388.73438 30.003124 388.64062 31.3625ZM398.28125 37.55L398.28125 23.2375L400.03125 23.2375L400.03125 37.55L398.28125 37.55ZM409.42188 34.20625L411.23438 34.440624Q410.8125 36.01875 409.64062 36.909374Q408.48438 37.784374 406.67188 37.784374Q404.40625 37.784374 403.0625 36.39375Q401.73438 34.9875 401.73438 32.45625Q401.73438 29.83125 403.07812 28.39375Q404.42188 26.940624 406.57812 26.940624Q408.65625 26.940624 409.96875 28.3625Q411.29688 29.76875 411.29688 32.346874Q411.29688 32.503124 411.28125 32.815624L403.54688 32.815624Q403.64062 34.51875 404.51562 35.425Q405.39062 36.33125 406.6875 36.33125Q407.65625 36.33125 408.32812 35.83125Q409.01562 35.315624 409.42188 34.20625ZM403.64062 31.3625L409.4375 31.3625Q409.32812 30.065624 408.78125 29.409374Q407.9375 28.39375 406.59375 28.39375Q405.39062 28.39375 404.5625 29.20625Q403.73438 30.003124 403.64062 31.3625ZM420.09375 33.753124L421.8125 33.971874Q421.53125 35.76875 420.35938 36.784374Q419.20312 37.784374 417.5 37.784374Q415.375 37.784374 414.07812 36.39375Q412.78125 35.003124 412.78125 32.409374Q412.78125 30.721874 413.32812 29.471874Q413.89062 28.20625 415.03125 27.58125Q416.17188 26.940624 417.51562 26.940624Q419.20312 26.940624 420.26562 27.8Q421.34375 28.659374 421.65625 30.221874L419.9375 30.4875Q419.70312 29.440624 419.07812 28.925Q418.45312 28.39375 417.57812 28.39375Q416.25 28.39375 415.42188 29.346874Q414.59375 30.3 414.59375 32.346874Q414.59375 34.440624 415.39062 35.39375Q416.1875 36.33125 417.48438 36.33125Q418.51562 36.33125 419.20312 35.70625Q419.90625 35.065624 420.09375 33.753124ZM427.15625 35.971874L427.40625 37.534374Q426.67188 37.690624 426.07812 37.690624Q425.125 37.690624 424.59375 37.39375Q424.07812 37.08125 423.85938 36.596874Q423.64062 36.096874 423.64062 34.51875L423.64062 28.55L422.35938 28.55L422.35938 27.175L423.64062 27.175L423.64062 24.6125L425.39062 23.55L425.39062 27.175L427.15625 27.175L427.15625 28.55L425.39062 28.55L425.39062 34.6125Q425.39062 35.3625 425.48438 35.58125Q425.57812 35.784374 425.78125 35.925Q426.0 36.05 426.39062 36.05Q426.67188 36.05 427.15625 35.971874ZM436.42188 34.20625L438.23438 34.440624Q437.8125 36.01875 436.64062 36.909374Q435.48438 37.784374 433.67188 37.784374Q431.40625 37.784374 430.0625 36.39375Q428.73438 34.9875 428.73438 32.45625Q428.73438 29.83125 430.07812 28.39375Q431.42188 26.940624 433.57812 26.940624Q435.65625 26.940624 436.96875 28.3625Q438.29688 29.76875 438.29688 32.346874Q438.29688 32.503124 438.28125 32.815624L430.54688 32.815624Q430.64062 34.51875 431.51562 35.425Q432.39062 36.33125 433.6875 36.33125Q434.65625 36.33125 435.32812 35.83125Q436.01562 35.315624 436.42188 34.20625ZM430.64062 31.3625L436.4375 31.3625Q436.32812 30.065624 435.78125 29.409374Q434.9375 28.39375 433.59375 28.39375Q432.39062 28.39375 431.5625 29.20625Q430.73438 30.003124 430.64062 31.3625ZM447.04688 37.55L447.04688 36.2375Q446.0625 37.784374 444.14062 37.784374Q442.90625 37.784374 441.85938 37.096874Q440.82812 36.409374 440.25 35.190624Q439.6875 33.971874 439.6875 32.378124Q439.6875 30.815624 440.20312 29.55Q440.71875 28.284374 441.75 27.6125Q442.79688 26.940624 444.0625 26.940624Q445.0 26.940624 445.73438 27.346874Q446.46875 27.7375 446.9375 28.3625L446.9375 23.2375L448.67188 23.2375L448.67188 37.55L447.04688 37.55ZM441.48438 32.378124Q441.48438 34.3625 442.32812 35.346874Q443.17188 36.33125 444.3125 36.33125Q445.46875 36.33125 446.26562 35.39375Q447.07812 34.45625 447.07812 32.51875Q447.07812 30.39375 446.25 29.39375Q445.4375 28.39375 444.23438 28.39375Q443.0625 28.39375 442.26562 29.3625Q441.48438 30.315624 441.48438 32.378124ZM457.54688 37.55L457.54688 23.2375L462.46875 23.2375Q464.14062 23.2375 465.03125 23.440624Q466.25 23.721874 467.125 24.45625Q468.25 25.425 468.8125 26.909374Q469.375 28.39375 469.375 30.315624Q469.375 31.940624 469.0 33.20625Q468.625 34.45625 468.01562 35.284374Q467.42188 36.1125 466.71875 36.596874Q466.01562 37.065624 465.01562 37.315624Q464.01562 37.55 462.70312 37.55L457.54688 37.55ZM459.4375 35.8625L462.5 35.8625Q463.90625 35.8625 464.70312 35.596874Q465.51562 35.33125 466.0 34.846874Q466.67188 34.175 467.04688 33.05Q467.42188 31.909374 467.42188 30.284374Q467.42188 28.034374 466.6875 26.83125Q465.95312 25.628124 464.89062 25.221874Q464.14062 24.925 462.45312 24.925L459.4375 24.925L459.4375 35.8625ZM478.09375 36.26875Q477.10938 37.096874 476.20312 37.440624Q475.29688 37.784374 474.26562 37.784374Q472.5625 37.784374 471.64062 36.95625Q470.71875 36.1125 470.71875 34.815624Q470.71875 34.05 471.0625 33.425Q471.42188 32.8 471.98438 32.425Q472.54688 32.034374 473.25 31.83125Q473.76562 31.70625 474.8125 31.565624Q476.9375 31.315624 477.9375 30.971874Q477.95312 30.6125 477.95312 30.503124Q477.95312 29.440624 477.45312 28.9875Q476.78125 28.39375 475.45312 28.39375Q474.20312 28.39375 473.60938 28.83125Q473.03125 29.26875 472.75 30.378124L471.03125 30.14375Q471.26562 29.034374 471.79688 28.3625Q472.32812 27.675 473.34375 27.315624Q474.35938 26.940624 475.70312 26.940624Q477.03125 26.940624 477.85938 27.253124Q478.6875 27.565624 479.07812 28.05Q479.46875 28.51875 479.625 29.2375Q479.71875 29.690624 479.71875 30.8625L479.71875 33.20625Q479.71875 35.659374 479.82812 36.315624Q479.9375 36.95625 480.28125 37.55L478.4375 37.55Q478.17188 37.003124 478.09375 36.26875ZM477.9375 32.346874Q476.98438 32.7375 475.0625 33.003124Q473.98438 33.159374 473.53125 33.3625Q473.09375 33.55 472.84375 33.925Q472.59375 34.3 472.59375 34.76875Q472.59375 35.471874 473.125 35.940624Q473.65625 36.409374 474.6875 36.409374Q475.70312 36.409374 476.48438 35.971874Q477.28125 35.51875 477.65625 34.753124Q477.9375 34.14375 477.9375 32.9875L477.9375 32.346874ZM486.15625 35.971874L486.40625 37.534374Q485.67188 37.690624 485.07812 37.690624Q484.125 37.690624 483.59375 37.39375Q483.07812 37.08125 482.85938 36.596874Q482.64062 36.096874 482.64062 34.51875L482.64062 28.55L481.35938 28.55L481.35938 27.175L482.64062 27.175L482.64062 24.6125L484.39062 23.55L484.39062 27.175L486.15625 27.175L486.15625 28.55L484.39062 28.55L484.39062 34.6125Q484.39062 35.3625 484.48438 35.58125Q484.57812 35.784374 484.78125 35.925Q485.0 36.05 485.39062 36.05Q485.67188 36.05 486.15625 35.971874ZM495.09375 36.26875Q494.10938 37.096874 493.20312 37.440624Q492.29688 37.784374 491.26562 37.784374Q489.5625 37.784374 488.64062 36.95625Q487.71875 36.1125 487.71875 34.815624Q487.71875 34.05 488.0625 33.425Q488.42188 32.8 488.98438 32.425Q489.54688 32.034374 490.25 31.83125Q490.76562 31.70625 491.8125 31.565624Q493.9375 31.315624 494.9375 30.971874Q494.95312 30.6125 494.95312 30.503124Q494.95312 29.440624 494.45312 28.9875Q493.78125 28.39375 492.45312 28.39375Q491.20312 28.39375 490.60938 28.83125Q490.03125 29.26875 489.75 30.378124L488.03125 30.14375Q488.26562 29.034374 488.79688 28.3625Q489.32812 27.675 490.34375 27.315624Q491.35938 26.940624 492.70312 26.940624Q494.03125 26.940624 494.85938 27.253124Q495.6875 27.565624 496.07812 28.05Q496.46875 28.51875 496.625 29.2375Q496.71875 29.690624 496.71875 30.8625L496.71875 33.20625Q496.71875 35.659374 496.82812 36.315624Q496.9375 36.95625 497.28125 37.55L495.4375 37.55Q495.17188 37.003124 495.09375 36.26875ZM494.9375 32.346874Q493.98438 32.7375 492.0625 33.003124Q490.98438 33.159374 490.53125 33.3625Q490.09375 33.55 489.84375 33.925Q489.59375 34.3 489.59375 34.76875Q489.59375 35.471874 490.125 35.940624Q490.65625 36.409374 491.6875 36.409374Q492.70312 36.409374 493.48438 35.971874Q494.28125 35.51875 494.65625 34.753124Q494.9375 34.14375 494.9375 32.9875L494.9375 32.346874Z" fill-rule="nonzero"/></svg>