<svg xmlns:xlink="http://www.w3.org/1999/xlink" xmlns="http://www.w3.org/2000/svg" version="1.1" fill="none" stroke="none" stroke-linecap="square" stroke-miterlimit="10" viewBox="0 0 539 371"><path fill="#ffffff" d="M0 0L539.0 0L539.0 371.0L0 371.0L0 0Z" fill-rule="nonzero"/><path stroke="#cccccc" stroke-width="1.0" stroke-linecap="butt" d="M115.5 277.5L520.5 277.5" fill-rule="nonzero"/><path stroke="#cccccc" stroke-width="1.0" stroke-linecap="butt" d="M115.5 235.5L520.5 235.5" fill-rule="nonzero"/><path stroke="#cccccc" stroke-width="1.0" stroke-linecap="butt" d="M115.5 193.5L520.5 193.5" fill-rule="nonzero"/><path stroke="#cccccc" stroke-width="1.0" stroke-linecap="butt" d="M115.5 151.5L520.5 151.5" fill-rule="nonzero"/><path stroke="#cccccc" stroke-width="1.0" stroke-linecap="butt" d="M115.5 109.5L520.5 109.5" fill-rule="nonzero"/><path stroke="#cccccc" stroke-width="1.0" stroke-linecap="butt" d="M115.5 66.5L520.5 66.5" fill-rule="nonzero"/><clipPath id="id_0"><path d="M115.55 66.916664L520.45 66.916664L520.45 277.45L115.55 277.45L115.55 66.916664Z" clip-rule="nonzero"/></clipPath><path stroke="#000000" stroke-width="2.0" stroke-linecap="butt" stroke-opacity="0.0" clip-path="url(#id_0)" d="M209.0 277.0L148.0 277.0L148.0 131.0C148.0 129.89543 148.89543 129.0 150.0 129.0L207.0 129.0C208.10457 129.0 209.0 129.89543 209.0 131.0Z" fill-rule="nonzero"/><path fill="#cc0000" clip-path="url(#id_0)" d="M209.0 277.0L148.0 277.0L148.0 131.0C148.0 129.89543 148.89543 129.0 150.0 129.0L207.0 129.0C208.10457 129.0 209.0 129.89543 209.0 131.0Z" fill-rule="nonzero"/><path stroke="#000000" stroke-width="2.0" stroke-linecap="butt" stroke-opacity="0.0" clip-path="url(#id_0)" d="M302.0 277.0L241.0 277.0L241.0 129.0C241.0 127.89543 241.89543 127.0 243.0 127.0L300.0 127.0C301.10458 127.0 302.0 127.89543 302.0 129.0Z" fill-rule="nonzero"/><path fill="#3c78d8" clip-path="url(#id_0)" d="M302.0 277.0L241.0 277.0L241.0 129.0C241.0 127.89543 241.89543 127.0 243.0 127.0L300.0 127.0C301.10458 127.0 302.0 127.89543 302.0 129.0Z" fill-rule="nonzero"/><path stroke="#000000" stroke-width="2.0" stroke-linecap="butt" stroke-opacity="0.0" clip-path="url(#id_0)" d="M396.0 277.0L335.0 277.0L335.0 81.0C335.0 79.89543 335.89542 79.0 337.0 79.0L394.0 79.0C395.10458 79.0 396.0 79.89543 396.0 81.0Z" fill-rule="nonzero"/><path fill="#3c78d8" clip-path="url(#id_0)" d="M396.0 277.0L335.0 277.0L335.0 81.0C335.0 79.89543 335.89542 79.0 337.0 79.0L394.0 79.0C395.10458 79.0 396.0 79.89543 396.0 81.0Z" fill-rule="nonzero"/><path stroke="#000000" stroke-width="2.0" stroke-linecap="butt" stroke-opacity="0.0" clip-path="url(#id_0)" d="M489.0 277.0L428.0 277.0L428.0 82.0C428.0 80.89543 428.89542 80.0 430.0 80.0L487.0 80.0C488.10458 80.0 489.0 80.89543 489.0 82.0Z" fill-rule="nonzero"/><path fill="#3c78d8" clip-path="url(#id_0)" d="M489.0 277.0L428.0 277.0L428.0 82.0C428.0 80.89543 428.89542 80.0 430.0 80.0L487.0 80.0C488.10458 80.0 489.0 80.89543 489.0 82.0Z" fill-rule="nonzero"/><path fill="#000000" d="M267.89062 348.45L267.89062 335.5594L272.32812 335.5594Q273.82812 335.5594 274.625 335.7469Q275.73438 335.9969 276.51562 336.66876Q277.53125 337.52814 278.03125 338.8719Q278.54688 340.21564 278.54688 341.9344Q278.54688 343.40314 278.20312 344.54376Q277.85938 345.66876 277.3125 346.41876Q276.78125 347.15314 276.14062 347.59064Q275.51562 348.0125 274.60938 348.23126Q273.70312 348.45 272.53125 348.45L267.89062 348.45ZM269.59375 346.9344L272.34375 346.9344Q273.625 346.9344 274.34375 346.7Q275.0625 346.45 275.5 346.02814Q276.10938 345.41876 276.4375 344.40314Q276.78125 343.3719 276.78125 341.90314Q276.78125 339.8875 276.10938 338.8094Q275.45312 337.71564 274.5 337.35626Q273.82812 337.09064 272.29688 337.09064L269.59375 337.09064L269.59375 346.9344ZM286.78125 347.29376Q285.90625 348.04376 285.07812 348.35626Q284.26562 348.66876 283.34375 348.66876Q281.79688 348.66876 280.96875 347.91876Q280.15625 347.15314 280.15625 345.98126Q280.15625 345.3094 280.46875 344.7469Q280.78125 344.16876 281.28125 343.825Q281.78125 343.48126 282.42188 343.3094Q282.89062 343.1844 283.82812 343.075Q285.73438 342.84064 286.64062 342.52814Q286.65625 342.2 286.65625 342.10626Q286.65625 341.15314 286.20312 340.7469Q285.59375 340.21564 284.40625 340.21564Q283.28125 340.21564 282.75 340.60626Q282.21875 340.9969 281.96875 341.9969L280.42188 341.77814Q280.64062 340.77814 281.10938 340.16876Q281.59375 339.5594 282.5 339.23126Q283.42188 338.90314 284.64062 338.90314Q285.82812 338.90314 286.57812 339.1844Q287.32812 339.46564 287.67188 339.90314Q288.03125 340.325 288.17188 340.96564Q288.25 341.3719 288.25 342.4344L288.25 344.54376Q288.25 346.7469 288.34375 347.34064Q288.45312 347.91876 288.75 348.45L287.09375 348.45Q286.84375 347.95 286.78125 347.29376ZM286.64062 343.7625Q285.78125 344.1219 284.0625 344.35626Q283.09375 344.4969 282.6875 344.6844Q282.28125 344.85626 282.0625 345.2Q281.84375 345.52814 281.84375 345.95Q281.84375 346.575 282.3125 346.9969Q282.79688 347.41876 283.71875 347.41876Q284.64062 347.41876 285.34375 347.02814Q286.0625 346.6219 286.39062 345.9344Q286.64062 345.3875 286.64062 344.34064L286.64062 343.7625ZM294.14062 347.02814L294.375 348.4344Q293.70312 348.575 293.17188 348.575Q292.3125 348.575 291.82812 348.3094Q291.35938 348.02814 291.17188 347.59064Q290.98438 347.1375 290.98438 345.71564L290.98438 340.34064L289.8125 340.34064L289.8125 339.1219L290.98438 339.1219L290.98438 336.8094L292.54688 335.85626L292.54688 339.1219L294.14062 339.1219L294.14062 340.34064L292.54688 340.34064L292.54688 345.8094Q292.54688 346.48126 292.625 346.6844Q292.71875 346.8719 292.90625 346.98126Q293.09375 347.09064 293.45312 347.09064Q293.70312 347.09064 294.14062 347.02814ZM301.78125 347.29376Q300.90625 348.04376 300.07812 348.35626Q299.26562 348.66876 298.34375 348.66876Q296.79688 348.66876 295.96875 347.91876Q295.15625 347.15314 295.15625 345.98126Q295.15625 345.3094 295.46875 344.7469Q295.78125 344.16876 296.28125 343.825Q296.78125 343.48126 297.42188 343.3094Q297.89062 343.1844 298.82812 343.075Q300.73438 342.84064 301.64062 342.52814Q301.65625 342.2 301.65625 342.10626Q301.65625 341.15314 301.20312 340.7469Q300.59375 340.21564 299.40625 340.21564Q298.28125 340.21564 297.75 340.60626Q297.21875 340.9969 296.96875 341.9969L295.42188 341.77814Q295.64062 340.77814 296.10938 340.16876Q296.59375 339.5594 297.5 339.23126Q298.42188 338.90314 299.64062 338.90314Q300.82812 338.90314 301.57812 339.1844Q302.32812 339.46564 302.67188 339.90314Q303.03125 340.325 303.17188 340.96564Q303.25 341.3719 303.25 342.4344L303.25 344.54376Q303.25 346.7469 303.34375 347.34064Q303.45312 347.91876 303.75 348.45L302.09375 348.45Q301.84375 347.95 301.78125 347.29376ZM301.64062 343.7625Q300.78125 344.1219 299.0625 344.35626Q298.09375 344.4969 297.6875 344.6844Q297.28125 344.85626 297.0625 345.2Q296.84375 345.52814 296.84375 345.95Q296.84375 346.575 297.3125 346.9969Q297.79688 347.41876 298.71875 347.41876Q299.64062 347.41876 300.34375 347.02814Q301.0625 346.6219 301.39062 345.9344Q301.64062 345.3875 301.64062 344.34064L301.64062 343.7625ZM309.46875 348.45L314.42188 335.5594L316.26562 335.5594L321.53125 348.45L319.59375 348.45L318.09375 344.54376L312.70312 344.54376L311.28125 348.45L309.46875 348.45ZM313.1875 343.15314L317.5625 343.15314L316.21875 339.59064Q315.59375 337.96564 315.29688 336.91876Q315.0625 338.15314 314.60938 339.3719L313.1875 343.15314ZM321.6875 348.45L321.6875 339.1219L323.10938 339.1219L323.10938 340.41876Q323.54688 339.7469 324.26562 339.325Q325.0 338.90314 325.9375 338.90314Q326.96875 338.90314 327.625 339.34064Q328.29688 339.7625 328.5625 340.54376Q329.67188 338.90314 331.45312 338.90314Q332.84375 338.90314 333.57812 339.6844Q334.32812 340.45 334.32812 342.04376L334.32812 348.45L332.76562 348.45L332.76562 342.575Q332.76562 341.6219 332.60938 341.2Q332.45312 340.77814 332.04688 340.52814Q331.64062 340.27814 331.09375 340.27814Q330.10938 340.27814 329.45312 340.9344Q328.8125 341.59064 328.8125 343.02814L328.8125 348.45L327.23438 348.45L327.23438 342.3875Q327.23438 341.325 326.84375 340.8094Q326.45312 340.27814 325.57812 340.27814Q324.90625 340.27814 324.34375 340.6375Q323.78125 340.98126 323.51562 341.65314Q323.26562 342.325 323.26562 343.60626L323.26562 348.45L321.6875 348.45ZM335.09375 343.77814Q335.09375 341.1844 336.54688 339.9344Q337.75 338.90314 339.46875 338.90314Q341.40625 338.90314 342.625 340.16876Q343.84375 341.4344 343.84375 343.65314Q343.84375 345.45 343.29688 346.48126Q342.76562 347.5125 341.73438 348.09064Q340.70312 348.66876 339.46875 348.66876Q337.51562 348.66876 336.29688 347.41876Q335.09375 346.15314 335.09375 343.77814ZM336.71875 343.77814Q336.71875 345.575 337.5 346.46564Q338.28125 347.35626 339.46875 347.35626Q340.65625 347.35626 341.4375 346.46564Q342.21875 345.5594 342.21875 343.73126Q342.21875 341.9969 341.42188 341.10626Q340.64062 340.21564 339.46875 340.21564Q338.28125 340.21564 337.5 341.10626Q336.71875 341.9969 336.71875 343.77814ZM351.79688 348.45L351.79688 347.075Q350.71875 348.66876 348.84375 348.66876Q348.01562 348.66876 347.29688 348.35626Q346.57812 348.02814 346.23438 347.5594Q345.89062 347.075 345.75 346.3719Q345.65625 345.90314 345.65625 344.90314L345.65625 339.1219L347.23438 339.1219L347.23438 344.29376Q347.23438 345.52814 347.32812 345.96564Q347.48438 346.59064 347.96875 346.95Q348.45312 347.29376 349.15625 347.29376Q349.875 347.29376 350.5 346.9344Q351.125 346.575 351.375 345.95Q351.64062 345.3094 351.64062 344.1219L351.64062 339.1219L353.21875 339.1219L353.21875 348.45L351.79688 348.45ZM355.6875 348.45L355.6875 339.1219L357.10938 339.1219L357.10938 340.45Q358.14062 338.90314 360.07812 338.90314Q360.92188 338.90314 361.625 339.21564Q362.34375 339.5125 362.6875 340.0125Q363.04688 340.4969 363.1875 341.16876Q363.26562 341.60626 363.26562 342.71564L363.26562 348.45L361.6875 348.45L361.6875 342.77814Q361.6875 341.8094 361.5 341.325Q361.32812 340.84064 360.84375 340.5594Q360.375 340.27814 359.75 340.27814Q358.73438 340.27814 358.0 340.91876Q357.26562 341.5594 357.26562 343.35626L357.26562 348.45L355.6875 348.45ZM369.14062 347.02814L369.375 348.4344Q368.70312 348.575 368.17188 348.575Q367.3125 348.575 366.82812 348.3094Q366.35938 348.02814 366.17188 347.59064Q365.98438 347.1375 365.98438 345.71564L365.98438 340.34064L364.8125 340.34064L364.8125 339.1219L365.98438 339.1219L365.98438 336.8094L367.54688 335.85626L367.54688 339.1219L369.14062 339.1219L369.14062 340.34064L367.54688 340.34064L367.54688 345.8094Q367.54688 346.48126 367.625 346.6844Q367.71875 346.8719 367.90625 346.98126Q368.09375 347.09064 368.45312 347.09064Q368.70312 347.09064 369.14062 347.02814Z" fill-rule="nonzero"/><path fill="#000000" d="M35.55001 266.2146L22.659388 261.26147L22.659388 259.41772L35.55001 254.15208L35.55001 256.0896L31.643763 257.5896L31.643763 262.98022L35.55001 264.4021L35.55001 266.2146ZM30.253138 262.49585L30.253138 258.12085L26.690638 259.4646Q25.065638 260.0896 24.018763 260.38647Q25.253138 260.62085 26.471888 261.07397L30.253138 262.49585ZM35.55001 251.40208L26.221888 254.94896L26.221888 253.27708L31.800013 251.27708Q32.70626 250.94896 33.690636 250.68333Q32.940636 250.46458 31.909388 250.08958L26.221888 248.02708L26.221888 246.38646L35.55001 249.93333L35.55001 251.40208ZM32.55001 238.60521L32.753136 236.96458Q34.17501 237.35521 34.971886 238.40208Q35.76876 239.44896 35.76876 241.07396Q35.76876 243.12083 34.503136 244.32396Q33.23751 245.52708 30.956263 245.52708Q28.612513 245.52708 27.315638 244.32396Q26.003138 243.10521 26.003138 241.16771Q26.003138 239.29271 27.284388 238.10521Q28.550013 236.91771 30.862513 236.91771Q31.003138 236.91771 31.284388 236.93333L31.284388 243.88646Q32.83126 243.80833 33.64376 243.02708Q34.45626 242.23021 34.45626 241.07396Q34.45626 240.19896 34.003136 239.58958Q33.55001 238.96458 32.55001 238.60521ZM29.987513 243.80833L29.987513 238.58958Q28.815638 238.69896 28.221888 239.18333Q27.300013 239.94896 27.300013 241.15208Q27.300013 242.23021 28.034388 242.98021Q28.768763 243.71458 29.987513 243.80833ZM35.55001 235.01146L26.221888 235.01146L26.221888 233.58958L27.628138 233.58958Q26.643763 233.04271 26.331263 232.58958Q26.003138 232.12083 26.003138 231.57396Q26.003138 230.76146 26.518763 229.94896L27.987513 230.48021Q27.643763 231.07396 27.643763 231.65208Q27.643763 232.16771 27.956263 232.58958Q28.268763 232.99583 28.815638 233.16771Q29.659388 233.43333 30.659388 233.43333L35.55001 233.43333L35.55001 235.01146ZM34.39376 222.90208Q35.14376 223.77708 35.45626 224.60521Q35.76876 225.41771 35.76876 226.33958Q35.76876 227.88646 35.01876 228.71458Q34.253136 229.52708 33.08126 229.52708Q32.409386 229.52708 31.846888 229.21458Q31.268763 228.90208 30.925013 228.40208Q30.581263 227.90208 30.409388 227.26146Q30.284388 226.79271 30.175013 225.85521Q29.940638 223.94896 29.628138 223.04271Q29.300013 223.02708 29.206263 223.02708Q28.253138 223.02708 27.846888 223.48021Q27.315638 224.08958 27.315638 225.27708Q27.315638 226.40208 27.706263 226.93333Q28.096888 227.46458 29.096888 227.71458L28.878138 229.26146Q27.878138 229.04271 27.268763 228.57396Q26.659388 228.08958 26.331263 227.18333Q26.003138 226.26146 26.003138 225.04271Q26.003138 223.85521 26.284388 223.10521Q26.565638 222.35521 27.003138 222.01146Q27.425013 221.65208 28.065638 221.51146Q28.471888 221.43333 29.534388 221.43333L31.643763 221.43333Q33.846886 221.43333 34.440636 221.33958Q35.01876 221.23021 35.55001 220.93333L35.55001 222.58958Q35.05001 222.83958 34.39376 222.90208ZM30.862513 223.04271Q31.221888 223.90208 31.456263 225.62083Q31.596888 226.58958 31.784388 226.99583Q31.956263 227.40208 32.30001 227.62083Q32.628136 227.83958 33.05001 227.83958Q33.67501 227.83958 34.096886 227.37083Q34.51876 226.88646 34.51876 225.96458Q34.51876 225.04271 34.128136 224.33958Q33.721886 223.62083 33.034386 223.29271Q32.48751 223.04271 31.440638 223.04271L30.862513 223.04271ZM36.33126 219.29271L36.55001 217.74583Q37.26876 217.65208 37.596886 217.21458Q38.034386 216.62083 38.034386 215.60521Q38.034386 214.51146 37.58126 213.91771Q37.14376 213.30833 36.36251 213.10521Q35.878136 212.98021 34.33126 212.98021Q35.55001 214.02708 35.55001 215.57396Q35.55001 217.49583 34.159386 218.55833Q32.76876 219.60521 30.831263 219.60521Q29.487513 219.60521 28.362513 219.12083Q27.237513 218.63646 26.628138 217.71458Q26.003138 216.79271 26.003138 215.55833Q26.003138 213.90208 27.346888 212.83958L26.221888 212.83958L26.221888 211.37083L34.284386 211.37083Q36.471886 211.37083 37.378136 211.82396Q38.284386 212.26146 38.80001 213.23021Q39.33126 214.18333 39.33126 215.58958Q39.33126 217.26146 38.58126 218.29271Q37.83126 219.32396 36.33126 219.29271ZM30.721888 217.98021Q32.55001 217.98021 33.39376 217.24583Q34.23751 216.51146 34.23751 215.41771Q34.23751 214.32396 33.409386 213.58958Q32.565636 212.85521 30.768763 212.85521Q29.050013 212.85521 28.190638 213.62083Q27.315638 214.37083 27.315638 215.44896Q27.315638 216.49583 28.175013 217.24583Q29.034388 217.98021 30.721888 217.98021ZM32.55001 202.60521L32.753136 200.96458Q34.17501 201.35521 34.971886 202.40208Q35.76876 203.44896 35.76876 205.07396Q35.76876 207.12083 34.503136 208.32396Q33.23751 209.52708 30.956263 209.52708Q28.612513 209.52708 27.315638 208.32396Q26.003138 207.10521 26.003138 205.16771Q26.003138 203.29271 27.284388 202.10521Q28.550013 200.91771 30.862513 200.91771Q31.003138 200.91771 31.284388 200.93333L31.284388 207.88646Q32.83126 207.80833 33.64376 207.02708Q34.45626 206.23021 34.45626 205.07396Q34.45626 204.19896 34.003136 203.58958Q33.55001 202.96458 32.55001 202.60521ZM29.987513 207.80833L29.987513 202.58958Q28.815638 202.69896 28.221888 203.18333Q27.300013 203.94896 27.300013 205.15208Q27.300013 206.23021 28.034388 206.98021Q28.768763 207.71458 29.987513 207.80833ZM35.55001 193.79271L22.659388 193.79271L22.659388 188.93333Q22.659388 187.65208 22.784388 186.98021Q22.940638 186.02708 23.393763 185.38646Q23.831263 184.74583 24.643763 184.35521Q25.440638 183.96458 26.393763 183.96458Q28.034388 183.96458 29.175013 185.01146Q30.315638 186.05833 30.315638 188.77708L30.315638 192.08958L35.55001 192.08958L35.55001 193.79271ZM28.784388 192.08958L28.784388 188.76146Q28.784388 187.10521 28.175013 186.41771Q27.565638 185.71458 26.440638 185.71458Q25.628138 185.71458 25.065638 186.12083Q24.487513 186.52708 24.300013 187.19896Q24.190638 187.63646 24.190638 188.79271L24.190638 192.08958L28.784388 192.08958ZM32.55001 175.60521L32.753136 173.96458Q34.17501 174.35521 34.971886 175.40208Q35.76876 176.44896 35.76876 178.07396Q35.76876 180.12083 34.503136 181.32396Q33.23751 182.52708 30.956263 182.52708Q28.612513 182.52708 27.315638 181.32396Q26.003138 180.10521 26.003138 178.16771Q26.003138 176.29271 27.284388 175.10521Q28.550013 173.91771 30.862513 173.91771Q31.003138 173.91771 31.284388 173.93333L31.284388 180.88646Q32.83126 180.80833 33.64376 180.02708Q34.45626 179.23021 34.45626 178.07396Q34.45626 177.19896 34.003136 176.58958Q33.55001 175.96458 32.55001 175.60521ZM29.987513 180.80833L29.987513 175.58958Q28.815638 175.69896 28.221888 176.18333Q27.300013 176.94896 27.300013 178.15208Q27.300013 179.23021 28.034388 179.98021Q28.768763 180.71458 29.987513 180.80833ZM35.55001 172.01146L26.221888 172.01146L26.221888 170.58958L27.628138 170.58958Q26.643763 170.04271 26.331263 169.58958Q26.003138 169.12083 26.003138 168.57396Q26.003138 167.76146 26.518763 166.94896L27.987513 167.48021Q27.643763 168.07396 27.643763 168.65208Q27.643763 169.16771 27.956263 169.58958Q28.268763 169.99583 28.815638 170.16771Q29.659388 170.43333 30.659388 170.43333L35.55001 170.43333L35.55001 172.01146ZM35.55001 165.62083L27.440638 165.62083L27.440638 167.01146L26.221888 167.01146L26.221888 165.62083L25.221888 165.62083Q24.284388 165.62083 23.831263 165.44896Q23.206263 165.23021 22.831263 164.65208Q22.440638 164.07396 22.440638 163.02708Q22.440638 162.37083 22.596888 161.55833L23.987513 161.79271Q23.893763 162.29271 23.893763 162.73021Q23.893763 163.44896 24.206263 163.74583Q24.503138 164.04271 25.346888 164.04271L26.221888 164.04271L26.221888 162.23021L27.440638 162.23021L27.440638 164.04271L35.55001 164.04271L35.55001 165.62083ZM30.878138 161.58958Q28.284388 161.58958 27.034388 160.13646Q26.003138 158.93333 26.003138 157.21458Q26.003138 155.27708 27.268763 154.05833Q28.534388 152.83958 30.753138 152.83958Q32.55001 152.83958 33.58126 153.38646Q34.61251 153.91771 35.190636 154.94896Q35.76876 155.98021 35.76876 157.21458Q35.76876 159.16771 34.51876 160.38646Q33.253136 161.58958 30.878138 161.58958ZM30.878138 159.96458Q32.67501 159.96458 33.565636 159.18333Q34.45626 158.40208 34.45626 157.21458Q34.45626 156.02708 33.565636 155.24583Q32.659386 154.46458 30.831263 154.46458Q29.096888 154.46458 28.206263 155.26146Q27.315638 156.04271 27.315638 157.21458Q27.315638 158.40208 28.206263 159.18333Q29.096888 159.96458 30.878138 159.96458ZM35.55001 151.01146L26.221888 151.01146L26.221888 149.58958L27.628138 149.58958Q26.643763 149.04271 26.331263 148.58958Q26.003138 148.12083 26.003138 147.57396Q26.003138 146.76146 26.518763 145.94896L27.987513 146.48021Q27.643763 147.07396 27.643763 147.65208Q27.643763 148.16771 27.956263 148.58958Q28.268763 148.99583 28.815638 149.16771Q29.659388 149.43333 30.659388 149.43333L35.55001 149.43333L35.55001 151.01146ZM35.55001 144.99583L26.221888 144.99583L26.221888 143.57396L27.518763 143.57396Q26.846888 143.13646 26.425013 142.41771Q26.003138 141.68333 26.003138 140.74583Q26.003138 139.71458 26.440638 139.05833Q26.862513 138.38646 27.643763 138.12083Q26.003138 137.01146 26.003138 135.23021Q26.003138 133.83958 26.784388 133.10521Q27.550013 132.35521 29.143763 132.35521L35.55001 132.35521L35.55001 133.91771L29.675013 133.91771Q28.721888 133.91771 28.300013 134.07396Q27.878138 134.23021 27.628138 134.63646Q27.378138 135.04271 27.378138 135.58958Q27.378138 136.57396 28.034388 137.23021Q28.690638 137.87083 30.128138 137.87083L35.55001 137.87083L35.55001 139.44896L29.487513 139.44896Q28.425013 139.44896 27.909388 139.83958Q27.378138 140.23021 27.378138 141.10521Q27.378138 141.77708 27.737513 142.33958Q28.081263 142.90208 28.753138 143.16771Q29.425013 143.41771 30.706263 143.41771L35.55001 143.41771L35.55001 144.99583ZM34.39376 124.902084Q35.14376 125.777084 35.45626 126.60521Q35.76876 127.41771 35.76876 128.33958Q35.76876 129.88646 35.01876 130.71458Q34.253136 131.52708 33.08126 131.52708Q32.409386 131.52708 31.846888 131.21458Q31.268763 130.90208 30.925013 130.40208Q30.581263 129.90208 30.409388 129.26146Q30.284388 128.79271 30.175013 127.85521Q29.940638 125.94896 29.628138 125.04271Q29.300013 125.027084 29.206263 125.027084Q28.253138 125.027084 27.846888 125.48021Q27.315638 126.089584 27.315638 127.277084Q27.315638 128.40208 27.706263 128.93333Q28.096888 129.46458 29.096888 129.71458L28.878138 131.26146Q27.878138 131.04271 27.268763 130.57396Q26.659388 130.08958 26.331263 129.18333Q26.003138 128.26146 26.003138 127.04271Q26.003138 125.85521 26.284388 125.10521Q26.565638 124.35521 27.003138 124.01146Q27.425013 123.652084 28.065638 123.51146Q28.471888 123.433334 29.534388 123.433334L31.643763 123.433334Q33.846886 123.433334 34.440636 123.339584Q35.01876 123.23021 35.55001 122.933334L35.55001 124.589584Q35.05001 124.839584 34.39376 124.902084ZM30.862513 125.04271Q31.221888 125.902084 31.456263 127.620834Q31.596888 128.58958 31.784388 128.99583Q31.956263 129.40208 32.30001 129.62083Q32.628136 129.83958 33.05001 129.83958Q33.67501 129.83958 34.096886 129.37083Q34.51876 128.88646 34.51876 127.964584Q34.51876 127.04271 34.128136 126.339584Q33.721886 125.620834 33.034386 125.29271Q32.48751 125.04271 31.440638 125.04271L30.862513 125.04271ZM35.55001 120.995834L26.221888 120.995834L26.221888 119.57396L27.550013 119.57396Q26.003138 118.54271 26.003138 116.60521Q26.003138 115.76146 26.315638 115.058334Q26.612513 114.339584 27.112513 113.995834Q27.596888 113.63646 28.268763 113.495834Q28.706263 113.41771 29.815638 113.41771L35.55001 113.41771L35.55001 114.995834L29.878138 114.995834Q28.909388 114.995834 28.425013 115.183334Q27.940638 115.35521 27.659388 115.839584Q27.378138 116.308334 27.378138 116.933334Q27.378138 117.94896 28.018763 118.683334Q28.659388 119.41771 30.456263 119.41771L35.55001 119.41771L35.55001 120.995834ZM32.128136 104.902084L32.33126 103.35521Q33.940636 103.60521 34.86251 104.652084Q35.76876 105.69896 35.76876 107.23021Q35.76876 109.152084 34.51876 110.32396Q33.253136 111.48021 30.925013 111.48021Q29.409388 111.48021 28.284388 110.98021Q27.143763 110.48021 26.581263 109.464584Q26.003138 108.433334 26.003138 107.23021Q26.003138 105.69896 26.784388 104.745834Q27.550013 103.777084 28.956263 103.495834L29.190638 105.04271Q28.253138 105.26146 27.784388 105.82396Q27.300013 106.370834 27.300013 107.16771Q27.300013 108.35521 28.159388 109.10521Q29.018763 109.85521 30.878138 109.85521Q32.753136 109.85521 33.61251 109.13646Q34.45626 108.41771 34.45626 107.245834Q34.45626 106.32396 33.89376 105.69896Q33.315636 105.07396 32.128136 104.902084ZM32.55001 95.60521L32.753136 93.964584Q34.17501 94.35521 34.971886 95.402084Q35.76876 96.44896 35.76876 98.07396Q35.76876 100.120834 34.503136 101.32396Q33.23751 102.527084 30.956263 102.527084Q28.612513 102.527084 27.315638 101.32396Q26.003138 100.10521 26.003138 98.16771Q26.003138 96.29271 27.284388 95.10521Q28.550013 93.91771 30.862513 93.91771Q31.003138 93.91771 31.284388 93.933334L31.284388 100.88646Q32.83126 100.808334 33.64376 100.027084Q34.45626 99.23021 34.45626 98.07396Q34.45626 97.19896 34.003136 96.589584Q33.55001 95.964584 32.55001 95.60521ZM29.987513 100.808334L29.987513 95.589584Q28.815638 95.69896 28.221888 96.183334Q27.300013 96.94896 27.300013 98.152084Q27.300013 99.23021 28.034388 99.98021Q28.768763 100.714584 29.987513 100.808334Z" fill-rule="nonzero"/><path fill="#000000" d="M67.37813 280.7L69.22188 280.54376Q69.425 281.8875 70.175 282.575Q70.925 283.2469 71.9875 283.2469Q73.25313 283.2469 74.12813 282.29376Q75.00313 281.34064 75.00313 279.7469Q75.00313 278.2469 74.15938 277.3875Q73.31563 276.5125 71.95625 276.5125Q71.09688 276.5125 70.40938 276.90314Q69.7375 277.27814 69.34688 277.90314L67.69063 277.6844L69.08125 270.325L76.20625 270.325L76.20625 272.0125L70.4875 272.0125L69.72188 275.85626Q71.00313 274.95 72.425 274.95Q74.3 274.95 75.58125 276.2625Q76.87813 277.5594 76.87813 279.59064Q76.87813 281.54376 75.7375 282.95Q74.3625 284.7 71.9875 284.7Q70.03438 284.7 68.78438 283.60626Q67.55 282.5125 67.37813 280.7ZM78.37813 277.3875Q78.37813 274.85626 78.89375 273.3094Q79.425 271.7469 80.45625 270.91876Q81.4875 270.075 83.05 270.075Q84.20625 270.075 85.06563 270.54376Q85.94063 270.9969 86.50313 271.8719Q87.06563 272.7469 87.39375 274.0125Q87.72188 275.2625 87.72188 277.3875Q87.72188 279.90314 87.19063 281.45Q86.675 282.9969 85.64375 283.85626Q84.62813 284.7 83.05 284.7Q80.97188 284.7 79.8 283.21564Q78.37813 281.41876 78.37813 277.3875ZM80.19063 277.3875Q80.19063 280.91876 81.00313 282.09064Q81.83125 283.2469 83.05 283.2469Q84.25313 283.2469 85.08125 282.075Q85.90938 280.90314 85.90938 277.3875Q85.90938 273.85626 85.08125 272.7Q84.25313 271.52814 83.03438 271.52814Q81.81563 271.52814 81.09688 272.5594Q80.19063 273.85626 80.19063 277.3875ZM90.3625 284.45L90.3625 282.45L92.3625 282.45L92.3625 284.45L90.3625 284.45ZM95.37813 277.3875Q95.37813 274.85626 95.89375 273.3094Q96.425 271.7469 97.45625 270.91876Q98.4875 270.075 100.05 270.075Q101.20625 270.075 102.06563 270.54376Q102.94063 270.9969 103.50313 271.8719Q104.06563 272.7469 104.39375 274.0125Q104.72188 275.2625 104.72188 277.3875Q104.72188 279.90314 104.19063 281.45Q103.675 282.9969 102.64375 283.85626Q101.62813 284.7 100.05 284.7Q97.97188 284.7 96.8 283.21564Q95.37813 281.41876 95.37813 277.3875ZM97.19063 277.3875Q97.19063 280.91876 98.00313 282.09064Q98.83125 283.2469 100.05 283.2469Q101.25313 283.2469 102.08125 282.075Q102.90938 280.90314 102.90938 277.3875Q102.90938 273.85626 102.08125 272.7Q101.25313 271.52814 100.03438 271.52814Q98.81563 271.52814 98.09688 272.5594Q97.19063 273.85626 97.19063 277.3875Z" fill-rule="nonzero"/><path fill="#000000" d="M67.37813 238.59334L69.22188 238.43709Q69.425 239.78084 70.175 240.46834Q70.925 241.14021 71.9875 241.14021Q73.25313 241.14021 74.12813 240.18709Q75.00313 239.23396 75.00313 237.64021Q75.00313 236.14021 74.15938 235.28084Q73.31563 234.40584 71.95625 234.40584Q71.09688 234.40584 70.40938 234.79646Q69.7375 235.17146 69.34688 235.79646L67.69063 235.57771L69.08125 228.21834L76.20625 228.21834L76.20625 229.90584L70.4875 229.90584L69.72188 233.74959Q71.00313 232.84334 72.425 232.84334Q74.3 232.84334 75.58125 234.15584Q76.87813 235.45271 76.87813 237.48396Q76.87813 239.43709 75.7375 240.84334Q74.3625 242.59334 71.9875 242.59334Q70.03438 242.59334 68.78438 241.49959Q67.55 240.40584 67.37813 238.59334ZM87.6125 240.65584L87.6125 242.34334L78.15938 242.34334Q78.14375 241.70271 78.3625 241.12459Q78.72188 240.15584 79.51875 239.21834Q80.31563 238.28084 81.81563 237.04646Q84.15938 235.14021 84.97188 234.03084Q85.8 232.90584 85.8 231.90584Q85.8 230.85896 85.05 230.14021Q84.3 229.42146 83.09688 229.42146Q81.83125 229.42146 81.06563 230.18709Q80.3 230.95271 80.3 232.29646L78.4875 232.10896Q78.675 230.09334 79.87813 229.03084Q81.09688 227.96834 83.14375 227.96834Q85.19063 227.96834 86.39375 229.10896Q87.59688 230.24959 87.59688 231.93709Q87.59688 232.79646 87.2375 233.64021Q86.89375 234.46834 86.08125 235.39021Q85.26875 236.29646 83.37813 237.90584Q81.78438 239.23396 81.33125 239.70271Q80.89375 240.17146 80.59688 240.65584L87.6125 240.65584ZM90.3625 242.34334L90.3625 240.34334L92.3625 240.34334L92.3625 242.34334L90.3625 242.34334ZM95.37813 235.28084Q95.37813 232.74959 95.89375 231.20271Q96.425 229.64021 97.45625 228.81209Q98.4875 227.96834 100.05 227.96834Q101.20625 227.96834 102.06563 228.43709Q102.94063 228.89021 103.50313 229.76521Q104.06563 230.64021 104.39375 231.90584Q104.72188 233.15584 104.72188 235.28084Q104.72188 237.79646 104.19063 239.34334Q103.675 240.89021 102.64375 241.74959Q101.62813 242.59334 100.05 242.59334Q97.97188 242.59334 96.8 241.10896Q95.37813 239.31209 95.37813 235.28084ZM97.19063 235.28084Q97.19063 238.81209 98.00313 239.98396Q98.83125 241.14021 100.05 241.14021Q101.25313 241.14021 102.08125 239.96834Q102.90938 238.79646 102.90938 235.28084Q102.90938 231.74959 102.08125 230.59334Q101.25313 229.42146 100.03438 229.42146Q98.81563 229.42146 98.09688 230.45271Q97.19063 231.74959 97.19063 235.28084Z" fill-rule="nonzero"/><path fill="#000000" d="M67.37813 196.48666L69.22188 196.33041Q69.425 197.67416 70.175 198.36166Q70.925 199.03354 71.9875 199.03354Q73.25313 199.03354 74.12813 198.08041Q75.00313 197.12729 75.00313 195.53354Q75.00313 194.03354 74.15938 193.17416Q73.31563 192.29916 71.95625 192.29916Q71.09688 192.29916 70.40938 192.68979Q69.7375 193.06479 69.34688 193.68979L67.69063 193.47104L69.08125 186.11166L76.20625 186.11166L76.20625 187.79916L70.4875 187.79916L69.72188 191.64291Q71.00313 190.73666 72.425 190.73666Q74.3 190.73666 75.58125 192.04916Q76.87813 193.34604 76.87813 195.37729Q76.87813 197.33041 75.7375 198.73666Q74.3625 200.48666 71.9875 200.48666Q70.03438 200.48666 68.78438 199.39291Q67.55 198.29916 67.37813 196.48666ZM84.01875 200.23666L84.01875 196.81479L77.8 196.81479L77.8 195.18979L84.33125 185.92416L85.76875 185.92416L85.76875 195.18979L87.70625 195.18979L87.70625 196.81479L85.76875 196.81479L85.76875 200.23666L84.01875 200.23666ZM84.01875 195.18979L84.01875 188.73666L79.53438 195.18979L84.01875 195.18979ZM90.3625 200.23666L90.3625 198.23666L92.3625 198.23666L92.3625 200.23666L90.3625 200.23666ZM95.37813 193.17416Q95.37813 190.64291 95.89375 189.09604Q96.425 187.53354 97.45625 186.70541Q98.4875 185.86166 100.05 185.86166Q101.20625 185.86166 102.06563 186.33041Q102.94063 186.78354 103.50313 187.65854Q104.06563 188.53354 104.39375 189.79916Q104.72188 191.04916 104.72188 193.17416Q104.72188 195.68979 104.19063 197.23666Q103.675 198.78354 102.64375 199.64291Q101.62813 200.48666 100.05 200.48666Q97.97188 200.48666 96.8 199.00229Q95.37813 197.20541 95.37813 193.17416ZM97.19063 193.17416Q97.19063 196.70541 98.00313 197.87729Q98.83125 199.03354 100.05 199.03354Q101.25313 199.03354 102.08125 197.86166Q102.90938 196.68979 102.90938 193.17416Q102.90938 189.64291 102.08125 188.48666Q101.25313 187.31479 100.03438 187.31479Q98.81563 187.31479 98.09688 188.34604Q97.19063 189.64291 97.19063 193.17416Z" fill-rule="nonzero"/><path fill="#000000" d="M67.37813 154.38L69.22188 154.22375Q69.425 155.5675 70.175 156.255Q70.925 156.92688 71.9875 156.92688Q73.25313 156.92688 74.12813 155.97375Q75.00313 155.02063 75.00313 153.42688Q75.00313 151.92688 74.15938 151.0675Q73.31563 150.1925 71.95625 150.1925Q71.09688 150.1925 70.40938 150.58313Q69.7375 150.95813 69.34688 151.58313L67.69063 151.36438L69.08125 144.005L76.20625 144.005L76.20625 145.6925L70.4875 145.6925L69.72188 149.53625Q71.00313 148.63 72.425 148.63Q74.3 148.63 75.58125 149.9425Q76.87813 151.23938 76.87813 153.27063Q76.87813 155.22375 75.7375 156.63Q74.3625 158.38 71.9875 158.38Q70.03438 158.38 68.78438 157.28625Q67.55 156.1925 67.37813 154.38ZM87.50313 147.3175L85.75313 147.45813Q85.51875 146.42688 85.09688 145.95813Q84.37813 145.1925 83.33125 145.1925Q82.4875 145.1925 81.8625 145.66125Q81.03438 146.27063 80.55 147.4425Q80.06563 148.59875 80.05 150.73938Q80.69063 149.78625 81.59688 149.3175Q82.51875 148.84875 83.53438 148.84875Q85.28438 148.84875 86.51875 150.14563Q87.75313 151.42688 87.75313 153.47375Q87.75313 154.83313 87.175 155.98938Q86.59688 157.14563 85.58125 157.77063Q84.56563 158.38 83.26875 158.38Q81.08125 158.38 79.69063 156.77063Q78.3 155.14563 78.3 151.42688Q78.3 147.28625 79.83125 145.39563Q81.175 143.755 83.44063 143.755Q85.12813 143.755 86.20625 144.70813Q87.28438 145.64563 87.50313 147.3175ZM80.33125 153.48938Q80.33125 154.39563 80.70625 155.22375Q81.09688 156.05188 81.78438 156.48938Q82.4875 156.92688 83.2375 156.92688Q84.3625 156.92688 85.15938 156.03625Q85.95625 155.13 85.95625 153.58313Q85.95625 152.09875 85.15938 151.255Q84.37813 150.39563 83.175 150.39563Q81.9875 150.39563 81.15938 151.255Q80.33125 152.09875 80.33125 153.48938ZM90.3625 158.13L90.3625 156.13L92.3625 156.13L92.3625 158.13L90.3625 158.13ZM95.37813 151.0675Q95.37813 148.53625 95.89375 146.98938Q96.425 145.42688 97.45625 144.59875Q98.4875 143.755 100.05 143.755Q101.20625 143.755 102.06563 144.22375Q102.94063 144.67688 103.50313 145.55188Q104.06563 146.42688 104.39375 147.6925Q104.72188 148.9425 104.72188 151.0675Q104.72188 153.58313 104.19063 155.13Q103.675 156.67688 102.64375 157.53625Q101.62813 158.38 100.05 158.38Q97.97188 158.38 96.8 156.89563Q95.37813 155.09875 95.37813 151.0675ZM97.19063 151.0675Q97.19063 154.59875 98.00313 155.77063Q98.83125 156.92688 100.05 156.92688Q101.25313 156.92688 102.08125 155.755Q102.90938 154.58313 102.90938 151.0675Q102.90938 147.53625 102.08125 146.38Q101.25313 145.20813 100.03438 145.20813Q98.81563 145.20813 98.09688 146.23938Q97.19063 147.53625 97.19063 151.0675Z" fill-rule="nonzero"/><path fill="#000000" d="M67.37813 112.27333L69.22188 112.11708Q69.425 113.46083 70.175 114.14833Q70.925 114.820206 71.9875 114.820206Q73.25313 114.820206 74.12813 113.86708Q75.00313 112.913956 75.00313 111.320206Q75.00313 109.820206 74.15938 108.96083Q73.31563 108.08583 71.95625 108.08583Q71.09688 108.08583 70.40938 108.476456Q69.7375 108.851456 69.34688 109.476456L67.69063 109.257706L69.08125 101.89833L76.20625 101.89833L76.20625 103.58583L70.4875 103.58583L69.72188 107.42958Q71.00313 106.52333 72.425 106.52333Q74.3 106.52333 75.58125 107.83583Q76.87813 109.132706 76.87813 111.163956Q76.87813 113.11708 75.7375 114.52333Q74.3625 116.27333 71.9875 116.27333Q70.03438 116.27333 68.78438 115.17958Q67.55 114.08583 67.37813 112.27333ZM81.08125 108.257706Q79.9875 107.851456 79.45625 107.11708Q78.94063 106.36708 78.94063 105.33583Q78.94063 103.77333 80.06563 102.71083Q81.19063 101.64833 83.05 101.64833Q84.925 101.64833 86.06563 102.74208Q87.20625 103.820206 87.20625 105.382706Q87.20625 106.382706 86.675 107.11708Q86.15938 107.851456 85.09688 108.257706Q86.425 108.695206 87.1125 109.64833Q87.8 110.601456 87.8 111.92958Q87.8 113.77333 86.4875 115.02333Q85.19063 116.27333 83.08125 116.27333Q80.95625 116.27333 79.65938 115.02333Q78.3625 113.757706 78.3625 111.882706Q78.3625 110.49208 79.06563 109.55458Q79.78438 108.601456 81.08125 108.257706ZM80.7375 105.27333Q80.7375 106.288956 81.39375 106.945206Q82.05 107.58583 83.08125 107.58583Q84.09688 107.58583 84.75313 106.945206Q85.40938 106.30458 85.40938 105.382706Q85.40938 104.413956 84.7375 103.757706Q84.06563 103.08583 83.06563 103.08583Q82.06563 103.08583 81.39375 103.74208Q80.7375 104.382706 80.7375 105.27333ZM80.175 111.89833Q80.175 112.64833 80.51875 113.351456Q80.87813 114.05458 81.58125 114.445206Q82.28438 114.820206 83.09688 114.820206Q84.3625 114.820206 85.175 114.007706Q86.00313 113.195206 86.00313 111.945206Q86.00313 110.67958 85.15938 109.851456Q84.31563 109.02333 83.03438 109.02333Q81.8 109.02333 80.9875 109.851456Q80.175 110.663956 80.175 111.89833ZM90.3625 116.02333L90.3625 114.02333L92.3625 114.02333L92.3625 116.02333L90.3625 116.02333ZM95.37813 108.96083Q95.37813 106.42958 95.89375 104.882706Q96.425 103.320206 97.45625 102.49208Q98.4875 101.64833 100.05 101.64833Q101.20625 101.64833 102.06563 102.11708Q102.94063 102.570206 103.50313 103.445206Q104.06563 104.320206 104.39375 105.58583Q104.72188 106.83583 104.72188 108.96083Q104.72188 111.476456 104.19063 113.02333Q103.675 114.570206 102.64375 115.42958Q101.62813 116.27333 100.05 116.27333Q97.97188 116.27333 96.8 114.788956Q95.37813 112.99208 95.37813 108.96083ZM97.19063 108.96083Q97.19063 112.49208 98.00313 113.663956Q98.83125 114.820206 100.05 114.820206Q101.25313 114.820206 102.08125 113.64833Q102.90938 112.476456 102.90938 108.96083Q102.90938 105.42958 102.08125 104.27333Q101.25313 103.101456 100.03438 103.101456Q98.81563 103.101456 98.09688 104.132706Q97.19063 105.42958 97.19063 108.96083Z" fill-rule="nonzero"/><path fill="#000000" d="M76.50313 63.104164L74.75313 63.24479Q74.51875 62.21354 74.09688 61.74479Q73.37813 60.979164 72.33125 60.979164Q71.4875 60.979164 70.8625 61.447914Q70.03438 62.05729 69.55 63.229164Q69.06563 64.385414 69.05 66.52604Q69.69063 65.572914 70.59688 65.104164Q71.51875 64.635414 72.53438 64.635414Q74.28438 64.635414 75.51875 65.93229Q76.75313 67.21354 76.75313 69.260414Q76.75313 70.61979 76.175 71.77604Q75.59688 72.93229 74.58125 73.55729Q73.56563 74.166664 72.26875 74.166664Q70.08125 74.166664 68.69063 72.55729Q67.3 70.93229 67.3 67.21354Q67.3 63.072914 68.83125 61.18229Q70.175 59.541664 72.44063 59.541664Q74.12813 59.541664 75.20625 60.49479Q76.28438 61.43229 76.50313 63.104164ZM69.33125 69.27604Q69.33125 70.18229 69.70625 71.010414Q70.09688 71.83854 70.78438 72.27604Q71.4875 72.71354 72.2375 72.71354Q73.3625 72.71354 74.15938 71.822914Q74.95625 70.916664 74.95625 69.36979Q74.95625 67.885414 74.15938 67.041664Q73.37813 66.18229 72.175 66.18229Q70.9875 66.18229 70.15938 67.041664Q69.33125 67.885414 69.33125 69.27604ZM78.37813 66.854164Q78.37813 64.322914 78.89375 62.77604Q79.425 61.21354 80.45625 60.385414Q81.4875 59.541664 83.05 59.541664Q84.20625 59.541664 85.06563 60.010414Q85.94063 60.46354 86.50313 61.33854Q87.06563 62.21354 87.39375 63.479164Q87.72188 64.729164 87.72188 66.854164Q87.72188 69.36979 87.19063 70.916664Q86.675 72.46354 85.64375 73.322914Q84.62813 74.166664 83.05 74.166664Q80.97188 74.166664 79.8 72.68229Q78.37813 70.885414 78.37813 66.854164ZM80.19063 66.854164Q80.19063 70.385414 81.00313 71.55729Q81.83125 72.71354 83.05 72.71354Q84.25313 72.71354 85.08125 71.541664Q85.90938 70.36979 85.90938 66.854164Q85.90938 63.322914 85.08125 62.166664Q84.25313 60.99479 83.03438 60.99479Q81.81563 60.99479 81.09688 62.02604Q80.19063 63.322914 80.19063 66.854164ZM90.3625 73.916664L90.3625 71.916664L92.3625 71.916664L92.3625 73.916664L90.3625 73.916664ZM95.37813 66.854164Q95.37813 64.322914 95.89375 62.77604Q96.425 61.21354 97.45625 60.385414Q98.4875 59.541664 100.05 59.541664Q101.20625 59.541664 102.06563 60.010414Q102.94063 60.46354 103.50313 61.33854Q104.06563 62.21354 104.39375 63.479164Q104.72188 64.729164 104.72188 66.854164Q104.72188 69.36979 104.19063 70.916664Q103.675 72.46354 102.64375 73.322914Q101.62813 74.166664 100.05 74.166664Q97.97188 74.166664 96.8 72.68229Q95.37813 70.885414 95.37813 66.854164ZM97.19063 66.854164Q97.19063 70.385414 98.00313 71.55729Q98.83125 72.71354 100.05 72.71354Q101.25313 72.71354 102.08125 71.541664Q102.90938 70.36979 102.90938 66.854164Q102.90938 63.322914 102.08125 62.166664Q101.25313 60.99479 100.03438 60.99479Q98.81563 60.99479 98.09688 62.02604Q97.19063 63.322914 97.19063 66.854164Z" fill-rule="nonzero"/><path fill="#000000" d="M163.84805 300.45L162.4418 300.45L162.4418 291.48126Q161.92618 291.96564 161.09805 292.45Q160.28555 292.9344 159.6293 293.1844L159.6293 291.825Q160.80118 291.2625 161.67618 290.48126Q162.5668 289.6844 162.9418 288.95L163.84805 288.95L163.84805 300.45ZM167.55118 294.79376Q167.55118 292.7625 167.95743 291.52814Q168.3793 290.29376 169.20743 289.6219Q170.03555 288.95 171.28555 288.95Q172.20743 288.95 172.89493 289.325Q173.59805 289.6844 174.05118 290.3875Q174.5043 291.09064 174.7543 292.09064Q175.01993 293.09064 175.01993 294.79376Q175.01993 296.8094 174.59805 298.0594Q174.1918 299.29376 173.36368 299.98126Q172.53555 300.65314 171.28555 300.65314Q169.6293 300.65314 168.67618 299.45Q167.55118 298.02814 167.55118 294.79376ZM168.98868 294.79376Q168.98868 297.6219 169.64493 298.5594Q170.3168 299.48126 171.28555 299.48126Q172.2543 299.48126 172.91055 298.54376Q173.5668 297.60626 173.5668 294.79376Q173.5668 291.96564 172.91055 291.04376Q172.2543 290.10626 171.26993 290.10626Q170.30118 290.10626 169.72305 290.9344Q168.98868 291.98126 168.98868 294.79376ZM176.55118 294.79376Q176.55118 292.7625 176.95743 291.52814Q177.3793 290.29376 178.20743 289.6219Q179.03555 288.95 180.28555 288.95Q181.20743 288.95 181.89493 289.325Q182.59805 289.6844 183.05118 290.3875Q183.5043 291.09064 183.7543 292.09064Q184.01993 293.09064 184.01993 294.79376Q184.01993 296.8094 183.59805 298.0594Q183.1918 299.29376 182.36368 299.98126Q181.53555 300.65314 180.28555 300.65314Q178.6293 300.65314 177.67618 299.45Q176.55118 298.02814 176.55118 294.79376ZM177.98868 294.79376Q177.98868 297.6219 178.64493 298.5594Q179.3168 299.48126 180.28555 299.48126Q181.2543 299.48126 181.91055 298.54376Q182.5668 297.60626 182.5668 294.79376Q182.5668 291.96564 181.91055 291.04376Q181.2543 290.10626 180.26993 290.10626Q179.30118 290.10626 178.72305 290.9344Q177.98868 291.98126 177.98868 294.79376ZM185.8168 291.7469Q185.8168 290.5125 186.42618 289.65314Q187.05118 288.79376 188.22305 288.79376Q189.30118 288.79376 190.0043 289.575Q190.70743 290.34064 190.70743 291.825Q190.70743 293.27814 189.98868 294.075Q189.28555 294.85626 188.23868 294.85626Q187.1918 294.85626 186.5043 294.09064Q185.8168 293.3094 185.8168 291.7469ZM188.2543 289.7625Q187.73868 289.7625 187.3793 290.21564Q187.03555 290.66876 187.03555 291.8875Q187.03555 292.98126 187.3793 293.4344Q187.73868 293.8875 188.2543 293.8875Q188.78555 293.8875 189.1293 293.4344Q189.48868 292.98126 189.48868 291.77814Q189.48868 290.66876 189.1293 290.21564Q188.78555 289.7625 188.2543 289.7625ZM188.26993 300.8719L194.53555 288.79376L195.67618 288.79376L189.42618 300.8719L188.26993 300.8719ZM193.22305 297.7625Q193.22305 296.52814 193.83243 295.66876Q194.45743 294.8094 195.6293 294.8094Q196.70743 294.8094 197.41055 295.59064Q198.1293 296.35626 198.1293 297.84064Q198.1293 299.29376 197.41055 300.09064Q196.6918 300.8719 195.64493 300.8719Q194.59805 300.8719 193.91055 300.09064Q193.22305 299.3094 193.22305 297.7625ZM195.67618 295.77814Q195.14493 295.77814 194.78555 296.23126Q194.4418 296.6844 194.4418 297.90314Q194.4418 298.9969 194.78555 299.45Q195.14493 299.90314 195.66055 299.90314Q196.20743 299.90314 196.55118 299.45Q196.89493 298.9969 196.89493 297.79376Q196.89493 296.6844 196.53555 296.23126Q196.1918 295.77814 195.67618 295.77814Z" fill-rule="nonzero"/><path fill="#000000" d="M243.22539 300.45L243.22539 288.9969L248.30351 288.9969Q249.83476 288.9969 250.63164 289.3094Q251.42851 289.60626 251.89726 290.3875Q252.38164 291.16876 252.38164 292.1219Q252.38164 293.34064 251.58476 294.1844Q250.80351 295.0125 249.14726 295.23126Q249.75664 295.52814 250.06914 295.8094Q250.72539 296.41876 251.31914 297.325L253.31914 300.45L251.41289 300.45L249.89726 298.0594Q249.22539 297.02814 248.78789 296.48126Q248.36601 295.9344 248.02226 295.71564Q247.69414 295.4969 247.33476 295.41876Q247.08476 295.35626 246.49101 295.35626L244.74101 295.35626L244.74101 300.45L243.22539 300.45ZM244.74101 294.04376L247.99101 294.04376Q249.03789 294.04376 249.61601 293.84064Q250.20976 293.6219 250.50664 293.15314Q250.81914 292.66876 250.81914 292.1219Q250.81914 291.3094 250.22539 290.79376Q249.63164 290.2625 248.36601 290.2625L244.74101 290.2625L244.74101 294.04376ZM259.42853 299.41876Q258.64728 300.09064 257.92853 300.3719Q257.20978 300.6375 256.38165 300.6375Q255.00664 300.6375 254.27226 299.96564Q253.53789 299.29376 253.53789 298.2625Q253.53789 297.65314 253.81914 297.15314Q254.10039 296.6375 254.53789 296.34064Q254.99101 296.02814 255.55351 295.8719Q255.97539 295.7625 256.80353 295.66876Q258.50665 295.46564 259.31915 295.1844Q259.31915 294.8875 259.31915 294.8094Q259.31915 293.95 258.92853 293.60626Q258.38165 293.1219 257.31915 293.1219Q256.33478 293.1219 255.85039 293.48126Q255.38164 293.825 255.16289 294.7L253.78789 294.5125Q253.97539 293.6375 254.39726 293.09064Q254.83476 292.54376 255.64726 292.2625Q256.45978 291.96564 257.52228 291.96564Q258.58478 291.96564 259.24103 292.21564Q259.9129 292.46564 260.2254 292.84064Q260.5379 293.21564 260.6629 293.79376Q260.74103 294.15314 260.74103 295.09064L260.74103 296.96564Q260.74103 298.9344 260.81915 299.45Q260.9129 299.96564 261.17853 300.45L259.70978 300.45Q259.49103 300.0125 259.42853 299.41876ZM259.31915 296.27814Q258.55353 296.59064 257.02228 296.8094Q256.14728 296.9344 255.78789 297.09064Q255.42851 297.2469 255.22539 297.5594Q255.03789 297.85626 255.03789 298.21564Q255.03789 298.77814 255.45976 299.15314Q255.89726 299.52814 256.70978 299.52814Q257.52228 299.52814 258.14728 299.1844Q258.7879 298.825 259.08478 298.2Q259.31915 297.73126 259.31915 296.79376L259.31915 296.27814ZM263.02228 300.45L263.02228 292.15314L264.2879 292.15314L264.2879 293.325Q265.19415 291.96564 266.92853 291.96564Q267.67853 291.96564 268.30353 292.23126Q268.92853 292.4969 269.24103 292.9344Q269.55353 293.3719 269.67853 293.98126Q269.75665 294.3719 269.75665 295.34064L269.75665 300.45L268.3504 300.45L268.3504 295.40314Q268.3504 294.54376 268.17853 294.1219Q268.02228 293.6844 267.6004 293.4344Q267.19415 293.1844 266.63165 293.1844Q265.7254 293.1844 265.06915 293.7625Q264.42853 294.325 264.42853 295.91876L264.42853 300.45L263.02228 300.45ZM276.39728 300.45L276.39728 299.40314Q275.61603 300.6375 274.08478 300.6375Q273.08478 300.6375 272.25665 300.09064Q271.42853 299.54376 270.95978 298.5594Q270.50665 297.575 270.50665 296.3094Q270.50665 295.0594 270.9129 294.0594Q271.33478 293.04376 272.1629 292.5125Q272.99103 291.96564 274.02228 291.96564Q274.77228 291.96564 275.3504 292.27814Q275.94415 292.59064 276.30353 293.10626L276.30353 288.9969L277.70978 288.9969L277.70978 300.45L276.39728 300.45ZM271.95978 296.3094Q271.95978 297.90314 272.63165 298.7Q273.30353 299.48126 274.20978 299.48126Q275.13165 299.48126 275.77228 298.73126Q276.42853 297.96564 276.42853 296.41876Q276.42853 294.71564 275.77228 293.91876Q275.11603 293.1219 274.14728 293.1219Q273.20978 293.1219 272.58478 293.8875Q271.95978 294.65314 271.95978 296.3094ZM279.49103 296.29376Q279.49103 293.9969 280.77228 292.8875Q281.8504 291.96564 283.38165 291.96564Q285.1004 291.96564 286.17853 293.09064Q287.27228 294.2 287.27228 296.1844Q287.27228 297.77814 286.7879 298.7Q286.30353 299.6219 285.38165 300.1375Q284.4754 300.6375 283.38165 300.6375Q281.64728 300.6375 280.56915 299.52814Q279.49103 298.40314 279.49103 296.29376ZM280.94415 296.29376Q280.94415 297.8875 281.63165 298.6844Q282.33478 299.48126 283.38165 299.48126Q284.42853 299.48126 285.11603 298.6844Q285.81915 297.8875 285.81915 296.2469Q285.81915 294.71564 285.11603 293.91876Q284.42853 293.1219 283.38165 293.1219Q282.33478 293.1219 281.63165 293.91876Q280.94415 294.7 280.94415 296.29376ZM289.02228 300.45L289.02228 292.15314L290.27228 292.15314L290.27228 293.3094Q290.6629 292.7 291.30353 292.34064Q291.95978 291.96564 292.7879 291.96564Q293.70978 291.96564 294.30353 292.35626Q294.89728 292.73126 295.13165 293.41876Q296.11603 291.96564 297.69415 291.96564Q298.92853 291.96564 299.58478 292.65314Q300.25665 293.325 300.25665 294.7469L300.25665 300.45L298.86603 300.45L298.86603 295.21564Q298.86603 294.3719 298.7254 294.0125Q298.58478 293.6375 298.2254 293.41876Q297.86603 293.1844 297.38165 293.1844Q296.50665 293.1844 295.92853 293.7625Q295.3504 294.34064 295.3504 295.6219L295.3504 300.45L293.94415 300.45L293.94415 295.0594Q293.94415 294.1219 293.6004 293.65314Q293.25665 293.1844 292.4754 293.1844Q291.88165 293.1844 291.38165 293.4969Q290.88165 293.8094 290.64728 294.41876Q290.42853 295.0125 290.42853 296.1375L290.42853 300.45L289.02228 300.45Z" fill-rule="nonzero"/><path fill="#000000" d="M323.7121 297.45L325.18085 297.325Q325.35272 298.40314 325.94647 298.95Q326.54022 299.48126 327.38397 299.48126Q328.3996 299.48126 329.10272 298.71564Q329.80585 297.95 329.80585 296.6844Q329.80585 295.48126 329.13397 294.79376Q328.4621 294.09064 327.36835 294.09064Q326.68085 294.09064 326.13397 294.40314Q325.5871 294.71564 325.2746 295.2L323.9621 295.02814L325.07147 289.15314L330.75897 289.15314L330.75897 290.4969L326.19647 290.4969L325.57147 293.575Q326.60272 292.85626 327.74335 292.85626Q329.24335 292.85626 330.2746 293.90314Q331.30585 294.9344 331.30585 296.5594Q331.30585 298.1219 330.3996 299.2469Q329.29022 300.65314 327.38397 300.65314Q325.82147 300.65314 324.8371 299.77814Q323.85272 298.8875 323.7121 297.45ZM332.97772 291.7469Q332.97772 290.5125 333.5871 289.65314Q334.2121 288.79376 335.38397 288.79376Q336.4621 288.79376 337.16522 289.575Q337.86835 290.34064 337.86835 291.825Q337.86835 293.27814 337.1496 294.075Q336.44647 294.85626 335.3996 294.85626Q334.35272 294.85626 333.66522 294.09064Q332.97772 293.3094 332.97772 291.7469ZM335.41522 289.7625Q334.8996 289.7625 334.54022 290.21564Q334.19647 290.66876 334.19647 291.8875Q334.19647 292.98126 334.54022 293.4344Q334.8996 293.8875 335.41522 293.8875Q335.94647 293.8875 336.29022 293.4344Q336.6496 292.98126 336.6496 291.77814Q336.6496 290.66876 336.29022 290.21564Q335.94647 289.7625 335.41522 289.7625ZM335.43085 300.8719L341.69647 288.79376L342.8371 288.79376L336.5871 300.8719L335.43085 300.8719ZM340.38397 297.7625Q340.38397 296.52814 340.99335 295.66876Q341.61835 294.8094 342.79022 294.8094Q343.86835 294.8094 344.57147 295.59064Q345.29022 296.35626 345.29022 297.84064Q345.29022 299.29376 344.57147 300.09064Q343.85272 300.8719 342.80585 300.8719Q341.75897 300.8719 341.07147 300.09064Q340.38397 299.3094 340.38397 297.7625ZM342.8371 295.77814Q342.30585 295.77814 341.94647 296.23126Q341.60272 296.6844 341.60272 297.90314Q341.60272 298.9969 341.94647 299.45Q342.30585 299.90314 342.82147 299.90314Q343.36835 299.90314 343.7121 299.45Q344.05585 298.9969 344.05585 297.79376Q344.05585 296.6844 343.69647 296.23126Q343.35272 295.77814 342.8371 295.77814ZM351.2121 300.45L351.2121 288.9969L352.72772 288.9969L352.72772 299.09064L358.36835 299.09064L358.36835 300.45L351.2121 300.45ZM360.30585 300.45L360.30585 288.9969L368.5871 288.9969L368.5871 290.34064L361.82147 290.34064L361.82147 293.85626L368.16522 293.85626L368.16522 295.2L361.82147 295.2L361.82147 299.09064L368.85272 299.09064L368.85272 300.45L360.30585 300.45ZM370.75897 296.7625L372.19647 296.6375Q372.29022 297.4969 372.66522 298.0594Q373.04022 298.60626 373.82147 298.95Q374.60272 299.27814 375.57147 299.27814Q376.44647 299.27814 377.10272 299.02814Q377.7746 298.7625 378.0871 298.325Q378.41522 297.8719 378.41522 297.34064Q378.41522 296.79376 378.10272 296.40314Q377.79022 295.9969 377.07147 295.71564Q376.61835 295.54376 375.04022 295.16876Q373.4621 294.77814 372.82147 294.45Q372.00897 294.0125 371.60272 293.3875Q371.19647 292.7469 371.19647 291.95Q371.19647 291.09064 371.68085 290.34064Q372.18085 289.575 373.11835 289.1844Q374.07147 288.79376 375.22772 288.79376Q376.50897 288.79376 377.47772 289.21564Q378.44647 289.6219 378.9621 290.41876Q379.49335 291.21564 379.54022 292.21564L378.0871 292.325Q377.9621 291.2469 377.29022 290.7Q376.61835 290.1375 375.29022 290.1375Q373.91522 290.1375 373.29022 290.6375Q372.66522 291.1375 372.66522 291.85626Q372.66522 292.46564 373.10272 292.8719Q373.54022 293.2625 375.38397 293.6844Q377.24335 294.10626 377.93085 294.41876Q378.93085 294.8719 379.3996 295.59064Q379.88397 296.29376 379.88397 297.21564Q379.88397 298.1219 379.35272 298.9344Q378.8371 299.7469 377.85272 300.2Q376.86835 300.65314 375.6496 300.65314Q374.0871 300.65314 373.04022 300.2Q371.99335 299.73126 371.38397 298.825Q370.79022 297.91876 370.75897 296.7625ZM381.75897 296.7625L383.19647 296.6375Q383.29022 297.4969 383.66522 298.0594Q384.04022 298.60626 384.82147 298.95Q385.60272 299.27814 386.57147 299.27814Q387.44647 299.27814 388.10272 299.02814Q388.7746 298.7625 389.0871 298.325Q389.41522 297.8719 389.41522 297.34064Q389.41522 296.79376 389.10272 296.40314Q388.79022 295.9969 388.07147 295.71564Q387.61835 295.54376 386.04022 295.16876Q384.4621 294.77814 383.82147 294.45Q383.00897 294.0125 382.60272 293.3875Q382.19647 292.7469 382.19647 291.95Q382.19647 291.09064 382.68085 290.34064Q383.18085 289.575 384.11835 289.1844Q385.07147 288.79376 386.22772 288.79376Q387.50897 288.79376 388.47772 289.21564Q389.44647 289.6219 389.9621 290.41876Q390.49335 291.21564 390.54022 292.21564L389.0871 292.325Q388.9621 291.2469 388.29022 290.7Q387.61835 290.1375 386.29022 290.1375Q384.91522 290.1375 384.29022 290.6375Q383.66522 291.1375 383.66522 291.85626Q383.66522 292.46564 384.10272 292.8719Q384.54022 293.2625 386.38397 293.6844Q388.24335 294.10626 388.93085 294.41876Q389.93085 294.8719 390.3996 295.59064Q390.88397 296.29376 390.88397 297.21564Q390.88397 298.1219 390.35272 298.9344Q389.8371 299.7469 388.85272 300.2Q387.86835 300.65314 386.6496 300.65314Q385.0871 300.65314 384.04022 300.2Q382.99335 299.73126 382.38397 298.825Q381.79022 297.91876 381.75897 296.7625ZM392.55585 297.0125L392.55585 295.59064L396.86835 295.59064L396.86835 297.0125L392.55585 297.0125ZM401.19647 300.45L401.19647 290.34064L397.41522 290.34064L397.41522 288.9969L406.49335 288.9969L406.49335 290.34064L402.7121 290.34064L402.7121 300.45L401.19647 300.45Z" fill-rule="nonzero"/><path fill="#000000" d="M423.79257 297.45L425.26132 297.325Q425.4332 298.40314 426.02695 298.95Q426.6207 299.48126 427.46445 299.48126Q428.48007 299.48126 429.1832 298.71564Q429.88632 297.95 429.88632 296.6844Q429.88632 295.48126 429.21445 294.79376Q428.54257 294.09064 427.44882 294.09064Q426.76132 294.09064 426.21445 294.40314Q425.66757 294.71564 425.35507 295.2L424.04257 295.02814L425.15195 289.15314L430.83945 289.15314L430.83945 290.4969L426.27695 290.4969L425.65195 293.575Q426.6832 292.85626 427.82382 292.85626Q429.32382 292.85626 430.35507 293.90314Q431.38632 294.9344 431.38632 296.5594Q431.38632 298.1219 430.48007 299.2469Q429.3707 300.65314 427.46445 300.65314Q425.90195 300.65314 424.91757 299.77814Q423.9332 298.8875 423.79257 297.45ZM433.0582 291.7469Q433.0582 290.5125 433.66757 289.65314Q434.29257 288.79376 435.46445 288.79376Q436.54257 288.79376 437.2457 289.575Q437.94882 290.34064 437.94882 291.825Q437.94882 293.27814 437.23007 294.075Q436.52695 294.85626 435.48007 294.85626Q434.4332 294.85626 433.7457 294.09064Q433.0582 293.3094 433.0582 291.7469ZM435.4957 289.7625Q434.98007 289.7625 434.6207 290.21564Q434.27695 290.66876 434.27695 291.8875Q434.27695 292.98126 434.6207 293.4344Q434.98007 293.8875 435.4957 293.8875Q436.02695 293.8875 436.3707 293.4344Q436.73007 292.98126 436.73007 291.77814Q436.73007 290.66876 436.3707 290.21564Q436.02695 289.7625 435.4957 289.7625ZM435.51132 300.8719L441.77695 288.79376L442.91757 288.79376L436.66757 300.8719L435.51132 300.8719ZM440.46445 297.7625Q440.46445 296.52814 441.07382 295.66876Q441.69882 294.8094 442.8707 294.8094Q443.94882 294.8094 444.65195 295.59064Q445.3707 296.35626 445.3707 297.84064Q445.3707 299.29376 444.65195 300.09064Q443.9332 300.8719 442.88632 300.8719Q441.83945 300.8719 441.15195 300.09064Q440.46445 299.3094 440.46445 297.7625ZM442.91757 295.77814Q442.38632 295.77814 442.02695 296.23126Q441.6832 296.6844 441.6832 297.90314Q441.6832 298.9969 442.02695 299.45Q442.38632 299.90314 442.90195 299.90314Q443.44882 299.90314 443.79257 299.45Q444.13632 298.9969 444.13632 297.79376Q444.13632 296.6844 443.77695 296.23126Q443.4332 295.77814 442.91757 295.77814ZM451.29257 300.45L451.29257 288.9969L452.8082 288.9969L452.8082 299.09064L458.44882 299.09064L458.44882 300.45L451.29257 300.45ZM460.38632 300.45L460.38632 288.9969L468.66757 288.9969L468.66757 290.34064L461.90195 290.34064L461.90195 293.85626L468.2457 293.85626L468.2457 295.2L461.90195 295.2L461.90195 299.09064L468.9332 299.09064L468.9332 300.45L460.38632 300.45ZM470.83945 296.7625L472.27695 296.6375Q472.3707 297.4969 472.7457 298.0594Q473.1207 298.60626 473.90195 298.95Q474.6832 299.27814 475.65195 299.27814Q476.52695 299.27814 477.1832 299.02814Q477.85507 298.7625 478.16757 298.325Q478.4957 297.8719 478.4957 297.34064Q478.4957 296.79376 478.1832 296.40314Q477.8707 295.9969 477.15195 295.71564Q476.69882 295.54376 475.1207 295.16876Q473.54257 294.77814 472.90195 294.45Q472.08945 294.0125 471.6832 293.3875Q471.27695 292.7469 471.27695 291.95Q471.27695 291.09064 471.76132 290.34064Q472.26132 289.575 473.19882 289.1844Q474.15195 288.79376 475.3082 288.79376Q476.58945 288.79376 477.5582 289.21564Q478.52695 289.6219 479.04257 290.41876Q479.57382 291.21564 479.6207 292.21564L478.16757 292.325Q478.04257 291.2469 477.3707 290.7Q476.69882 290.1375 475.3707 290.1375Q473.9957 290.1375 473.3707 290.6375Q472.7457 291.1375 472.7457 291.85626Q472.7457 292.46564 473.1832 292.8719Q473.6207 293.2625 475.46445 293.6844Q477.32382 294.10626 478.01132 294.41876Q479.01132 294.8719 479.48007 295.59064Q479.96445 296.29376 479.96445 297.21564Q479.96445 298.1219 479.4332 298.9344Q478.91757 299.7469 477.9332 300.2Q476.94882 300.65314 475.73007 300.65314Q474.16757 300.65314 473.1207 300.2Q472.07382 299.73126 471.46445 298.825Q470.8707 297.91876 470.83945 296.7625ZM481.83945 296.7625L483.27695 296.6375Q483.3707 297.4969 483.7457 298.0594Q484.1207 298.60626 484.90195 298.95Q485.6832 299.27814 486.65195 299.27814Q487.52695 299.27814 488.1832 299.02814Q488.85507 298.7625 489.16757 298.325Q489.4957 297.8719 489.4957 297.34064Q489.4957 296.79376 489.1832 296.40314Q488.8707 295.9969 488.15195 295.71564Q487.69882 295.54376 486.1207 295.16876Q484.54257 294.77814 483.90195 294.45Q483.08945 294.0125 482.6832 293.3875Q482.27695 292.7469 482.27695 291.95Q482.27695 291.09064 482.76132 290.34064Q483.26132 289.575 484.19882 289.1844Q485.15195 288.79376 486.3082 288.79376Q487.58945 288.79376 488.5582 289.21564Q489.52695 289.6219 490.04257 290.41876Q490.57382 291.21564 490.6207 292.21564L489.16757 292.325Q489.04257 291.2469 488.3707 290.7Q487.69882 290.1375 486.3707 290.1375Q484.9957 290.1375 484.3707 290.6375Q483.7457 291.1375 483.7457 291.85626Q483.7457 292.46564 484.1832 292.8719Q484.6207 293.2625 486.46445 293.6844Q488.32382 294.10626 489.01132 294.41876Q490.01132 294.8719 490.48007 295.59064Q490.96445 296.29376 490.96445 297.21564Q490.96445 298.1219 490.4332 298.9344Q489.91757 299.7469 488.9332 300.2Q487.94882 300.65314 486.73007 300.65314Q485.16757 300.65314 484.1207 300.2Q483.07382 299.73126 482.46445 298.825Q481.8707 297.91876 481.83945 296.7625Z" fill-rule="nonzero"/><path fill="#757575" d="M52.301582 36.55L52.301582 23.925L47.582832 23.925L47.582832 22.2375L58.926582 22.2375L58.926582 23.925L54.192207 23.925L54.192207 36.55L52.301582 36.55ZM60.410957 36.55L60.410957 26.175L61.989082 26.175L61.989082 27.753124Q62.598457 26.64375 63.114082 26.3Q63.629707 25.940624 64.23908 25.940624Q65.12971 25.940624 66.05158 26.503124L65.44221 28.14375Q64.80158 27.753124 64.16096 27.753124Q63.582832 27.753124 63.114082 28.1125Q62.660957 28.45625 62.457832 29.065624Q62.176582 30.003124 62.176582 31.1125L62.176582 36.55L60.410957 36.55ZM74.20783 35.26875Q73.22346 36.096874 72.31721 36.440624Q71.41096 36.784374 70.37971 36.784374Q68.67658 36.784374 67.75471 35.95625Q66.83283 35.1125 66.83283 33.815624Q66.83283 33.05 67.17658 32.425Q67.53596 31.8 68.09846 31.425Q68.66096 31.034374 69.36408 30.83125Q69.87971 30.70625 70.92658 30.565624Q73.05158 30.315624 74.05158 29.971874Q74.06721 29.6125 74.06721 29.503124Q74.06721 28.440624 73.56721 27.9875Q72.89533 27.39375 71.56721 27.39375Q70.31721 27.39375 69.72346 27.83125Q69.14533 28.26875 68.86408 29.378124L67.14533 29.14375Q67.37971 28.034374 67.91096 27.3625Q68.44221 26.675 69.45783 26.315624Q70.47346 25.940624 71.81721 25.940624Q73.14533 25.940624 73.97346 26.253124Q74.80158 26.565624 75.19221 27.05Q75.58283 27.51875 75.73908 28.2375Q75.83283 28.690624 75.83283 29.8625L75.83283 32.20625Q75.83283 34.659374 75.94221 35.315624Q76.05158 35.95625 76.39533 36.55L74.55158 36.55Q74.28596 36.003124 74.20783 35.26875ZM74.05158 31.346874Q73.09846 31.7375 71.17658 32.003124Q70.09846 32.159374 69.64533 32.3625Q69.20783 32.55 68.95783 32.925Q68.70783 33.3 68.70783 33.76875Q68.70783 34.471874 69.23908 34.940624Q69.77033 35.409374 70.80158 35.409374Q71.81721 35.409374 72.59846 34.971874Q73.39533 34.51875 73.77033 33.753124Q74.05158 33.14375 74.05158 31.9875L74.05158 31.346874ZM78.44221 24.253124L78.44221 22.2375L80.20783 22.2375L80.20783 24.253124L78.44221 24.253124ZM78.44221 36.55L78.44221 26.175L80.20783 26.175L80.20783 36.55L78.44221 36.55ZM82.42658 36.55L82.42658 26.175L84.02033 26.175L84.02033 27.659374Q85.16096 25.940624 87.31721 25.940624Q88.25471 25.940624 89.03596 26.284374Q89.83283 26.6125 90.22346 27.159374Q90.61408 27.70625 90.77033 28.45625Q90.86408 28.95625 90.86408 30.175L90.86408 36.55L89.09846 36.55L89.09846 30.2375Q89.09846 29.159374 88.89533 28.628124Q88.69221 28.096874 88.16096 27.784374Q87.64533 27.471874 86.94221 27.471874Q85.81721 27.471874 85.00471 28.190624Q84.19221 28.89375 84.19221 30.878124L84.19221 36.55L82.42658 36.55ZM98.59846 36.55L98.59846 22.2375L101.45783 22.2375L104.83283 32.3625Q105.30158 33.784374 105.52033 34.4875Q105.77033 33.70625 106.28596 32.190624L109.70783 22.2375L112.25471 22.2375L112.25471 36.55L110.44221 36.55L110.44221 24.565624L106.27033 36.55L104.56721 36.55L100.42658 24.3625L100.42658 36.55L98.59846 36.55ZM115.44221 24.253124L115.44221 22.2375L117.20783 22.2375L117.20783 24.253124L115.44221 24.253124ZM115.44221 36.55L115.44221 26.175L117.20783 26.175L117.20783 36.55L115.44221 36.55ZM118.72346 33.45625L120.47346 33.175Q120.61408 34.221874 121.28596 34.784374Q121.95783 35.33125 123.16096 35.33125Q124.36408 35.33125 124.94221 34.846874Q125.53596 34.346874 125.53596 33.690624Q125.53596 33.096874 125.02033 32.753124Q124.66096 32.51875 123.22346 32.159374Q121.28596 31.659374 120.53596 31.315624Q119.80158 30.95625 119.41096 30.33125Q119.02033 29.690624 119.02033 28.925Q119.02033 28.2375 119.33283 27.64375Q119.66096 27.05 120.20783 26.659374Q120.61408 26.3625 121.31721 26.159374Q122.03596 25.940624 122.84846 25.940624Q124.06721 25.940624 124.98908 26.3Q125.91096 26.64375 126.34846 27.253124Q126.78596 27.846874 126.95783 28.846874L125.23908 29.08125Q125.11408 28.284374 124.55158 27.846874Q123.98908 27.39375 122.97346 27.39375Q121.75471 27.39375 121.23908 27.8Q120.72346 28.190624 120.72346 28.721874Q120.72346 29.065624 120.94221 29.346874Q121.14533 29.628124 121.61408 29.815624Q121.87971 29.909374 123.16096 30.253124Q125.03596 30.753124 125.77033 31.08125Q126.50471 31.39375 126.92658 32.003124Q127.34846 32.596874 127.34846 33.503124Q127.34846 34.378124 126.83283 35.159374Q126.31721 35.940624 125.34846 36.3625Q124.37971 36.784374 123.16096 36.784374Q121.14533 36.784374 120.08283 35.940624Q119.02033 35.096874 118.72346 33.45625ZM133.27032 34.971874L133.52032 36.534374Q132.78595 36.690624 132.1922 36.690624Q131.23907 36.690624 130.70782 36.39375Q130.1922 36.08125 129.97345 35.596874Q129.7547 35.096874 129.7547 33.51875L129.7547 27.55L128.47345 27.55L128.47345 26.175L129.7547 26.175L129.7547 23.6125L131.5047 22.55L131.5047 26.175L133.27032 26.175L133.27032 27.55L131.5047 27.55L131.5047 33.6125Q131.5047 34.3625 131.59845 34.58125Q131.6922 34.784374 131.89532 34.925Q132.11407 35.05 132.5047 35.05Q132.78595 35.05 133.27032 34.971874ZM135.41095 36.55L135.41095 26.175L136.98907 26.175L136.98907 27.753124Q137.59845 26.64375 138.11407 26.3Q138.6297 25.940624 139.23907 25.940624Q140.1297 25.940624 141.05157 26.503124L140.4422 28.14375Q139.80157 27.753124 139.16095 27.753124Q138.58282 27.753124 138.11407 28.1125Q137.66095 28.45625 137.45782 29.065624Q137.17657 30.003124 137.17657 31.1125L137.17657 36.55L135.41095 36.55ZM149.20782 35.26875Q148.22345 36.096874 147.3172 36.440624Q146.41095 36.784374 145.3797 36.784374Q143.67657 36.784374 142.7547 35.95625Q141.83282 35.1125 141.83282 33.815624Q141.83282 33.05 142.17657 32.425Q142.53595 31.8 143.09845 31.425Q143.66095 31.034374 144.36407 30.83125Q144.8797 30.70625 145.92657 30.565624Q148.05157 30.315624 149.05157 29.971874Q149.0672 29.6125 149.0672 29.503124Q149.0672 28.440624 148.5672 27.9875Q147.89532 27.39375 146.5672 27.39375Q145.3172 27.39375 144.72345 27.83125Q144.14532 28.26875 143.86407 29.378124L142.14532 29.14375Q142.3797 28.034374 142.91095 27.3625Q143.4422 26.675 144.45782 26.315624Q145.47345 25.940624 146.8172 25.940624Q148.14532 25.940624 148.97345 26.253124Q149.80157 26.565624 150.1922 27.05Q150.58282 27.51875 150.73907 28.2375Q150.83282 28.690624 150.83282 29.8625L150.83282 32.20625Q150.83282 34.659374 150.9422 35.315624Q151.05157 35.95625 151.39532 36.55L149.55157 36.55Q149.28595 36.003124 149.20782 35.26875ZM149.05157 31.346874Q148.09845 31.7375 146.17657 32.003124Q145.09845 32.159374 144.64532 32.3625Q144.20782 32.55 143.95782 32.925Q143.70782 33.3 143.70782 33.76875Q143.70782 34.471874 144.23907 34.940624Q144.77032 35.409374 145.80157 35.409374Q146.8172 35.409374 147.59845 34.971874Q148.39532 34.51875 148.77032 33.753124Q149.05157 33.14375 149.05157 31.9875L149.05157 31.346874ZM153.39532 36.55L153.39532 22.2375L155.14532 22.2375L155.14532 36.55L153.39532 36.55ZM156.7547 32.253124L156.7547 30.4875L162.14532 30.4875L162.14532 32.253124L156.7547 32.253124ZM164.0672 24.1125L164.0672 22.425L173.33282 22.425L173.33282 23.784374Q171.95782 25.2375 170.61407 27.659374Q169.27032 30.065624 168.55157 32.6125Q168.02032 34.409374 167.86407 36.55L166.0672 36.55Q166.09845 34.8625 166.72345 32.471874Q167.36407 30.08125 168.55157 27.8625Q169.73907 25.628124 171.0672 24.1125L164.0672 24.1125ZM175.58282 36.55L175.58282 22.2375L180.95782 22.2375Q182.59845 22.2375 183.58282 22.675Q184.5672 23.096874 185.1297 24.003124Q185.6922 24.909374 185.6922 25.89375Q185.6922 26.815624 185.1922 27.628124Q184.70782 28.440624 183.6922 28.925Q184.98907 29.315624 185.6922 30.2375Q186.39532 31.14375 186.39532 32.39375Q186.39532 33.409374 185.95782 34.26875Q185.53595 35.128124 184.91095 35.596874Q184.28595 36.065624 183.34845 36.315624Q182.41095 36.55 181.03595 36.55L175.58282 36.55ZM177.47345 28.253124L180.5672 28.253124Q181.83282 28.253124 182.3797 28.08125Q183.09845 27.8625 183.45782 27.378124Q183.83282 26.878124 183.83282 26.1125Q183.83282 25.409374 183.48907 24.8625Q183.14532 24.315624 182.5047 24.128124Q181.8797 23.925 180.33282 23.925L177.47345 23.925L177.47345 28.253124ZM177.47345 34.8625L181.03595 34.8625Q181.95782 34.8625 182.33282 34.784374Q182.98907 34.675 183.42657 34.409374Q183.86407 34.128124 184.14532 33.6125Q184.42657 33.08125 184.42657 32.39375Q184.42657 31.596874 184.02032 31.003124Q183.61407 30.409374 182.8797 30.175Q182.14532 29.940624 180.78595 29.940624L177.47345 29.940624L177.47345 34.8625ZM193.78595 31.3625Q193.78595 28.4875 195.3797 27.096874Q196.72345 25.940624 198.64532 25.940624Q200.78595 25.940624 202.1297 27.346874Q203.48907 28.753124 203.48907 31.221874Q203.48907 33.221874 202.89532 34.378124Q202.30157 35.51875 201.14532 36.159374Q200.0047 36.784374 198.64532 36.784374Q196.45782 36.784374 195.11407 35.39375Q193.78595 33.9875 193.78595 31.3625ZM195.58282 31.3625Q195.58282 33.3625 196.4422 34.346874Q197.3172 35.33125 198.64532 35.33125Q199.95782 35.33125 200.8172 34.346874Q201.6922 33.346874 201.6922 31.3Q201.6922 29.378124 200.8172 28.39375Q199.9422 27.39375 198.64532 27.39375Q197.3172 27.39375 196.4422 28.39375Q195.58282 29.378124 195.58282 31.3625ZM205.42657 36.55L205.42657 26.175L207.02032 26.175L207.02032 27.659374Q208.16095 25.940624 210.3172 25.940624Q211.2547 25.940624 212.03595 26.284374Q212.83282 26.6125 213.22345 27.159374Q213.61407 27.70625 213.77032 28.45625Q213.86407 28.95625 213.86407 30.175L213.86407 36.55L212.09845 36.55L212.09845 30.2375Q212.09845 29.159374 211.89532 28.628124Q211.6922 28.096874 211.16095 27.784374Q210.64532 27.471874 209.9422 27.471874Q208.8172 27.471874 208.0047 28.190624Q207.1922 28.89375 207.1922 30.878124L207.1922 36.55L205.42657 36.55ZM221.7547 36.55L221.7547 22.2375L231.41095 22.2375L231.41095 23.925L223.64532 23.925L223.64532 28.3625L230.36407 28.3625L230.36407 30.05L223.64532 30.05L223.64532 36.55L221.7547 36.55ZM240.22345 36.55L240.22345 35.01875Q239.02032 36.784374 236.9422 36.784374Q236.02032 36.784374 235.22345 36.440624Q234.42657 36.08125 234.03595 35.55Q233.66095 35.01875 233.5047 34.2375Q233.39532 33.721874 233.39532 32.596874L233.39532 26.175L235.14532 26.175L235.14532 31.925Q235.14532 33.3 235.2547 33.784374Q235.42657 34.471874 235.95782 34.878124Q236.5047 35.26875 237.28595 35.26875Q238.08282 35.26875 238.77032 34.8625Q239.47345 34.45625 239.7547 33.76875Q240.05157 33.065624 240.05157 31.7375L240.05157 26.175L241.80157 26.175L241.80157 36.55L240.22345 36.55ZM243.39532 36.55L243.39532 22.2375L245.14532 22.2375L245.14532 36.55L243.39532 36.55ZM247.39532 36.55L247.39532 22.2375L249.14532 22.2375L249.14532 36.55L247.39532 36.55ZM257.66095 36.55L257.66095 22.2375L262.58282 22.2375Q264.2547 22.2375 265.14532 22.440624Q266.36407 22.721874 267.23907 23.45625Q268.36407 24.425 268.92657 25.909374Q269.48907 27.39375 269.48907 29.315624Q269.48907 30.940624 269.11407 32.20625Q268.73907 33.45625 268.1297 34.284374Q267.53595 35.1125 266.83282 35.596874Q266.1297 36.065624 265.1297 36.315624Q264.1297 36.55 262.8172 36.55L257.66095 36.55ZM259.55157 34.8625L262.61407 34.8625Q264.02032 34.8625 264.8172 34.596874Q265.6297 34.33125 266.11407 33.846874Q266.78595 33.175 267.16095 32.05Q267.53595 30.909374 267.53595 29.284374Q267.53595 27.034374 266.80157 25.83125Q266.0672 24.628124 265.0047 24.221874Q264.2547 23.925 262.5672 23.925L259.55157 23.925L259.55157 34.8625ZM278.20782 35.26875Q277.22345 36.096874 276.3172 36.440624Q275.41095 36.784374 274.3797 36.784374Q272.67657 36.784374 271.7547 35.95625Q270.83282 35.1125 270.83282 33.815624Q270.83282 33.05 271.17657 32.425Q271.53595 31.8 272.09845 31.425Q272.66095 31.034374 273.36407 30.83125Q273.8797 30.70625 274.92657 30.565624Q277.05157 30.315624 278.05157 29.971874Q278.0672 29.6125 278.0672 29.503124Q278.0672 28.440624 277.5672 27.9875Q276.89532 27.39375 275.5672 27.39375Q274.3172 27.39375 273.72345 27.83125Q273.14532 28.26875 272.86407 29.378124L271.14532 29.14375Q271.3797 28.034374 271.91095 27.3625Q272.4422 26.675 273.45782 26.315624Q274.47345 25.940624 275.8172 25.940624Q277.14532 25.940624 277.97345 26.253124Q278.80157 26.565624 279.1922 27.05Q279.58282 27.51875 279.73907 28.2375Q279.83282 28.690624 279.83282 29.8625L279.83282 32.20625Q279.83282 34.659374 279.9422 35.315624Q280.05157 35.95625 280.39532 36.55L278.55157 36.55Q278.28595 36.003124 278.20782 35.26875ZM278.05157 31.346874Q277.09845 31.7375 275.17657 32.003124Q274.09845 32.159374 273.64532 32.3625Q273.20782 32.55 272.95782 32.925Q272.70782 33.3 272.70782 33.76875Q272.70782 34.471874 273.23907 34.940624Q273.77032 35.409374 274.80157 35.409374Q275.8172 35.409374 276.59845 34.971874Q277.39532 34.51875 277.77032 33.753124Q278.05157 33.14375 278.05157 31.9875L278.05157 31.346874ZM286.27032 34.971874L286.52032 36.534374Q285.78595 36.690624 285.1922 36.690624Q284.23907 36.690624 283.70782 36.39375Q283.1922 36.08125 282.97345 35.596874Q282.7547 35.096874 282.7547 33.51875L282.7547 27.55L281.47345 27.55L281.47345 26.175L282.7547 26.175L282.7547 23.6125L284.5047 22.55L284.5047 26.175L286.27032 26.175L286.27032 27.55L284.5047 27.55L284.5047 33.6125Q284.5047 34.3625 284.59845 34.58125Q284.6922 34.784374 284.89532 34.925Q285.11407 35.05 285.5047 35.05Q285.78595 35.05 286.27032 34.971874ZM295.20782 35.26875Q294.22345 36.096874 293.3172 36.440624Q292.41095 36.784374 291.3797 36.784374Q289.67657 36.784374 288.7547 35.95625Q287.83282 35.1125 287.83282 33.815624Q287.83282 33.05 288.17657 32.425Q288.53595 31.8 289.09845 31.425Q289.66095 31.034374 290.36407 30.83125Q290.8797 30.70625 291.92657 30.565624Q294.05157 30.315624 295.05157 29.971874Q295.0672 29.6125 295.0672 29.503124Q295.0672 28.440624 294.5672 27.9875Q293.89532 27.39375 292.5672 27.39375Q291.3172 27.39375 290.72345 27.83125Q290.14532 28.26875 289.86407 29.378124L288.14532 29.14375Q288.3797 28.034374 288.91095 27.3625Q289.4422 26.675 290.45782 26.315624Q291.47345 25.940624 292.8172 25.940624Q294.14532 25.940624 294.97345 26.253124Q295.80157 26.565624 296.1922 27.05Q296.58282 27.51875 296.73907 28.2375Q296.83282 28.690624 296.83282 29.8625L296.83282 32.20625Q296.83282 34.659374 296.9422 35.315624Q297.05157 35.95625 297.39532 36.55L295.55157 36.55Q295.28595 36.003124 295.20782 35.26875ZM295.05157 31.346874Q294.09845 31.7375 292.17657 32.003124Q291.09845 32.159374 290.64532 32.3625Q290.20782 32.55 289.95782 32.925Q289.70782 33.3 289.70782 33.76875Q289.70782 34.471874 290.23907 34.940624Q290.77032 35.409374 291.80157 35.409374Q292.8172 35.409374 293.59845 34.971874Q294.39532 34.51875 294.77032 33.753124Q295.05157 33.14375 295.05157 31.9875L295.05157 31.346874ZM304.78595 31.3625Q304.78595 28.4875 306.3797 27.096874Q307.72345 25.940624 309.64532 25.940624Q311.78595 25.940624 313.1297 27.346874Q314.48907 28.753124 314.48907 31.221874Q314.48907 33.221874 313.89532 34.378124Q313.30157 35.51875 312.14532 36.159374Q311.0047 36.784374 309.64532 36.784374Q307.45782 36.784374 306.11407 35.39375Q304.78595 33.9875 304.78595 31.3625ZM306.58282 31.3625Q306.58282 33.3625 307.4422 34.346874Q308.3172 35.33125 309.64532 35.33125Q310.95782 35.33125 311.8172 34.346874Q312.6922 33.346874 312.6922 31.3Q312.6922 29.378124 311.8172 28.39375Q310.9422 27.39375 309.64532 27.39375Q308.3172 27.39375 307.4422 28.39375Q306.58282 29.378124 306.58282 31.3625ZM316.41095 36.55L316.41095 26.175L317.98907 26.175L317.98907 27.753124Q318.59845 26.64375 319.11407 26.3Q319.6297 25.940624 320.23907 25.940624Q321.1297 25.940624 322.05157 26.503124L321.4422 28.14375Q320.80157 27.753124 320.16095 27.753124Q319.58282 27.753124 319.11407 28.1125Q318.66095 28.45625 318.45782 29.065624Q318.17657 30.003124 318.17657 31.1125L318.17657 36.55L316.41095 36.55ZM328.9422 32.8L330.78595 32.64375Q330.98907 33.9875 331.73907 34.675Q332.48907 35.346874 333.55157 35.346874Q334.8172 35.346874 335.6922 34.39375Q336.5672 33.440624 336.5672 31.846874Q336.5672 30.346874 335.72345 29.4875Q334.8797 28.6125 333.52032 28.6125Q332.66095 28.6125 331.97345 29.003124Q331.30157 29.378124 330.91095 30.003124L329.2547 29.784374L330.64532 22.425L337.77032 22.425L337.77032 24.1125L332.05157 24.1125L331.28595 27.95625Q332.5672 27.05 333.98907 27.05Q335.86407 27.05 337.14532 28.3625Q338.4422 29.659374 338.4422 31.690624Q338.4422 33.64375 337.30157 35.05Q335.92657 36.8 333.55157 36.8Q331.59845 36.8 330.34845 35.70625Q329.11407 34.6125 328.9422 32.8ZM340.27032 25.675Q340.27032 24.14375 341.03595 23.065624Q341.8172 21.9875 343.28595 21.9875Q344.6297 21.9875 345.5047 22.95625Q346.39532 23.909374 346.39532 25.784374Q346.39532 27.596874 345.5047 28.58125Q344.61407 29.55 343.30157 29.55Q342.0047 29.55 341.1297 28.596874Q340.27032 27.628124 340.27032 25.675ZM343.33282 23.20625Q342.67657 23.20625 342.23907 23.76875Q341.8172 24.33125 341.8172 25.846874Q341.8172 27.221874 342.2547 27.784374Q342.6922 28.346874 343.33282 28.346874Q344.0047 28.346874 344.42657 27.784374Q344.86407 27.20625 344.86407 25.70625Q344.86407 24.315624 344.42657 23.76875Q343.98907 23.20625 343.33282 23.20625ZM343.34845 37.08125L351.17657 21.9875L352.59845 21.9875L344.80157 37.08125L343.34845 37.08125ZM349.53595 33.190624Q349.53595 31.64375 350.30157 30.58125Q351.08282 29.503124 352.55157 29.503124Q353.89532 29.503124 354.77032 30.471874Q355.66095 31.425 355.66095 33.3Q355.66095 35.1125 354.77032 36.096874Q353.8797 37.08125 352.5672 37.08125Q351.27032 37.08125 350.39532 36.1125Q349.53595 35.128124 349.53595 33.190624ZM352.59845 30.721874Q351.9422 30.721874 351.5047 31.284374Q351.0672 31.846874 351.0672 33.3625Q351.0672 34.7375 351.5047 35.3Q351.9422 35.8625 352.59845 35.8625Q353.27032 35.8625 353.6922 35.3Q354.1297 34.7375 354.1297 33.221874Q354.1297 31.846874 353.6922 31.284374Q353.2547 30.721874 352.59845 30.721874ZM364.02032 31.95625L365.80157 31.8Q365.92657 32.8625 366.3797 33.55Q366.84845 34.2375 367.8172 34.675Q368.80157 35.096874 370.03595 35.096874Q371.11407 35.096874 371.9422 34.784374Q372.77032 34.45625 373.17657 33.89375Q373.58282 33.33125 373.58282 32.659374Q373.58282 31.9875 373.1922 31.4875Q372.80157 30.9875 371.91095 30.64375Q371.33282 30.409374 369.34845 29.940624Q367.3797 29.471874 366.59845 29.05Q365.5672 28.51875 365.0672 27.721874Q364.5672 26.925 364.5672 25.940624Q364.5672 24.846874 365.17657 23.909374Q365.78595 22.971874 366.97345 22.4875Q368.16095 21.9875 369.59845 21.9875Q371.1922 21.9875 372.41095 22.503124Q373.6297 23.01875 374.27032 24.01875Q374.92657 25.003124 374.97345 26.26875L373.16095 26.409374Q373.02032 25.05 372.17657 24.3625Q371.33282 23.659374 369.67657 23.659374Q367.95782 23.659374 367.16095 24.3Q366.3797 24.925 366.3797 25.8Q366.3797 26.58125 366.9422 27.08125Q367.48907 27.58125 369.80157 28.096874Q372.11407 28.6125 372.97345 29.003124Q374.22345 29.58125 374.8172 30.471874Q375.41095 31.346874 375.41095 32.503124Q375.41095 33.64375 374.7547 34.659374Q374.09845 35.675 372.86407 36.2375Q371.64532 36.8 370.11407 36.8Q368.17657 36.8 366.86407 36.2375Q365.55157 35.659374 364.80157 34.51875Q364.05157 33.378124 364.02032 31.95625ZM384.53595 33.20625L386.34845 33.440624Q385.92657 35.01875 384.7547 35.909374Q383.59845 36.784374 381.78595 36.784374Q379.52032 36.784374 378.17657 35.39375Q376.84845 33.9875 376.84845 31.45625Q376.84845 28.83125 378.1922 27.39375Q379.53595 25.940624 381.6922 25.940624Q383.77032 25.940624 385.08282 27.3625Q386.41095 28.76875 386.41095 31.346874Q386.41095 31.503124 386.39532 31.815624L378.66095 31.815624Q378.7547 33.51875 379.6297 34.425Q380.5047 35.33125 381.80157 35.33125Q382.77032 35.33125 383.4422 34.83125Q384.1297 34.315624 384.53595 33.20625ZM378.7547 30.3625L384.55157 30.3625Q384.4422 29.065624 383.89532 28.409374Q383.05157 27.39375 381.70782 27.39375Q380.5047 27.39375 379.67657 28.20625Q378.84845 29.003124 378.7547 30.3625ZM388.39532 36.55L388.39532 22.2375L390.14532 22.2375L390.14532 36.55L388.39532 36.55ZM399.53595 33.20625L401.34845 33.440624Q400.92657 35.01875 399.7547 35.909374Q398.59845 36.784374 396.78595 36.784374Q394.52032 36.784374 393.17657 35.39375Q391.84845 33.9875 391.84845 31.45625Q391.84845 28.83125 393.1922 27.39375Q394.53595 25.940624 396.6922 25.940624Q398.77032 25.940624 400.08282 27.3625Q401.41095 28.76875 401.41095 31.346874Q401.41095 31.503124 401.39532 31.815624L393.66095 31.815624Q393.7547 33.51875 394.6297 34.425Q395.5047 35.33125 396.80157 35.33125Q397.77032 35.33125 398.4422 34.83125Q399.1297 34.315624 399.53595 33.20625ZM393.7547 30.3625L399.55157 30.3625Q399.4422 29.065624 398.89532 28.409374Q398.05157 27.39375 396.70782 27.39375Q395.5047 27.39375 394.67657 28.20625Q393.84845 29.003124 393.7547 30.3625ZM410.20782 32.753124L411.92657 32.971874Q411.64532 34.76875 410.47345 35.784374Q409.3172 36.784374 407.61407 36.784374Q405.48907 36.784374 404.1922 35.39375Q402.89532 34.003124 402.89532 31.409374Q402.89532 29.721874 403.4422 28.471874Q404.0047 27.20625 405.14532 26.58125Q406.28595 25.940624 407.6297 25.940624Q409.3172 25.940624 410.3797 26.8Q411.45782 27.659374 411.77032 29.221874L410.05157 29.4875Q409.8172 28.440624 409.1922 27.925Q408.5672 27.39375 407.6922 27.39375Q406.36407 27.39375 405.53595 28.346874Q404.70782 29.3 404.70782 31.346874Q404.70782 33.440624 405.5047 34.39375Q406.30157 35.33125 407.59845 35.33125Q408.6297 35.33125 409.3172 34.70625Q410.02032 34.065624 410.20782 32.753124ZM417.27032 34.971874L417.52032 36.534374Q416.78595 36.690624 416.1922 36.690624Q415.23907 36.690624 414.70782 36.39375Q414.1922 36.08125 413.97345 35.596874Q413.7547 35.096874 413.7547 33.51875L413.7547 27.55L412.47345 27.55L412.47345 26.175L413.7547 26.175L413.7547 23.6125L415.5047 22.55L415.5047 26.175L417.27032 26.175L417.27032 27.55L415.5047 27.55L415.5047 33.6125Q415.5047 34.3625 415.59845 34.58125Q415.6922 34.784374 415.89532 34.925Q416.11407 35.05 416.5047 35.05Q416.78595 35.05 417.27032 34.971874ZM426.53595 33.20625L428.34845 33.440624Q427.92657 35.01875 426.7547 35.909374Q425.59845 36.784374 423.78595 36.784374Q421.52032 36.784374 420.17657 35.39375Q418.84845 33.9875 418.84845 31.45625Q418.84845 28.83125 420.1922 27.39375Q421.53595 25.940624 423.6922 25.940624Q425.77032 25.940624 427.08282 27.3625Q428.41095 28.76875 428.41095 31.346874Q428.41095 31.503124 428.39532 31.815624L420.66095 31.815624Q420.7547 33.51875 421.6297 34.425Q422.5047 35.33125 423.80157 35.33125Q424.77032 35.33125 425.4422 34.83125Q426.1297 34.315624 426.53595 33.20625ZM420.7547 30.3625L426.55157 30.3625Q426.4422 29.065624 425.89532 28.409374Q425.05157 27.39375 423.70782 27.39375Q422.5047 27.39375 421.67657 28.20625Q420.84845 29.003124 420.7547 30.3625ZM437.16095 36.55L437.16095 35.2375Q436.17657 36.784374 434.2547 36.784374Q433.02032 36.784374 431.97345 36.096874Q430.9422 35.409374 430.36407 34.190624Q429.80157 32.971874 429.80157 31.378124Q429.80157 29.815624 430.3172 28.55Q430.83282 27.284374 431.86407 26.6125Q432.91095 25.940624 434.17657 25.940624Q435.11407 25.940624 435.84845 26.346874Q436.58282 26.7375 437.05157 27.3625L437.05157 22.2375L438.78595 22.2375L438.78595 36.55L437.16095 36.55ZM431.59845 31.378124Q431.59845 33.3625 432.4422 34.346874Q433.28595 35.33125 434.42657 35.33125Q435.58282 35.33125 436.3797 34.39375Q437.1922 33.45625 437.1922 31.51875Q437.1922 29.39375 436.36407 28.39375Q435.55157 27.39375 434.34845 27.39375Q433.17657 27.39375 432.3797 28.3625Q431.59845 29.315624 431.59845 31.378124ZM447.66095 36.55L447.66095 22.2375L452.58282 22.2375Q454.2547 22.2375 455.14532 22.440624Q456.36407 22.721874 457.23907 23.45625Q458.36407 24.425 458.92657 25.909374Q459.48907 27.39375 459.48907 29.315624Q459.48907 30.940624 459.11407 32.20625Q458.73907 33.45625 458.1297 34.284374Q457.53595 35.1125 456.83282 35.596874Q456.1297 36.065624 455.1297 36.315624Q454.1297 36.55 452.8172 36.55L447.66095 36.55ZM449.55157 34.8625L452.61407 34.8625Q454.02032 34.8625 454.8172 34.596874Q455.6297 34.33125 456.11407 33.846874Q456.78595 33.175 457.16095 32.05Q457.53595 30.909374 457.53595 29.284374Q457.53595 27.034374 456.80157 25.83125Q456.0672 24.628124 455.0047 24.221874Q454.2547 23.925 452.5672 23.925L449.55157 23.925L449.55157 34.8625ZM468.20782 35.26875Q467.22345 36.096874 466.3172 36.440624Q465.41095 36.784374 464.3797 36.784374Q462.67657 36.784374 461.7547 35.95625Q460.83282 35.1125 460.83282 33.815624Q460.83282 33.05 461.17657 32.425Q461.53595 31.8 462.09845 31.425Q462.66095 31.034374 463.36407 30.83125Q463.8797 30.70625 464.92657 30.565624Q467.05157 30.315624 468.05157 29.971874Q468.0672 29.6125 468.0672 29.503124Q468.0672 28.440624 467.5672 27.9875Q466.89532 27.39375 465.5672 27.39375Q464.3172 27.39375 463.72345 27.83125Q463.14532 28.26875 462.86407 29.378124L461.14532 29.14375Q461.3797 28.034374 461.91095 27.3625Q462.4422 26.675 463.45782 26.315624Q464.47345 25.940624 465.8172 25.940624Q467.14532 25.940624 467.97345 26.253124Q468.80157 26.565624 469.1922 27.05Q469.58282 27.51875 469.73907 28.2375Q469.83282 28.690624 469.83282 29.8625L469.83282 32.20625Q469.83282 34.659374 469.9422 35.315624Q470.05157 35.95625 470.39532 36.55L468.55157 36.55Q468.28595 36.003124 468.20782 35.26875ZM468.05157 31.346874Q467.09845 31.7375 465.17657 32.003124Q464.09845 32.159374 463.64532 32.3625Q463.20782 32.55 462.95782 32.925Q462.70782 33.3 462.70782 33.76875Q462.70782 34.471874 463.23907 34.940624Q463.77032 35.409374 464.80157 35.409374Q465.8172 35.409374 466.59845 34.971874Q467.39532 34.51875 467.77032 33.753124Q468.05157 33.14375 468.05157 31.9875L468.05157 31.346874ZM476.27032 34.971874L476.52032 36.534374Q475.78595 36.690624 475.1922 36.690624Q474.23907 36.690624 473.70782 36.39375Q473.1922 36.08125 472.97345 35.596874Q472.7547 35.096874 472.7547 33.51875L472.7547 27.55L471.47345 27.55L471.47345 26.175L472.7547 26.175L472.7547 23.6125L474.5047 22.55L474.5047 26.175L476.27032 26.175L476.27032 27.55L474.5047 27.55L474.5047 33.6125Q474.5047 34.3625 474.59845 34.58125Q474.6922 34.784374 474.89532 34.925Q475.11407 35.05 475.5047 35.05Q475.78595 35.05 476.27032 34.971874ZM485.20782 35.26875Q484.22345 36.096874 483.3172 36.440624Q482.41095 36.784374 481.3797 36.784374Q479.67657 36.784374 478.7547 35.95625Q477.83282 35.1125 477.83282 33.815624Q477.83282 33.05 478.17657 32.425Q478.53595 31.8 479.09845 31.425Q479.66095 31.034374 480.36407 30.83125Q480.8797 30.70625 481.92657 30.565624Q484.05157 30.315624 485.05157 29.971874Q485.0672 29.6125 485.0672 29.503124Q485.0672 28.440624 484.5672 27.9875Q483.89532 27.39375 482.5672 27.39375Q481.3172 27.39375 480.72345 27.83125Q480.14532 28.26875 479.86407 29.378124L478.14532 29.14375Q478.3797 28.034374 478.91095 27.3625Q479.4422 26.675 480.45782 26.315624Q481.47345 25.940624 482.8172 25.940624Q484.14532 25.940624 484.97345 26.253124Q485.80157 26.565624 486.1922 27.05Q486.58282 27.51875 486.73907 28.2375Q486.83282 28.690624 486.83282 29.8625L486.83282 32.20625Q486.83282 34.659374 486.9422 35.315624Q487.05157 35.95625 487.39532 36.55L485.55157 36.55Q485.28595 36.003124 485.20782 35.26875ZM485.05157 31.346874Q484.09845 31.7375 482.17657 32.003124Q481.09845 32.159374 480.64532 32.3625Q480.20782 32.55 479.95782 32.925Q479.70782 33.3 479.70782 33.76875Q479.70782 34.471874 480.23907 34.940624Q480.77032 35.409374 481.80157 35.409374Q482.8172 35.409374 483.59845 34.971874Q484.39532 34.51875 484.77032 33.753124Q485.05157 33.14375 485.05157 31.9875L485.05157 31.346874Z" fill-rule="nonzero"/></svg>